<svg width="15" height="15" viewBox="0 0 15 15" fill="none" xmlns="http://www.w3.org/2000/svg">
<path d="M5.51105 9.48822L9.48852 5.51074" stroke="#0745AA" stroke-linecap="round" stroke-linejoin="round"/>
<path d="M8.49402 10.4833L6.83674 12.1406C6.30926 12.6679 5.59394 12.9641 4.8481 12.964C4.10226 12.964 3.38699 12.6677 2.8596 12.1403C2.33222 11.6129 2.03591 10.8976 2.03584 10.1518C2.03578 9.40594 2.33197 8.69062 2.85926 8.16314L4.51655 6.50586" stroke="#0745AA" stroke-linecap="round" stroke-linejoin="round"/>
<path d="M10.483 8.49431L12.1403 6.83703C12.6676 6.30955 12.9638 5.59423 12.9638 4.84839C12.9637 4.10255 12.6674 3.38728 12.14 2.8599C11.6126 2.33251 10.8973 2.0362 10.1515 2.03613C9.40565 2.03607 8.69033 2.33226 8.16285 2.85955L6.50557 4.51683" stroke="#0745AA" stroke-linecap="round" stroke-linejoin="round"/>
</svg>
