<svg width="18" height="18" viewBox="0 0 18 18" fill="none" xmlns="http://www.w3.org/2000/svg">
<path d="M6.61328 11.3863L11.3863 6.61328" stroke="white" stroke-linecap="round" stroke-linejoin="round"/>
<path d="M10.1932 12.5796L8.20444 14.5683C7.57146 15.2011 6.71308 15.5565 5.81807 15.5565C4.92306 15.5564 4.06474 15.2008 3.43187 14.5679C2.79901 13.9351 2.44344 13.0767 2.44336 12.1817C2.44328 11.2867 2.79871 10.4283 3.43147 9.79538L5.4202 7.80664" stroke="white" stroke-linecap="round" stroke-linejoin="round"/>
<path d="M12.5796 10.1932L14.5684 8.20444C15.2011 7.57146 15.5565 6.71308 15.5565 5.81807C15.5564 4.92307 15.2008 4.06474 14.5679 3.43187C13.9351 2.79901 13.0768 2.44344 12.1817 2.44336C11.2867 2.44328 10.4284 2.79871 9.79538 3.43147L7.80664 5.4202" stroke="white" stroke-linecap="round" stroke-linejoin="round"/>
</svg>
