<svg width="25" height="24" viewBox="0 0 25 24" fill="none" xmlns="http://www.w3.org/2000/svg">
<path d="M23.7716 16.5152V16.2273H23.6966L23.6098 16.4249L23.5235 16.2273H23.4483V16.5152H23.5016V16.2983L23.5827 16.4855H23.6379L23.719 16.2978V16.5152H23.7718H23.7716ZM23.2958 16.5152V16.2766H23.3918V16.228H23.1465V16.2766H23.2425V16.5152H23.2953H23.2958Z" fill="#F79410"/>
<path d="M15.2473 17.7507H8.75708V6.08667H15.2475L15.2473 17.7507Z" fill="#FF5F00"/>
<path d="M9.16849 11.918C9.16849 9.55201 10.2763 7.44433 12.0014 6.08605C10.6956 5.05638 9.08051 4.49755 7.41757 4.50001C3.32113 4.50001 0.000488281 7.82113 0.000488281 11.918C0.000488281 16.015 3.32113 19.3361 7.41757 19.3361C9.08055 19.3386 10.6957 18.7797 12.0016 17.75C10.2766 16.392 9.16849 14.2842 9.16849 11.918Z" fill="#EB001B"/>
<path d="M24.0033 11.9188C24.0033 16.0157 20.6827 19.3368 16.5863 19.3368C14.9231 19.3393 13.3078 18.7804 12.0017 17.7508C13.7273 16.3925 14.8351 14.2849 14.8351 11.9188C14.8351 9.55262 13.7273 7.44506 12.0017 6.08678C13.3078 5.05715 14.9231 4.49833 16.5862 4.50074C20.6826 4.50074 24.0032 7.82186 24.0032 11.9188" fill="#F79E1B"/>
</svg>
