<svg width="24" height="8" viewBox="0 0 24 8" fill="none" xmlns="http://www.w3.org/2000/svg">
<path d="M15.6321 0C13.928 0 12.4051 0.883264 12.4051 2.51516C12.4051 4.38664 15.106 4.5159 15.106 5.45608C15.106 5.85195 14.6523 6.20632 13.8775 6.20632C12.7778 6.20632 11.9559 5.71116 11.9559 5.71116L11.6043 7.35792C11.6043 7.35792 12.551 7.77618 13.8081 7.77618C15.6712 7.77618 17.1372 6.84955 17.1372 5.18975C17.1372 3.21219 14.4251 3.08677 14.4251 2.21413C14.4251 1.90402 14.7976 1.56424 15.5702 1.56424C16.4419 1.56424 17.1532 1.92435 17.1532 1.92435L17.4973 0.333854C17.4973 0.333854 16.7235 0 15.6321 0ZM0.0412629 0.120038L0 0.360113C0 0.360113 0.716915 0.49132 1.36261 0.753048C2.194 1.05317 2.25323 1.22789 2.39325 1.77055L3.91904 7.65239H5.96436L9.11535 0.120038H7.07471L5.05002 5.24133L4.22382 0.900282C4.14805 0.403453 3.76425 0.120038 3.29447 0.120038H0.0412629ZM9.93592 0.120038L8.3351 7.65239H10.281L11.8762 0.120038H9.93592ZM20.789 0.120038C20.3198 0.120038 20.0711 0.371256 19.8887 0.810253L17.0378 7.65239H19.0785L19.4733 6.51204H21.9594L22.1994 7.65239H24L22.4292 0.120038H20.789ZM21.0544 2.15505L21.6593 4.98156H20.0388L21.0544 2.15505Z" fill="white"/>
</svg>
