<svg width="27" height="27" viewBox="0 0 27 27" fill="none" xmlns="http://www.w3.org/2000/svg">
<path fill-rule="evenodd" clip-rule="evenodd" d="M22.5332 4.34899C20.1195 1.93246 16.9094 0.60102 13.4896 0.599609C6.44281 0.599609 0.707709 6.33455 0.704888 13.3832C0.70392 15.6365 1.29252 17.836 2.41136 19.7748L0.597656 26.3996L7.37503 24.6217C9.24247 25.6404 11.3449 26.1772 13.4844 26.1779H13.4898C20.5358 26.1779 26.2715 20.4425 26.2742 13.3935C26.2756 9.9773 24.9471 6.76541 22.5332 4.34899ZM13.4896 24.0188H13.4852C11.5785 24.0179 9.70856 23.5056 8.07683 22.5376L7.68903 22.3072L3.66721 23.3623L4.74065 19.4411L4.48789 19.0391C3.42421 17.3472 2.86249 15.3918 2.86346 13.384C2.86568 7.5253 7.63263 2.75883 13.4939 2.75883C16.3321 2.75975 19.0002 3.86645 21.0063 5.87498C23.0125 7.88351 24.1167 10.5533 24.1157 13.3927C24.1132 19.2518 19.3466 24.0188 13.4896 24.0188ZM19.3182 16.0603C18.9989 15.9004 17.4282 15.1278 17.1353 15.0211C16.8427 14.9145 16.6295 14.8614 16.4168 15.181C16.2038 15.5007 15.5916 16.2203 15.4052 16.4334C15.2188 16.6466 15.0326 16.6734 14.7131 16.5134C14.3936 16.3536 13.3644 16.0161 12.1442 14.9278C11.1946 14.0808 10.5536 13.0347 10.3671 12.7151C10.181 12.3951 10.3655 12.2389 10.5072 12.0631C10.853 11.6337 11.1993 11.1835 11.3058 10.9704C11.4124 10.7572 11.359 10.5706 11.279 10.4108C11.1993 10.2509 10.5605 8.6786 10.2943 8.0388C10.0349 7.41617 9.77169 7.50022 9.57549 7.49051C9.38937 7.48119 9.17632 7.4793 8.96327 7.4793C8.75033 7.4793 8.40421 7.55912 8.11134 7.87912C7.81859 8.19896 6.99348 8.97167 6.99348 10.544C6.99348 12.1164 8.13811 13.6353 8.29779 13.8485C8.45742 14.0618 10.5504 17.2883 13.7548 18.6719C14.5169 19.0013 15.1118 19.1977 15.5759 19.3449C16.3412 19.588 17.0374 19.5537 17.5879 19.4715C18.2017 19.3797 19.4777 18.6986 19.7442 17.9525C20.0103 17.2063 20.0103 16.5668 19.9303 16.4334C19.8506 16.3002 19.6376 16.2203 19.3182 16.0603Z" fill="white"/>
</svg>
