<svg width="28" height="26" viewBox="0 0 28 26" fill="none" xmlns="http://www.w3.org/2000/svg">
<path d="M8.98605 7.40868L9.02368 7.42123C9.02809 7.42528 9.03168 7.43016 9.03422 7.4356C9.03677 7.44105 9.03822 7.44695 9.03848 7.45296C9.03875 7.45898 9.03783 7.46498 9.03578 7.47063L8.98605 7.40868ZM8.98605 7.40868C8.98134 7.40928 8.97675 7.4106 8.97243 7.41261C8.96698 7.41515 8.96209 7.41874 8.95802 7.42318C8.941 7.44177 8.92409 7.46044 8.90727 7.47918M8.98605 7.40868L8.90727 7.47918M19.9148 7.42178L19.9545 7.40853C19.959 7.40919 19.9633 7.41048 19.9674 7.41239L19.9148 7.42178ZM19.9148 7.42178C19.911 7.42558 19.9079 7.43 19.9057 7.43485C19.9031 7.44036 19.9016 7.44634 19.9014 7.45244C19.9011 7.45853 19.902 7.46462 19.9041 7.47035C19.9062 7.47609 19.9094 7.48135 19.9135 7.48584L19.9135 7.48587C19.9213 7.49431 19.929 7.50277 19.9367 7.51124L20.0328 7.47919C20.016 7.46042 19.999 7.44172 19.982 7.42311C19.982 7.42307 19.9819 7.42303 19.9819 7.42299L19.9148 7.42178ZM23.592 25.6357L24.2202 25.2261C23.1627 23.604 21.7172 22.2714 20.0147 21.3489C19.4598 21.0483 18.8834 20.7943 18.2914 20.5885C18.3306 20.5701 18.3697 20.5513 18.4086 20.5323C18.9746 20.734 19.5262 20.9797 20.058 21.2678C21.7731 22.197 23.2294 23.5393 24.295 25.1732C24.3012 25.1832 24.3032 25.1951 24.3008 25.2066C24.2983 25.2185 24.2912 25.2288 24.281 25.2354C24.2709 25.2421 24.2585 25.2444 24.2467 25.2419C24.2348 25.2395 24.2244 25.2324 24.2178 25.2223L23.592 25.6357ZM23.592 25.6357C23.7079 25.8112 23.8885 25.9337 24.0945 25.9763C24.3004 26.019 24.5149 25.9784 24.691 25.8635C24.8671 25.7485 24.9906 25.5685 25.0343 25.3627C25.0781 25.157 25.0387 24.9423 24.9246 24.7656L17.1592 21.0306C18.0257 21.2515 18.8651 21.579 19.6574 22.0083C21.2502 22.8714 22.6026 24.1181 23.592 25.6357ZM8.90727 7.47918L9.00343 7.51123C9.0111 7.50278 9.01879 7.49434 9.02651 7.48591C9.02652 7.4859 9.02653 7.48589 9.02655 7.48587L8.90727 7.47918ZM4.71984 25.2261L4.71794 25.229C4.71466 25.2341 4.71042 25.2385 4.70545 25.2419C4.70048 25.2453 4.69489 25.2477 4.68899 25.249C4.68309 25.2503 4.67699 25.2503 4.67106 25.2492C4.66513 25.2481 4.65947 25.2458 4.65442 25.2426C4.64937 25.2393 4.64502 25.235 4.64162 25.23C4.63822 25.225 4.63584 25.2194 4.63461 25.2135C4.63339 25.2076 4.63335 25.2015 4.63448 25.1956C4.63562 25.1896 4.63792 25.184 4.64126 25.179L4.6437 25.1752C5.70948 23.5405 7.16626 22.1974 8.88208 21.2678C9.41392 20.9797 9.96544 20.734 10.5315 20.5323C10.5704 20.5513 10.6095 20.5701 10.6487 20.5885C10.0567 20.7943 9.48023 21.0483 8.92538 21.3489C7.22286 22.2714 5.77737 23.604 4.71984 25.2261ZM14.4701 19.9433C14.1632 19.9433 13.8577 19.9244 13.5552 19.887C13.8164 19.8666 14.0786 19.8549 14.3415 19.852C14.3843 19.8527 14.4272 19.8531 14.47 19.8531C14.5129 19.8531 14.5558 19.8527 14.5986 19.852C14.8615 19.8549 15.1237 19.8666 15.3848 19.887C15.0824 19.9244 14.7769 19.9433 14.4701 19.9433ZM10.7935 18.8724C10.7539 18.8839 10.7143 18.8955 10.6748 18.9074C10.5776 18.8501 10.4816 18.7905 10.3868 18.7287C9.17235 17.9364 8.21461 16.8079 7.63034 15.4808C7.04607 14.1537 6.86052 12.6852 7.09629 11.2545C7.24205 10.37 7.54495 9.52347 7.98635 8.75335L8.07593 8.78321C7.6346 9.54832 7.33195 10.3903 7.18681 11.2704C6.95373 12.6837 7.13688 14.1342 7.71393 15.4452C8.29097 16.7562 9.23697 17.871 10.4366 18.6537C10.5537 18.7301 10.6727 18.803 10.7935 18.8724ZM18.2653 18.9074C18.2258 18.8955 18.1862 18.8839 18.1466 18.8724C18.2674 18.803 18.3864 18.7301 18.5035 18.6537C19.7031 17.871 20.6491 16.7562 21.2262 15.4452C21.8032 14.1342 21.9864 12.6837 21.7533 11.2704C21.6081 10.3903 21.3055 9.54833 20.8642 8.78321L20.9537 8.75336C21.3951 9.52347 21.698 10.37 21.8438 11.2545C22.0796 12.6852 21.894 14.1537 21.3097 15.4808C20.7255 16.8079 19.7677 17.9364 18.5533 18.7287C18.4585 18.7905 18.3625 18.8501 18.2653 18.9074ZM14.4556 9.32862L10.4426 7.99097C10.4436 7.9883 10.4446 7.98563 10.4456 7.98296C10.4551 7.95687 10.4638 7.93056 10.4719 7.90406L14.2328 9.15798L14.4701 9.23707L14.7073 9.15798L18.4681 7.9041C18.4762 7.93064 18.485 7.95699 18.4945 7.98312C18.4954 7.98575 18.4964 7.98838 18.4974 7.991L14.4845 9.32862C14.4845 9.32864 14.4844 9.32865 14.4844 9.32867C14.4751 9.33173 14.4651 9.33173 14.4558 9.32868C14.4557 9.32866 14.4556 9.32864 14.4556 9.32862ZM21.5604 6.97C21.5404 6.94431 21.5204 6.91871 21.5001 6.89322L24.9231 5.75198L27.0572 5.04048L24.9231 4.32899L14.7073 0.922989L14.4701 0.843901L14.2328 0.922989L4.01697 4.32899L3.21768 4.59547C3.20882 4.56603 3.1991 4.53687 3.18852 4.50804L14.4556 0.752347C14.4556 0.752337 14.4556 0.752328 14.4557 0.752318C14.465 0.749227 14.4751 0.749227 14.4844 0.752318C14.4845 0.752328 14.4845 0.752337 14.4845 0.752347L27.2171 4.99652L27.2185 4.99701C27.2277 5.00004 27.2356 5.00586 27.2413 5.01367C27.2469 5.02147 27.2499 5.03086 27.2499 5.04048C27.2499 5.05011 27.2469 5.05949 27.2413 5.0673C27.2356 5.0751 27.2277 5.08093 27.2185 5.08395L27.2171 5.08444L21.5604 6.97ZM7.43994 6.89321C7.41972 6.9187 7.39964 6.9443 7.37971 6.97L3.28313 5.60447V5.50732L4.01697 5.75198L7.43994 6.89321ZM1.78313 5.04054V5.10447L1.72306 5.08444L1.72159 5.08396C1.71245 5.08093 1.70449 5.0751 1.69886 5.0673C1.69542 5.06254 1.69295 5.05719 1.69155 5.05156V5.04054C1.69155 5.0284 1.69637 5.01675 1.70496 5.00816C1.71355 4.99958 1.72519 4.99475 1.73734 4.99475C1.74948 4.99475 1.76113 4.99958 1.76972 5.00816C1.77831 5.01675 1.78313 5.0284 1.78313 5.04054ZM1.69155 6.65508L1.78313 6.68561V15.6511C1.78313 15.6633 1.77831 15.6749 1.76972 15.6835C1.76113 15.6921 1.74948 15.6969 1.73734 15.6969C1.7252 15.6969 1.71355 15.6921 1.70496 15.6835C1.69637 15.6749 1.69155 15.6633 1.69155 15.6511V6.65508Z" stroke="#828282" stroke-width="1.5"/>
</svg>
