<svg version="1.1" xmlns="http://www.w3.org/2000/svg" xmlns:xlink="http://www.w3.org/1999/xlink" width="30" height="30" viewBox="0,0,256,256"><g fill="#ffffff" fill-rule="nonzero" stroke="none" stroke-width="1" stroke-linecap="butt" stroke-linejoin="miter" stroke-miterlimit="10" stroke-dasharray="" stroke-dashoffset="0" font-family="none" font-weight="none" font-size="none" text-anchor="none" style="mix-blend-mode: normal"><g transform="translate(0,0.00004) scale(8.53333,8.53333)"><path d="M1.81641,19.9219c0,0.4854 0.39351,0.8789 0.8789,0.8789h24.60939c0.4854,0 0.8789,-0.3935 0.8789,-0.8789v-14.64846h-26.36719zM21.553,9.22851c0.763,0 1.4995,0.22512 2.13,0.65092c0.4022,0.27167 0.5081,0.81807 0.2363,1.22027c-0.2716,0.4021 -0.818,0.5081 -1.2203,0.2363c-0.3386,-0.2287 -0.735,-0.3497 -1.146,-0.3497c-1.1308,0 -2.0508,0.9199 -2.0508,2.0507c0,1.1308 0.92,2.0508 2.0508,2.0508c0.8522,0 1.3201,-0.5198 1.5241,-1.1718h-0.7479c-0.4854,0 -0.8789,-0.3936 -0.8789,-0.879c0,-0.4853 0.3935,-0.8789 0.8789,-0.8789h1.7528c0.4854,0 0.8789,0.3936 0.8789,0.8789c0,2.2425 -1.4014,3.8086 -3.4079,3.8086c-2.1001,0 -3.8086,-1.7085 -3.8086,-3.8086c0,-2.1 1.7085,-3.80849 3.8086,-3.80849zM10.8984,10.1184c0,-0.18743 0.0599,-0.36992 0.171,-0.52087c0.1111,-0.15095 0.2675,-0.26244 0.4464,-0.31821c0.1789,-0.05577 0.371,-0.05289 0.5481,0.00822c0.1772,0.0611 0.3302,0.17724 0.4367,0.33144l2.4789,3.58972l-0.0298,-3.0927c-0.0047,-0.48536 0.3849,-0.88262 0.8703,-0.88737l0.0087,-0.00006c0.4815,0 0.874,0.38789 0.8787,0.87033l0.0547,5.6619l0.0001,0.0086c0,0.4602 -0.2648,0.8404 -0.6747,0.9684c-0.4028,0.1258 -0.8263,-0.0287 -1.0787,-0.3935l-2.3526,-3.4065v3.029c0,0.4854 -0.3935,0.8789 -0.8789,0.8789c-0.4853,0 -0.8789,-0.3935 -0.8789,-0.8789zM5.50781,10.1074c0,-0.48537 0.39352,-0.87889 0.87891,-0.87889h2.4689c0.48539,0 0.87891,0.39352 0.87891,0.87889c0,0.4854 -0.39352,0.8789 -0.87891,0.8789h-1.59v1.1719h1.40795c0.48539,0 0.87891,0.3935 0.87891,0.8789c0,0.4854 -0.39352,0.8789 -0.87891,0.8789h-1.40795v1.1719h1.59c0.48539,0 0.87891,0.3935 0.87891,0.8789c0,0.4854 -0.39352,0.8789 -0.87891,0.8789h-2.4689c-0.48539,0 -0.87891,-0.3935 -0.87891,-0.8789zM29.1211,0h-28.24219c-0.48539,0 -0.87891,0.39352 -0.87891,0.87891v1.75781c0,0.48539 0.39352,0.8789 0.87891,0.8789h28.24219c0.4854,0 0.8789,-0.39351 0.8789,-0.8789v-1.75781c0,-0.48539 -0.3935,-0.87891 -0.8789,-0.87891zM19.2054,22.5586h-1.9653l1.0254,2.0508h-6.531l1.0254,-2.0508h-1.9654l-3.08456,6.1692c-0.21709,0.4342 -0.04113,0.9621 0.39305,1.1792c0.43418,0.2171 0.96211,0.0411 1.1792,-0.393l1.57341,-3.1468h8.2888l1.5734,3.1468c0.2171,0.4341 0.745,0.6101 1.1792,0.393c0.4342,-0.2171 0.6101,-0.745 0.3931,-1.1792z"></path></g></g></svg>