<svg width="30" height="30" viewBox="0 0 30 30" fill="none" xmlns="http://www.w3.org/2000/svg">
<path d="M1.81641 19.9219C1.81641 20.4073 2.20992 20.8008 2.69531 20.8008H27.3047C27.7901 20.8008 28.1836 20.4073 28.1836 19.9219V5.27344H1.81641V19.9219ZM21.553 9.22851C22.316 9.22851 23.0525 9.45363 23.683 9.87943C24.0852 10.1511 24.1911 10.6975 23.9193 11.0997C23.6477 11.5018 23.1013 11.6078 22.699 11.336C22.3604 11.1073 21.964 10.9863 21.553 10.9863C20.4222 10.9863 19.5022 11.9062 19.5022 13.037C19.5022 14.1678 20.4222 15.0878 21.553 15.0878C22.4052 15.0878 22.8731 14.568 23.0771 13.916H22.3292C21.8438 13.916 21.4503 13.5224 21.4503 13.037C21.4503 12.5517 21.8438 12.1581 22.3292 12.1581H24.082C24.5674 12.1581 24.9609 12.5517 24.9609 13.037C24.9609 15.2795 23.5595 16.8456 21.553 16.8456C19.4529 16.8456 17.7444 15.1371 17.7444 13.037C17.7444 10.937 19.4529 9.22851 21.553 9.22851ZM10.8984 10.1184C10.8984 9.93097 10.9583 9.74848 11.0694 9.59753C11.1805 9.44658 11.3369 9.33509 11.5158 9.27932C11.6947 9.22355 11.8868 9.22643 12.0639 9.28754C12.2411 9.34864 12.3941 9.46478 12.5006 9.61898L14.9795 13.2087L14.9497 10.116C14.945 9.63064 15.3346 9.23338 15.82 9.22863L15.8287 9.22857C16.3102 9.22857 16.7027 9.61646 16.7074 10.0989L16.7621 15.7608L16.7622 15.7694C16.7622 16.2296 16.4974 16.6098 16.0875 16.7378C15.6847 16.8636 15.2612 16.7091 15.0088 16.3443L12.6562 12.9378V15.9668C12.6562 16.4522 12.2627 16.8457 11.7773 16.8457C11.292 16.8457 10.8984 16.4522 10.8984 15.9668V10.1184ZM5.50781 10.1074C5.50781 9.62203 5.90133 9.22851 6.38672 9.22851H8.85562C9.34101 9.22851 9.73453 9.62203 9.73453 10.1074C9.73453 10.5928 9.34101 10.9863 8.85562 10.9863H7.26562V12.1582H8.67357C9.15896 12.1582 9.55248 12.5517 9.55248 13.0371C9.55248 13.5225 9.15896 13.916 8.67357 13.916H7.26562V15.0879H8.85562C9.34101 15.0879 9.73453 15.4814 9.73453 15.9668C9.73453 16.4522 9.34101 16.8457 8.85562 16.8457H6.38672C5.90133 16.8457 5.50781 16.4522 5.50781 15.9668V10.1074ZM29.1211 0H0.878906C0.393516 0 0 0.393516 0 0.878906V2.63672C0 3.12211 0.393516 3.51562 0.878906 3.51562H29.1211C29.6065 3.51562 30 3.12211 30 2.63672V0.878906C30 0.393516 29.6065 0 29.1211 0ZM19.2054 22.5586H17.2401L18.2655 24.6094H11.7345L12.7599 22.5586H10.7945L7.70994 28.7278C7.49285 29.162 7.66881 29.6899 8.10299 29.907C8.53717 30.1241 9.0651 29.9481 9.28219 29.514L10.8556 26.3672H19.1444L20.7178 29.514C20.9349 29.9481 21.4628 30.1241 21.897 29.907C22.3312 29.6899 22.5071 29.162 22.2901 28.7278L19.2054 22.5586Z" fill="#0745AA"/>
</svg>
