<svg version="1.1" xmlns="http://www.w3.org/2000/svg" xmlns:xlink="http://www.w3.org/1999/xlink" width="32" height="30" viewBox="0,0,256,240"><g fill="#ffffff" fill-rule="nonzero" stroke="none" stroke-width="1" stroke-linecap="butt" stroke-linejoin="miter" stroke-miterlimit="10" stroke-dasharray="" stroke-dashoffset="0" font-family="none" font-weight="none" font-size="none" text-anchor="none" style="mix-blend-mode: normal"><g transform="translate(0,-0.002) scale(8,8)"><path d="M31.4104,18.8168l-9.375,-3.75c-0.2233,-0.0897 -0.4726,-0.0897 -0.6958,0l-9.375,3.75c-0.3562,0.1428 -0.5896,0.4871 -0.5896,0.8707c0,0.3836 0.2334,0.7279 0.5896,0.8707l9.375,3.75c0.2234,0.0891 0.4725,0.0891 0.6958,0l8.0896,-3.2358v6.1151c0,0.5182 0.4193,0.9375 0.9375,0.9375c0.5182,0 0.9375,-0.4193 0.9375,-0.9375v-7.5c0,-0.3534 -0.2741,-0.7444 -0.5896,-0.8707zM2.8125,9.375h4.6875v-0.9375c0,-0.51819 0.41931,-0.9375 0.9375,-0.9375h3.75c0.5182,0 0.9375,0.41931 0.9375,0.9375v0.9375h4.6875c1.5509,0 2.8125,-1.26163 2.8125,-2.8125v-1.875c0,-0.51819 -0.4193,-0.9375 -0.9375,-0.9375h-4.6875v-2.8125c0,-0.51819 -0.4193,-0.9375 -0.9375,-0.9375h-7.5c-0.51819,0 -0.9375,0.41931 -0.9375,0.9375v2.8125h-4.6875c-0.51819,0 -0.9375,0.41931 -0.9375,0.9375v1.875c0,1.55087 1.26163,2.8125 2.8125,2.8125zM7.5,1.875h5.625v1.875h-5.625zM10.3125,11.25c0.5173,0 0.9375,-0.4202 0.9375,-0.9375v-0.9375h-1.875v0.9375c0,0.5173 0.42025,0.9375 0.9375,0.9375z"></path><path d="M0.9375,18.7505h8.61169c0.26412,-0.7468 0.82441,-1.3658 1.59281,-1.6736c4.1693,-1.6588 8.5244,-3.4308 9.483,-3.7715v-3.0163c-0.7859,0.5948 -1.7533,0.9614 -2.8125,0.9614h-4.8602c-0.3883,1.0889 -1.4192,1.875 -2.6398,1.875c-1.22062,0 -2.2515,-0.7861 -2.63981,-1.875h-4.86019c-1.05925,0 -2.02662,-0.3666 -2.8125,-0.9614v7.5239c0,0.5182 0.41931,0.9375 0.9375,0.9375zM27.3125,30.0005c0.5182,0 0.9375,-0.4193 0.9375,-0.9375v-5.2204l-5.5179,2.2074c-0.6643,0.2661 -1.4192,0.2695 -2.091,-0.0018l-5.5161,-2.2058v5.2206c0,0.5182 0.4193,0.9375 0.9375,0.9375z"></path></g></g></svg>