<svg width="32" height="30" viewBox="0 0 32 30" fill="none" xmlns="http://www.w3.org/2000/svg">
<path d="M31.4104 18.8168L22.0354 15.0668C21.8121 14.9771 21.5628 14.9771 21.3396 15.0668L11.9646 18.8168C11.6084 18.9596 11.375 19.3039 11.375 19.6875C11.375 20.0711 11.6084 20.4154 11.9646 20.5582L21.3396 24.3082C21.563 24.3973 21.8121 24.3973 22.0354 24.3082L30.125 21.0724V27.1875C30.125 27.7057 30.5443 28.125 31.0625 28.125C31.5807 28.125 32 27.7057 32 27.1875V19.6875C32 19.3341 31.7259 18.9431 31.4104 18.8168ZM2.8125 9.375H7.5V8.4375C7.5 7.91931 7.91931 7.5 8.4375 7.5H12.1875C12.7057 7.5 13.125 7.91931 13.125 8.4375V9.375H17.8125C19.3634 9.375 20.625 8.11337 20.625 6.5625V4.6875C20.625 4.16931 20.2057 3.75 19.6875 3.75H15V0.9375C15 0.419312 14.5807 0 14.0625 0H6.5625C6.04431 0 5.625 0.419312 5.625 0.9375V3.75H0.9375C0.419312 3.75 0 4.16931 0 4.6875V6.5625C0 8.11337 1.26163 9.375 2.8125 9.375ZM7.5 1.875H13.125V3.75H7.5V1.875ZM10.3125 11.25C10.8298 11.25 11.25 10.8298 11.25 10.3125V9.375H9.375V10.3125C9.375 10.8298 9.79525 11.25 10.3125 11.25Z" fill="#0745AA"/>
<path d="M0.9375 18.7505H9.54919C9.81331 18.0037 10.3736 17.3847 11.142 17.0769C15.3113 15.4181 19.6664 13.6461 20.625 13.3054V10.2891C19.8391 10.8839 18.8717 11.2505 17.8125 11.2505H12.9523C12.564 12.3394 11.5331 13.1255 10.3125 13.1255C9.09188 13.1255 8.061 12.3394 7.67269 11.2505H2.8125C1.75325 11.2505 0.785875 10.8839 0 10.2891V17.813C0 18.3312 0.419312 18.7505 0.9375 18.7505ZM27.3125 30.0005C27.8307 30.0005 28.25 29.5812 28.25 29.063V23.8426L22.7321 26.05C22.0678 26.3161 21.3129 26.3195 20.6411 26.0482L15.125 23.8424V29.063C15.125 29.5812 15.5443 30.0005 16.0625 30.0005H27.3125Z" fill="#0745AA"/>
</svg>
