<svg version="1.1" xmlns="http://www.w3.org/2000/svg" xmlns:xlink="http://www.w3.org/1999/xlink" width="35" height="30" viewBox="0,0,256,219.425"><g fill="#ffffff" fill-rule="nonzero" stroke="none" stroke-width="1" stroke-linecap="butt" stroke-linejoin="miter" stroke-miterlimit="10" stroke-dasharray="" stroke-dashoffset="0" font-family="none" font-weight="none" font-size="none" text-anchor="none" style="mix-blend-mode: normal"><g transform="translate(2.53879,-0.00178) scale(7.31429,7.31429)"><path d="M31.148,0h-15.0719c-1.7442,0 -3.1578,1.41391 -3.1578,3.15781v7.42399c0.7967,0.396 1.6576,0.8242 2.4611,1.2236l1.2294,-2.45969c0.7444,-1.48748 2.5589,-2.09185 4.0458,-1.34878c1.49,0.74575 2.0939,2.55527 1.3479,4.04567l-2.1915,4.384c0.0587,0.5819 0.0054,1.1696 -0.157,1.7313h1.4469l-3.8161,10.4935c-0.2265,0.6223 0.2112,1.3486 0.9448,1.3486c0.4102,0 0.796,-0.2531 0.9441,-0.6619l4.0658,-11.1802h0.7043l4.1071,11.1836c0.1494,0.4067 0.5342,0.6585 0.944,0.6585c0.6855,0 1.188,-0.6846 0.9428,-1.3513l-3.8526,-10.4908h5.0629c1.7439,0 3.1578,-1.4139 3.1578,-3.1578v-11.84223c0,-1.74396 -1.4139,-3.15787 -3.1578,-3.15787zM28.9945,13.8522h-4.5094c-0.5549,0 -1.0051,-0.4502 -1.0051,-1.0051c0,-0.5554 0.4502,-1.005 1.0051,-1.005h4.5093c0.5555,0 1.0051,0.4496 1.0051,1.005c0,0.5549 -0.4496,1.0051 -1.005,1.0051zM28.9945,10.084h-4.5094c-0.5549,0 -1.0051,-0.44957 -1.0051,-1.00503c0,-0.55486 0.4502,-1.00505 1.0051,-1.00505h4.5093c0.5555,0 1.0051,0.45019 1.0051,1.00505c0,0.55546 -0.4496,1.00503 -1.005,1.00503zM28.9945,6.31642h-10.7649c-0.5554,0 -1.005,-0.45027 -1.005,-1.00506c0,-0.55478 0.4496,-1.00505 1.005,-1.00505h10.7648c0.5554,0 1.0051,0.45013 1.0051,1.00505c0,0.55493 -0.4496,1.00506 -1.005,1.00506z"></path><path d="M17.6837,17.7268c0.1816,-0.532 0.1803,-1.088 0.0269,-1.5952l2.4944,-4.9881c0.2481,-0.4965 0.0471,-1.1003 -0.4494,-1.34846c-0.4963,-0.24839 -1.1001,-0.04711 -1.3485,0.44946l-2.1273,4.2542c-1.2716,-0.6332 -3.2034,-1.5937 -4.7596,-2.3677c-1.448,-0.72 -2.4813,-1.3657 -4.24429,-1.3657h-0.88807c1.37277,0 2.59793,-0.6318 3.39989,-1.62067c0.61197,-0.75245 0.97787,-1.71147 0.97787,-2.75652c0,-2.41815 -1.95987,-4.37801 -4.37829,-4.37801c-2.41735,0 -4.37721,1.95986 -4.37721,4.37801c0,1.1613 0.45228,2.21661 1.19012,2.99975c0.79774,0.84824 1.93077,1.37744 3.18682,1.37774c-1.684,0 -3.33027,0.6823 -4.51463,1.8698c-1.2074,1.2042 -1.87241,2.8086 -1.87241,4.5178v3.2295c0,1.3903 0.90274,2.5733 2.15302,2.9942v5.6178c0,0.5552 0.44993,1.005 1.00505,1.005h6.459c0.55513,0 1.00503,-0.4498 1.00503,-1.005v-11.2924c0.953,0.4764 2.2049,1.1022 3.2178,1.6089c0.71,0.3549 1.5397,0.3868 2.2797,0.0858c0.7378,-0.3036 1.3065,-0.9079 1.5601,-1.6583z"></path></g></g></svg>