<svg width="35" height="30" viewBox="0 0 35 30" fill="none" xmlns="http://www.w3.org/2000/svg">
<path d="M31.148 0H16.0761C14.3319 0 12.9183 1.41391 12.9183 3.15781V10.5818C13.715 10.9778 14.5759 11.406 15.3794 11.8054L16.6088 9.34571C17.3532 7.85823 19.1677 7.25386 20.6546 7.99693C22.1446 8.74268 22.7485 10.5522 22.0025 12.0426L19.811 16.4266C19.8697 17.0085 19.8164 17.5962 19.654 18.1579H21.1009L17.2848 28.6514C17.0583 29.2737 17.496 30 18.2296 30C18.6398 30 19.0256 29.7469 19.1737 29.3381L23.2395 18.1579H23.9438L28.0509 29.3415C28.2003 29.7482 28.5851 30 28.9949 30C29.6804 30 30.1829 29.3154 29.9377 28.6487L26.0851 18.1579H31.148C32.8919 18.1579 34.3058 16.744 34.3058 15.0001V3.15787C34.3058 1.41391 32.8919 0 31.148 0ZM28.9945 13.8522H24.4851C23.9302 13.8522 23.48 13.402 23.48 12.8471C23.48 12.2917 23.9302 11.8421 24.4851 11.8421H28.9944C29.5499 11.8421 29.9995 12.2917 29.9995 12.8471C29.9995 13.402 29.5499 13.8522 28.9945 13.8522ZM28.9945 10.084H24.4851C23.9302 10.084 23.48 9.63443 23.48 9.07897C23.48 8.52411 23.9302 8.07392 24.4851 8.07392H28.9944C29.5499 8.07392 29.9995 8.52411 29.9995 9.07897C29.9995 9.63443 29.5499 10.084 28.9945 10.084ZM28.9945 6.31642H18.2296C17.6742 6.31642 17.2246 5.86615 17.2246 5.31136C17.2246 4.75658 17.6742 4.30631 18.2296 4.30631H28.9944C29.5498 4.30631 29.9995 4.75644 29.9995 5.31136C29.9995 5.86629 29.5499 6.31642 28.9945 6.31642Z" fill="#0745AA"/>
<path d="M17.6837 17.7268C17.8653 17.1948 17.864 16.6388 17.7106 16.1316L20.205 11.1435C20.4531 10.647 20.2521 10.0432 19.7556 9.79504C19.2593 9.54665 18.6555 9.74793 18.4071 10.2445L16.2798 14.4987C15.0082 13.8655 13.0764 12.905 11.5202 12.131C10.0722 11.411 9.0389 10.7653 7.27591 10.7653H6.38784C7.76061 10.7653 8.98577 10.1335 9.78773 9.14463C10.3997 8.39218 10.7656 7.43316 10.7656 6.38811C10.7656 3.96996 8.80573 2.0101 6.38731 2.0101C3.96996 2.0101 2.0101 3.96996 2.0101 6.38811C2.0101 7.54941 2.46238 8.60472 3.20022 9.38786C3.99796 10.2361 5.13099 10.7653 6.38704 10.7656C4.70304 10.7656 3.05677 11.4479 1.87241 12.6354C0.665009 13.8396 0 15.444 0 17.1532V20.3827C0 21.773 0.902738 22.956 2.15302 23.3769V28.9947C2.15302 29.5499 2.60295 29.9997 3.15807 29.9997H9.61707C10.1722 29.9997 10.6221 29.5499 10.6221 28.9947V17.7023C11.5751 18.1787 12.827 18.8045 13.8399 19.3112C14.5499 19.6661 15.3796 19.698 16.1196 19.397C16.8574 19.0934 17.4261 18.4891 17.6797 17.7387L17.6837 17.7268Z" fill="#0745AA"/>
</svg>
