<svg version="1.1" xmlns="http://www.w3.org/2000/svg" xmlns:xlink="http://www.w3.org/1999/xlink" width="30" height="30" viewBox="0,0,256,256"><g fill="#ffffff" fill-rule="nonzero" stroke="none" stroke-width="1" stroke-linecap="butt" stroke-linejoin="miter" stroke-miterlimit="10" stroke-dasharray="" stroke-dashoffset="0" font-family="none" font-weight="none" font-size="none" text-anchor="none" style="mix-blend-mode: normal"><g transform="scale(8.53333,8.53333)"><path d="M8.84766,30h12.30464v-14.1797h-12.30464zM14.1211,19.3945h1.7578v7.0313h-1.7578zM19.3189,6.89895c2.4524,-0.50215 3.5913,-2.43809 3.5913,-4.26223v-2.63672h-15.82036v2.63672c0,1.8242 1.13895,3.76008 3.59126,4.26223c0.3073,1.78007 1.6781,3.19985 3.44,3.55885v1.8469h-3.5156v1.7578h8.789v-1.7578h-3.5156v-1.8469c1.7619,-0.3589 3.1327,-1.77884 3.44,-3.55885zM19.3945,1.75781h1.7578v0.87891c0,0.98074 -0.4914,2.0066 -1.7578,2.4307zM10.6055,5.06033c-1.26759,-0.4374 -1.75784,-1.48769 -1.75784,-2.42361v-0.87891h1.75784zM0,19.3945h7.08984v10.6055h-7.08984zM22.9102,21.1523h7.0898v8.8477h-7.0898z"></path></g></g></svg>