<svg width="30" height="30" viewBox="0 0 30 30" fill="none" xmlns="http://www.w3.org/2000/svg">
<path d="M8.84766 30H21.1523V15.8203H8.84766V30ZM14.1211 19.3945H15.8789V26.4258H14.1211V19.3945ZM19.3189 6.89895C21.7713 6.3968 22.9102 4.46086 22.9102 2.63672V0H7.08984V2.63672C7.08984 4.46092 8.22879 6.3968 10.6811 6.89895C10.9884 8.67902 12.3592 10.0988 14.1211 10.4578V12.3047H10.6055V14.0625H19.3945V12.3047H15.8789V10.4578C17.6408 10.0989 19.0116 8.67896 19.3189 6.89895ZM19.3945 1.75781H21.1523V2.63672C21.1523 3.61746 20.6609 4.64332 19.3945 5.06742V1.75781ZM10.6055 5.06033C9.33791 4.62293 8.84766 3.57264 8.84766 2.63672V1.75781H10.6055V5.06033ZM0 19.3945H7.08984V30H0V19.3945ZM22.9102 21.1523H30V30H22.9102V21.1523Z" fill="#0745AA"/>
</svg>
