<svg version="1.1" xmlns="http://www.w3.org/2000/svg" xmlns:xlink="http://www.w3.org/1999/xlink" width="22" height="30" viewBox="0,0,187.72501,256"><g fill="#ffffff" fill-rule="nonzero" stroke="none" stroke-width="1" stroke-linecap="butt" stroke-linejoin="miter" stroke-miterlimit="10" stroke-dasharray="" stroke-dashoffset="0" font-family="none" font-weight="none" font-size="none" text-anchor="none" style="mix-blend-mode: normal"><g transform="translate(0.00266,0.00005) scale(8.53333,8.53333)"><path d="M2.50012,0c-1.37951,0 -2.50012,1.12061 -2.50012,2.49634v20.56226c0.32418,-0.3352 0.71232,-0.6019 1.14145,-0.7843c0.42912,-0.1825 0.89049,-0.2769 1.35678,-0.2778h19.50017v-20.49794c-0.002,-0.39716 -0.1608,-0.77745 -0.4418,-1.05811c-0.281,-0.28066 -0.6615,-0.43896 -1.0586,-0.44045zM7.72713,9.41466l1.70643,3.83804c0.04157,0.0756 0.06236,0.1606 0.06236,0.2457c0,1.2472 -0.80503,2.4982 -2.49823,2.4982c-1.6932,0 -2.50201,-1.2926 -2.50201,-2.4982c0,-0.0699 0.01323,-0.1399 0.04913,-0.2192l1.71588,-3.86265c-0.1833,-0.03968 -0.80502,-0.23055 -1.11872,-0.56503c-0.45354,-0.48188 0.21543,-1.17164 0.70865,-0.70865c0.18708,0.17574 0.68975,0.35527 1.14896,0.35527c1.18675,0 1.81982,-0.87306 3.49602,-0.97699v-1.02991c0,-0.33259 0.2494,-0.49889 0.4989,-0.497v0.00378c0.2494,0 0.4989,0.16441 0.4989,0.497v1.02991c1.6762,0.10393 2.3092,0.97699 3.496,0.97699c0.4592,0 0.9637,-0.17953 1.1489,-0.35527c0.4933,-0.46299 1.1622,0.22677 0.7106,0.70865c-0.3156,0.33448 -0.9373,0.52535 -1.1206,0.56503l1.7158,3.86267c0.036,0.0793 0.0511,0.1492 0.0511,0.2192c0,1.2056 -0.8088,2.4982 -2.5039,2.4982c-1.6951,0 -2.4983,-1.2529 -2.4983,-2.4982c0,-0.0851 0.0208,-0.1701 0.0624,-0.2457l1.7083,-3.83617c-0.6916,-0.02646 -1.697,-0.91841 -3.2692,-0.91652c-1.57228,-0.00378 -2.57762,0.88817 -3.26926,0.91274zM10.4975,9.49592l0.9959,0.00378v7.5022h2.0239c0.6916,0.036 0.6406,1.0318 -0.0246,0.9997l-4.99645,-0.0038c-0.66519,0.0322 -0.71621,-0.9637 -0.02457,-1.0015h2.02582zM6.99958,10.2272l-1.23022,2.7685h2.45666zM14.9913,10.231l-1.2284,2.7704h2.4567zM2.50012,22.9981c-1.37951,0 -2.50012,1.1263 -2.50012,2.502c0,1.3757 1.1225,2.4982 2.49823,2.4982h0.49889v-1.9993h-0.49889c-0.66708,0 -0.66708,-1.0016 0,-1.0016h17.00007c0.6671,0 0.6671,1.0016 0,1.0016h-9.49971v1.9993h10.49941c0.3971,-0.0015 0.7776,-0.1598 1.0586,-0.4404c0.281,-0.2807 0.4398,-0.661 0.4418,-1.0581v-3.5017zM3.99679,25.999v3.4979c-0.00046,0.0994 0.02865,0.1966 0.08365,0.2794c0.05499,0.0828 0.13338,0.1474 0.22517,0.1854c0.09179,0.0381 0.19285,0.0481 0.2903,0.0285c0.09745,-0.0195 0.18689,-0.0675 0.25693,-0.1381l1.64596,-1.6478l1.64596,1.6478c0.07024,0.0693 0.15935,0.1162 0.25615,0.135c0.09681,0.0187 0.197,0.0085 0.28802,-0.0294c0.09102,-0.038 0.16881,-0.1019 0.22362,-0.1839c0.05481,-0.082 0.0842,-0.1783 0.08448,-0.2769v-3.4979z"></path></g></g></svg>