<svg width="22" height="30" viewBox="0 0 22 30" fill="none" xmlns="http://www.w3.org/2000/svg">
<path d="M2.50012 0C1.12061 0 0 1.12061 0 2.49634V23.0586C0.324177 22.7234 0.712323 22.4567 1.14145 22.2743C1.57057 22.0918 2.03194 21.9974 2.49823 21.9965H21.9984V1.49856C21.9964 1.1014 21.8376 0.721109 21.5566 0.440451C21.2756 0.159792 20.8951 0.00148997 20.498 0H2.50012ZM7.72713 9.41466L9.43356 13.2527C9.47513 13.3283 9.49592 13.4133 9.49592 13.4984C9.49592 14.7456 8.69089 15.9966 6.99769 15.9966C5.30449 15.9966 4.49568 14.704 4.49568 13.4984C4.49568 13.4285 4.50891 13.3585 4.54481 13.2792L6.26069 9.41655C6.07739 9.37687 5.45567 9.186 5.14197 8.85152C4.68843 8.36964 5.3574 7.67988 5.85062 8.14287C6.0377 8.31861 6.54037 8.49814 6.99958 8.49814C8.18633 8.49814 8.8194 7.62508 10.4956 7.52115V6.49124C10.4956 6.15865 10.745 5.99235 10.9945 5.99424V5.99802C11.2439 5.99802 11.4934 6.16243 11.4934 6.49502V7.52493C13.1696 7.62886 13.8026 8.50192 14.9894 8.50192C15.4486 8.50192 15.9531 8.32239 16.1383 8.14665C16.6316 7.68366 17.3005 8.37342 16.8489 8.8553C16.5333 9.18978 15.9116 9.38065 15.7283 9.42033L17.4441 13.283C17.4801 13.3623 17.4952 13.4322 17.4952 13.5022C17.4952 14.7078 16.6864 16.0004 14.9913 16.0004C13.2962 16.0004 12.493 14.7475 12.493 13.5022C12.493 13.4171 12.5138 13.3321 12.5554 13.2565L14.2637 9.42033C13.5721 9.39387 12.5667 8.50192 10.9945 8.50381C9.42222 8.50003 8.41688 9.39198 7.72524 9.41655L7.72713 9.41466ZM10.4975 9.49592L11.4934 9.4997V17.0019H13.5173C14.2089 17.0379 14.1579 18.0337 13.4927 18.0016L8.49625 17.9978C7.83106 18.03 7.78004 17.0341 8.47168 16.9963H10.4975V9.49592ZM6.99958 10.2272L5.76936 12.9957H8.22602L6.99958 10.2272ZM14.9913 10.231L13.7629 13.0014H16.2196L14.9913 10.231ZM2.50012 22.9981C1.12061 22.9981 0 24.1244 0 25.5001C0 26.8758 1.1225 27.9983 2.49823 27.9983H2.99712V25.999H2.49823C1.83115 25.999 1.83115 24.9974 2.49823 24.9974H19.4983C20.1654 24.9974 20.1654 25.999 19.4983 25.999H9.99859V27.9983H20.498C20.8951 27.9968 21.2756 27.8385 21.5566 27.5579C21.8376 27.2772 21.9964 26.8969 21.9984 26.4998V22.9981H2.50012ZM3.99679 25.999V29.4969C3.99633 29.5963 4.02544 29.6935 4.08044 29.7763C4.13543 29.8591 4.21382 29.9237 4.30561 29.9617C4.3974 29.9998 4.49846 30.0098 4.59591 29.9902C4.69336 29.9707 4.7828 29.9227 4.85284 29.8521L6.4988 28.2043L8.14476 29.8521C8.215 29.9214 8.30411 29.9683 8.40091 29.9871C8.49772 30.0058 8.59791 29.9956 8.68893 29.9577C8.77995 29.9197 8.85774 29.8558 8.91255 29.7738C8.96736 29.6918 8.99675 29.5955 8.99703 29.4969V25.999H3.99679Z" fill="#0745AA"/>
</svg>
