<svg width="52" height="45" viewBox="0 0 52 45" fill="none" xmlns="http://www.w3.org/2000/svg">
<path d="M27.3281 44.9999C26.2287 44.9999 25.5731 43.9101 25.9121 42.9768L32.3673 25.2142C32.6517 24.4318 33.5166 24.0282 34.2985 24.3124C35.0805 24.597 35.4838 25.4623 35.1994 26.2448L28.7442 44.007C28.5213 44.6195 27.9437 45 27.3281 45V44.9999Z" fill="#003282"/>
<path d="M43.4666 44.9999C42.853 44.9999 42.2762 44.6219 42.0521 44.0117L35.5321 26.2491C35.2453 25.4675 35.6463 24.6013 36.4271 24.3144C37.208 24.0269 38.0739 24.4282 38.3607 25.2095L44.8807 42.9721C45.248 43.9725 44.4947 44.9999 43.4666 44.9999Z" fill="#003282"/>
<path d="M46.6946 0H24.1001C21.4857 0 19.3661 2.12086 19.3661 4.7367V22.5C19.3661 25.1159 21.4857 27.2367 24.1001 27.2367H46.6945C49.3089 27.2368 51.4286 25.116 51.4286 22.5002V4.7368C51.4286 2.12086 49.3089 0 46.6946 0Z" fill="#EFF6FE"/>
<path d="M46.6946 0H35.1994V27.2368H46.6945C49.3089 27.2368 51.4286 25.116 51.4286 22.5002V4.7368C51.4286 2.12086 49.3089 0 46.6946 0Z" fill="#EFF6FE"/>
<path d="M16.1381 9.58174C16.1381 13.2082 13.2001 16.1479 9.57576 16.1479C5.95145 16.1479 3.01339 13.2082 3.01339 9.58174C3.01339 5.95492 5.95145 3.01515 9.57576 3.01515C13.2001 3.01515 16.1381 5.95492 16.1381 9.58174Z" fill="#FFDDCE"/>
<path d="M24.2335 25.4631C23.4892 25.0906 23.1879 24.1852 23.5598 23.4405L27.5945 15.3663C27.9669 14.6216 28.8721 14.3201 29.616 14.6922C30.3603 15.0648 30.6617 15.97 30.2897 16.7149L26.255 24.7886C25.8822 25.5346 24.9766 25.8349 24.2335 25.463V25.4631Z" fill="#FFB826"/>
<path d="M16.1389 9.58174C16.1389 13.2082 13.2009 16.1479 9.57536 16.1479V3.01475C13.2009 3.01475 16.1389 5.95452 16.1389 9.58174Z" fill="#FFDDCE"/>
<path d="M43.4666 8.66735H27.3281C26.4959 8.66735 25.8214 7.99216 25.8214 7.15977C25.8214 6.32709 26.4959 5.6522 27.3281 5.6522H43.4666C44.2985 5.6522 44.9733 6.32709 44.9733 7.15977C44.9733 7.99216 44.2989 8.66735 43.4666 8.66735Z" fill="#003282"/>
<path d="M43.4666 15.126H36.7061C35.8739 15.126 35.1994 14.4511 35.1994 13.6184C35.1994 12.7857 35.8739 12.1109 36.7061 12.1109H43.4666C44.2989 12.1109 44.9733 12.7857 44.9733 13.6184C44.9733 14.4511 44.2989 15.126 43.4666 15.126ZM43.4666 21.5851H36.7061C35.8739 21.5851 35.1994 20.9097 35.1994 20.0775C35.1994 19.2447 35.8739 18.5699 36.7061 18.5699H43.4666C44.2989 18.5699 44.9733 19.2447 44.9733 20.0775C44.9733 20.9097 44.2989 21.5851 43.4666 21.5851ZM43.4666 5.6522H35.1994V8.66735H43.4666C44.2989 8.66735 44.9733 7.99216 44.9733 7.15977C44.9733 6.32709 44.2989 5.6522 43.4666 5.6522Z" fill="#003282"/>
<path d="M14.4172 44.9995H4.73434C3.90214 44.9995 3.22764 44.3247 3.22764 43.4919V35.0649C1.35331 34.4339 0 32.659 0 30.5735V25.7293C0 23.166 0.997031 20.7593 2.80698 18.953C4.58287 17.1715 7.05084 16.1479 9.57606 16.1479H10.9075C13.5504 16.1479 15.0995 17.1165 17.2705 18.1965C19.6612 19.3861 22.644 20.8701 24.5462 21.8182C26.3013 22.691 27.1417 24.7376 26.5099 26.5902L26.5041 26.6079C26.1239 27.733 25.2716 28.6396 24.1656 29.095C23.056 29.5469 21.8125 29.499 20.7477 28.9662C19.2292 28.2062 17.3525 27.2675 15.9243 26.5533V43.4919C15.9239 44.3247 15.2494 44.9995 14.4172 44.9995Z" fill="#003282"/>
<path d="M24.5462 21.8182C22.644 20.8701 19.6612 19.386 17.2702 18.1965C15.0995 17.1165 13.5504 16.1479 10.9075 16.1479H9.57536V44.9995H14.4172C15.2494 44.9995 15.9239 44.3247 15.9239 43.4919V26.5534C17.3525 27.2676 19.2292 28.2063 20.7477 28.9663C21.8121 29.499 23.056 29.5466 24.1652 29.0951C25.2713 28.6397 26.1239 27.7332 26.5041 26.6076L26.51 26.5899C27.1417 24.7376 26.3013 22.6911 24.5463 21.8183L24.5462 21.8182Z" fill="#003282"/>
</svg>
