<svg width="45" height="45" viewBox="0 0 45 45" fill="none" xmlns="http://www.w3.org/2000/svg">
<path d="M15.4687 36.914H29.5312V39.5507H15.4687V36.914Z" fill="#616173"/>
<path d="M22.5 36.914H29.5312V39.5507H22.5V36.914Z" fill="#454554"/>
<path d="M12.1545 44.8605C11.5032 44.5348 11.2393 43.743 11.5649 43.0917L18.3948 29.432L20.7532 30.6112L13.9233 44.2708C13.5976 44.9222 12.8057 45.1861 12.1545 44.8605Z" fill="#7A7A93"/>
<path d="M31.0767 44.2709L24.2468 30.6113L26.6052 29.4321L33.4351 43.0918C33.7607 43.743 33.4968 44.5349 32.8455 44.8606C32.1942 45.1861 31.4023 44.9222 31.0767 44.2709Z" fill="#616173"/>
<path d="M4.04297 4.57031H40.957V30.9375H4.04297V4.57031Z" fill="#FFF5F5"/>
<path d="M22.5 4.57031H40.957V30.9375H22.5V4.57031Z" fill="#FFF5F5"/>
<path d="M25.0917 13.6102C25.0848 12.8865 24.4959 12.3047 23.7737 12.3047L23.7607 12.3048C23.0327 12.3118 22.493 12.9077 22.5 13.6359V18.2748L18.7815 12.8903C18.6218 12.659 18.3923 12.4848 18.1265 12.3931C17.8608 12.3015 17.5727 12.2971 17.3043 12.3808C17.036 12.4645 16.8014 12.6317 16.6348 12.8581C16.4682 13.0845 16.3783 13.3583 16.3783 13.6394V22.4121C16.3783 23.1402 16.9686 23.7304 17.6967 23.7304C18.4248 23.7304 19.015 23.1402 19.015 22.4121V17.8686L22.5437 22.9784C22.9224 23.5256 23.5576 23.7573 24.1618 23.5686C24.7766 23.3765 25.1739 22.8064 25.1739 22.116L25.1738 22.1032L25.0917 13.6102ZM13.2834 14.9414C14.0115 14.9414 14.6018 14.3511 14.6018 13.623C14.6018 12.8949 14.0115 12.3047 13.2834 12.3047H9.58007C8.85198 12.3047 8.26171 12.8949 8.26171 13.623V22.4121C8.26171 23.1402 8.85198 23.7304 9.58007 23.7304H13.2834C14.0115 23.7304 14.6018 23.1402 14.6018 22.4121C14.6018 21.684 14.0115 21.0937 13.2834 21.0937H10.8984V19.3359H13.0104C13.7384 19.3359 14.3287 18.7456 14.3287 18.0176C14.3287 17.2895 13.7384 16.6992 13.0104 16.6992H10.8984V14.9414H13.2834Z" fill="#003282"/>
<path d="M36.123 16.6992H33.4938C32.7657 16.6992 32.1754 17.2895 32.1754 18.0176C32.1754 18.7456 32.7657 19.3359 33.4938 19.3359H34.6156C34.3097 20.3141 33.6078 21.0937 32.3295 21.0937C30.6333 21.0937 29.2533 19.7138 29.2533 18.0176C29.2533 16.3214 30.6333 14.9414 32.3295 14.9414C32.946 14.9414 33.5404 15.1228 34.0485 15.466C34.6519 15.8737 35.4715 15.7147 35.8789 15.1115C36.2866 14.5082 36.1278 13.6887 35.5245 13.2811C34.5788 12.6424 33.4739 12.3047 32.3295 12.3047C29.1794 12.3047 26.6166 14.8675 26.6166 18.0176C26.6166 21.1676 29.1794 23.7304 32.3295 23.7304C35.3393 23.7304 37.4414 21.3812 37.4414 18.0176C37.4414 17.2895 36.8511 16.6992 36.123 16.6992Z" fill="#003282"/>
<path d="M42.2754 4.92187H39.6386V29.8828H5.36132V4.92187H2.72461V31.2011C2.72461 31.9292 3.31488 32.5195 4.04297 32.5195H40.957C41.6851 32.5195 42.2754 31.9292 42.2754 31.2011V4.92187Z" fill="#7A7A93"/>
<path d="M39.6386 29.8828H22.5V32.5195H40.957C41.6851 32.5195 42.2754 31.9292 42.2754 31.2011V4.92187H39.6386V29.8828Z" fill="#616173"/>
<path d="M43.6816 6.15234H1.31836C0.590273 6.15234 0 5.56207 0 4.83398V1.31836C0 0.590273 0.590273 0 1.31836 0H43.6816C44.4097 0 45 0.590273 45 1.31836V4.83398C45 5.56207 44.4097 6.15234 43.6816 6.15234Z" fill="#003282"/>
<path d="M43.6816 0H22.5V6.15234H43.6816C44.4097 6.15234 45 5.56207 45 4.83398V1.31836C45 0.590273 44.4097 0 43.6816 0ZM25.1738 22.1032L25.0917 13.6102C25.0848 12.8865 24.4959 12.3047 23.7737 12.3047L23.7607 12.3048C23.0327 12.3118 22.493 12.9077 22.5 13.6359V22.9148L22.5437 22.9784C22.9224 23.5256 23.5576 23.7573 24.1618 23.5686C24.7766 23.3765 25.1739 22.8064 25.1739 22.116L25.1738 22.1032Z" fill="#003282"/>
</svg>
