<svg width="30" height="40" viewBox="0 0 30 40" fill="none" xmlns="http://www.w3.org/2000/svg">
<path d="M3.33349 0.00251962C1.49415 0.00251962 0 1.49667 0 3.33097V34.0026L29.3287 34.0001V2.0006C29.3267 1.47106 29.1156 0.963729 28.7414 0.589046C28.3672 0.214363 27.8602 0.00265398 27.3306 0L3.33349 0.00251962Z" fill="#003282"/>
<path d="M0 34.0026C0 35.8369 1.49667 37.3311 3.33097 37.3311H27.3306C27.8597 37.3291 28.3667 37.1184 28.7413 36.7447C29.1159 36.3711 29.3279 35.8646 29.3312 35.3355V30.6666H3.33097C1.49667 30.6666 0 32.1658 0 34.0026Z" fill="white"/>
<path d="M19.3887 11.734L16.7204 17.7333L17.9399 18.275L19.9984 13.6489L22.0545 18.275L23.2765 17.7333L20.6082 11.7365L19.3887 11.734ZM13.9992 23.3269V8.66255C13.9992 7.77311 15.3346 7.77311 15.3346 8.66255V23.3269H13.9992ZM8.72554 11.734L6.05471 17.7333L7.27674 18.275L9.33278 13.6439L11.3913 18.275L12.6058 17.7333L9.94001 11.7365L8.72554 11.734Z" fill="white"/>
<path d="M14.6643 10.003C13.2181 10.003 12.2455 10.386 11.4795 10.7261C10.7135 11.0663 10.1869 11.3359 9.33278 11.3359C8.77845 11.3359 8.38287 11.2024 8.12838 11.0764C8.00839 11.0256 7.89835 10.9539 7.80335 10.8647C7.74131 10.8027 7.66766 10.7535 7.5866 10.7199C7.50553 10.6863 7.41865 10.669 7.33091 10.669C7.24318 10.669 7.1563 10.6863 7.07524 10.7199C6.99418 10.7535 6.92052 10.8027 6.85848 10.8647C6.79644 10.9268 6.74723 11.0004 6.71365 11.0815C6.68008 11.1625 6.66279 11.2494 6.66279 11.3372C6.66279 11.4249 6.68008 11.5118 6.71365 11.5928C6.74723 11.6739 6.79644 11.7475 6.85848 11.8096C6.85848 11.8096 7.12052 12.0616 7.53375 12.2656C8.09423 12.5372 8.71001 12.6752 9.33278 12.6688C10.4817 12.6688 11.288 12.2732 12.0212 11.9456C12.7519 11.6181 13.4423 11.3359 14.6643 11.3359C15.8864 11.3359 16.5793 11.6206 17.31 11.9456C18.0432 12.2732 18.8495 12.6688 19.9984 12.6688C20.777 12.6688 21.3817 12.4723 21.795 12.2656C22.2082 12.059 22.4677 11.8096 22.4677 11.8096C22.5364 11.7495 22.592 11.6759 22.6312 11.5935C22.6703 11.511 22.6922 11.4214 22.6953 11.3302C22.6985 11.239 22.6829 11.1481 22.6496 11.0631C22.6162 10.9781 22.5658 10.9009 22.5014 10.8362C22.4371 10.7715 22.3601 10.7207 22.2753 10.6869C22.1905 10.653 22.0997 10.637 22.0085 10.6397C21.9172 10.6423 21.8275 10.6637 21.7449 10.7024C21.6622 10.7411 21.5883 10.7963 21.5279 10.8647C21.5279 10.8647 21.4523 10.9479 21.2003 11.0764C20.9458 11.2024 20.5528 11.3359 19.9984 11.3359C19.1468 11.3359 18.6202 11.0663 17.8517 10.7261C16.857 10.2489 15.7676 10.0018 14.6643 10.003ZM11.3309 24.0022H18.0004C18.8898 24.0022 18.8898 22.6693 18.0004 22.6693H11.2956C10.3734 22.7197 10.4414 24.0475 11.3283 24.0047L11.3309 24.0022ZM6.66699 17.3352C6.57888 17.3348 6.49158 17.3519 6.41011 17.3855C6.32864 17.4191 6.25463 17.4684 6.19232 17.5307C6.13002 17.593 6.08067 17.6671 6.0471 17.7485C6.01354 17.83 5.99643 17.9173 5.99676 18.0054C5.99676 18.0054 5.98668 18.8066 6.39991 19.6331C6.81313 20.4595 7.77815 21.3364 9.33278 21.3364C10.8874 21.3364 11.8499 20.4595 12.2631 19.6331C12.6738 18.8066 12.6663 18.0054 12.6663 18.0054C12.6666 17.9173 12.6495 17.83 12.6159 17.7485C12.5824 17.6671 12.533 17.593 12.4707 17.5307C12.4084 17.4684 12.3344 17.4191 12.2529 17.3855C12.1715 17.3519 12.0842 17.3348 11.996 17.3352H6.66699ZM17.3301 17.3352C17.1535 17.3365 16.9846 17.4078 16.8604 17.5334C16.7362 17.659 16.6668 17.8287 16.6675 18.0054C16.6675 18.0054 16.6574 18.8066 17.0706 19.6331C17.4838 20.4595 18.4413 21.3364 19.9984 21.3364C21.5531 21.3364 22.5131 20.4595 22.9263 19.6331C23.3395 18.8066 23.3294 18.0054 23.3294 18.0054C23.3297 17.9177 23.3128 17.8308 23.2796 17.7497C23.2463 17.6686 23.1974 17.5948 23.1356 17.5325C23.0739 17.4703 23.0004 17.4208 22.9196 17.387C22.8387 17.3531 22.7519 17.3355 22.6642 17.3352H17.3301Z" fill="white"/>
<path d="M3.33097 33.3324C3.24001 33.3268 3.14886 33.3399 3.06314 33.3709C2.97743 33.4018 2.89895 33.45 2.83256 33.5124C2.76617 33.5749 2.71326 33.6502 2.67709 33.7339C2.64093 33.8176 2.62227 33.9077 2.62227 33.9989C2.62227 34.09 2.64093 34.1802 2.67709 34.2638C2.71326 34.3475 2.76617 34.4228 2.83256 34.4853C2.89895 34.5477 2.97743 34.5959 3.06314 34.6269C3.14886 34.6578 3.24001 34.6709 3.33097 34.6653H25.9977C26.1748 34.6653 26.3446 34.595 26.4699 34.4697C26.5951 34.3445 26.6654 34.1747 26.6654 33.9976C26.6654 33.8205 26.5951 33.6507 26.4699 33.5255C26.3446 33.4002 26.1748 33.3299 25.9977 33.3299L3.33097 33.3324Z" fill="#C8D4D9"/>
<path d="M5.32906 34.0001V39.3317C5.32894 39.464 5.36812 39.5933 5.44164 39.7033C5.51516 39.8133 5.6197 39.899 5.74198 39.9495C5.86427 40 5.9988 40.013 6.1285 39.9869C6.2582 39.9608 6.37722 39.8967 6.47046 39.8029L8.66507 37.6108L10.8597 39.8029C10.9532 39.895 11.0718 39.9575 11.2006 39.9827C11.3294 40.0078 11.4628 39.9944 11.5841 39.9441C11.7054 39.8938 11.8091 39.8089 11.8824 39.7C11.9556 39.5911 11.9952 39.463 11.996 39.3317V34.0001H5.32906Z" fill="#FFB826"/>
</svg>
