<svg width="40" height="40" viewBox="0 0 40 40" fill="none" xmlns="http://www.w3.org/2000/svg">
<path d="M40 40H28.2031L25.8594 37.8027V30.7666L28.2031 28.2031H40V40Z" fill="#003282"/>
<path d="M0 25.8594V40H11.7969L14.1406 37.6562V28.2031L11.7969 25.8594H0Z" fill="#003282"/>
<path d="M11.7969 21.0938H28.2031V40H11.7969V21.0938Z" fill="#FFF5F5"/>
<path d="M20 21.0938H28.2031V40H20V21.0938ZM11.7969 3.51562V2.34375H16.4844L14.1406 0H9.45312V3.51562C9.45312 6.33758 11.4831 9.375 15.9396 9.375V7.03125C12.8818 7.03125 11.7969 5.13734 11.7969 3.51562Z" fill="#FB992D"/>
<path d="M20 21.0938H28.2031V40H20V21.0938Z" fill="#FFF5F5"/>
<path d="M25.8594 0L23.5156 2.34375H28.2031V3.51562C28.2031 5.21516 27.1148 7.03125 24.0604 7.03125V9.375C28.5169 9.375 30.5469 6.33758 30.5469 3.51562V0H25.8594Z" fill="#FB992D"/>
<path d="M18.8281 12.8906H21.1719V17.5781H18.8281V12.8906Z" fill="#FB992D"/>
<path d="M20 12.8906H21.1719V17.5781H20V12.8906Z" fill="#FB992D"/>
<path d="M14.1406 16.4062H25.8594V18.75H14.1406V16.4062Z" fill="#FB992D"/>
<path d="M20 16.4062H25.8594V18.75H20V16.4062Z" fill="#FB992D"/>
<path d="M25.8594 0V8.20312C25.8594 11.4373 23.2342 14.0625 20 14.0625C16.7658 14.0625 14.1406 11.4373 14.1406 8.20312V0H25.8594Z" fill="#FB992D"/>
<path d="M20 14.0625V0H25.8594V8.20312C25.8594 11.4373 23.2342 14.0625 20 14.0625Z" fill="#FB992D"/>
<path d="M18.8281 25.8594H21.1719V35.2344H18.8281V25.8594Z" fill="#FB992D"/>
<path d="M20 25.8594H21.1719V35.2344H20V25.8594Z" fill="#FB992D"/>
</svg>
