<svg width="43" height="40" viewBox="0 0 43 40" fill="none" xmlns="http://www.w3.org/2000/svg">
<path d="M18.8381 7.63485C18.15 7.63485 17.5933 7.07809 17.5933 6.39004V2.48963H10.1244V6.39004C10.1244 7.07809 9.56763 7.63485 8.87958 7.63485C8.19153 7.63485 7.63477 7.07809 7.63477 6.39004V1.24481C7.63477 0.556763 8.19153 0 8.87958 0H18.8381C19.5261 0 20.0829 0.556763 20.0829 1.24481V6.39004C20.0829 7.07809 19.5261 7.63485 18.8381 7.63485Z" fill="#1F305C"/>
<path d="M18.8384 0H13.8591V2.48963H17.5936V6.39004C17.5936 7.07809 18.1503 7.63485 18.8384 7.63485C19.5264 7.63485 20.0832 7.07809 20.0832 6.39004V1.24481C20.0832 0.556763 19.5264 0 18.8384 0Z" fill="#1F305C"/>
<path d="M27.5519 6.38934C27.5519 5.69217 27.0042 5.14453 26.3071 5.14453H1.24481C0.547635 5.14453 0 5.69217 0 6.38934V12.1404L3.73444 18.8375H23.8174L27.5519 12.1404V6.38934Z" fill="#1F305C"/>
<path d="M26.3073 5.14453H13.8591V18.8375H23.8176L27.5521 12.1404V6.38934C27.5521 5.69217 27.0044 5.14453 26.3073 5.14453Z" fill="#1F305C"/>
<path d="M27.5519 12.1406V23.817C27.5519 24.514 27.0042 25.0618 26.3071 25.0618H1.24481C0.547635 25.0618 0 24.514 0 23.817V12.1406C0.896266 13.1862 2.24075 13.8585 3.73444 13.8585H23.8174C25.3111 13.8585 26.6556 13.1862 27.5519 12.1406Z" fill="#003282"/>
<path d="M13.8591 13.8585V25.0618H26.3073C27.0044 25.0618 27.5521 24.514 27.5521 23.817V12.1406C26.6558 13.1862 25.3113 13.8585 23.8176 13.8585H13.8591Z" fill="#003282"/>
<path d="M13.859 16.3484C12.4853 16.3484 11.3694 15.2312 11.3694 13.8588V12.614C11.3694 11.9265 11.9267 11.3691 12.6142 11.3691H15.1038C15.7913 11.3691 16.3486 11.9265 16.3486 12.614V13.8588C16.3486 15.2312 15.2327 16.3484 13.859 16.3484Z" fill="#FFF5F5"/>
<path d="M15.1039 11.3691H13.8591V16.3484C15.2328 16.3484 16.3488 15.2312 16.3488 13.8588V12.614C16.3488 11.9263 15.7914 11.3691 15.1039 11.3691Z" fill="#FFF5F5"/>
<path d="M36.2656 40.0004H21.3278C20.6398 40.0004 20.083 39.4436 20.083 38.7556V28.2986C20.083 27.8854 20.2885 27.5 20.6301 27.2678C20.9753 27.0368 21.4105 26.9918 21.7898 27.1425L28.7967 29.9459L35.8037 27.1426C36.1842 26.9883 36.6194 27.0344 36.9634 27.2679C37.1318 27.382 37.2697 27.5356 37.365 27.7153C37.4604 27.895 37.5103 28.0953 37.5105 28.2987V38.7556C37.5104 39.4436 36.9536 40.0004 36.2656 40.0004Z" fill="#1C4589"/>
<path d="M36.2658 40.0004C36.9538 40.0004 37.5106 39.4437 37.5106 38.7556V28.2987C37.5106 27.8854 37.3051 27.5 36.9635 27.2678C36.6194 27.0345 36.1843 26.9882 35.8038 27.1426L28.7969 29.9459V40.0004H36.2658Z" fill="#003282"/>
<path d="M41.2448 37.51C40.5568 37.51 40 36.9532 40 36.2651V26.3066H42.4896V36.2651C42.4896 36.9532 41.9329 37.51 41.2448 37.51Z" fill="#FFF5F5"/>
<path d="M28.3348 32.4421L15.8867 27.4629C15.4137 27.2732 15.1038 26.8161 15.1038 26.3068C15.1038 25.7974 15.4137 25.3403 15.8867 25.1507L28.3348 20.1714C28.6312 20.0522 28.9623 20.0522 29.2587 20.1714L41.7068 25.1507C42.1797 25.3403 42.4897 25.7974 42.4897 26.3068C42.4897 26.8161 42.1797 27.2732 41.7067 27.4629L29.2586 32.4421C28.962 32.5605 28.6314 32.5605 28.3348 32.4421Z" fill="#395F9D"/>
<path d="M29.2588 32.4421L41.7069 27.4629C42.1799 27.2732 42.4898 26.8161 42.4898 26.3068C42.4898 25.7974 42.1799 25.3403 41.7069 25.1507L29.2588 20.1714C29.1119 20.1124 28.9551 20.082 28.7969 20.082V32.5303C28.9551 32.5306 29.1118 32.5007 29.2588 32.4421Z" fill="#1C4589"/>
</svg>
