<svg width="55" height="55" viewBox="0 0 55 55" fill="none" xmlns="http://www.w3.org/2000/svg">
<path d="M27.5027 51.9203L38.3984 49.1688C44.6176 44.0046 48.5789 36.2152 48.5789 27.4997C48.5789 14.0565 39.1568 2.81407 26.5561 0.015625C11.8053 0.513096 0 12.6277 0 27.4996C0 35.1386 3.11523 42.0495 8.14387 47.0328L27.5027 51.9203Z" fill="#CBE2FF"/>
<path d="M48.0086 27.5C48.0086 36.5143 43.6708 44.5147 36.9694 49.53L46.8555 47.0334C51.8845 42.0501 55.0002 35.1392 55.0002 27.5C55.0002 12.3122 42.6881 0 27.5002 0C26.316 0 25.1492 0.0749805 24.0044 0.220215C37.5416 1.93768 48.0086 13.4965 48.0086 27.5Z" fill="#BED8FB"/>
<path d="M34.3345 10.4142C34.3345 9.00966 33.1959 7.87109 31.7914 7.87109H23.0277C19.7953 7.87109 17.1748 10.4915 17.1748 13.724V20.2222H37.8223V13.8161C37.8223 12.4116 36.6837 11.273 35.2792 11.273H35.1934C35.0806 11.2731 34.9689 11.2508 34.8647 11.2077C34.7605 11.1645 34.6658 11.1013 34.5861 11.0215C34.5063 10.9418 34.443 10.8471 34.3999 10.7429C34.3567 10.6387 34.3345 10.527 34.3345 10.4142Z" fill="#365E7D"/>
<path d="M35.2787 11.2731H35.193C34.9652 11.2731 34.7467 11.1826 34.5857 11.0216C34.4246 10.8605 34.3341 10.642 34.3341 10.4142C34.3341 9.00966 33.1955 7.87109 31.791 7.87109H30.8301V20.2222H37.8217V13.8161C37.8218 12.4118 36.6832 11.2731 35.2787 11.2731Z" fill="#2B4D66"/>
<path d="M45.6591 39.9992C44.9716 39.3199 44.1325 38.8138 43.211 38.5227L35.7031 36.1456L27.5017 35.8574L19.2968 36.1456L11.789 38.5227C9.24911 39.3268 7.52295 41.6839 7.52295 44.348V46.3992C12.3343 51.4832 19.0655 54.7317 26.5563 54.9843C34.9489 53.1202 41.9315 47.5103 45.6591 39.9992Z" fill="#4A80AA"/>
<path d="M47.4772 46.3982V44.3471C47.4772 42.4634 46.6135 40.734 45.21 39.5977C41.2235 47.7215 33.3483 53.5913 24.0107 54.7782C25.1518 54.9231 26.3008 54.9969 27.451 54.9992C28.5575 54.9977 29.663 54.9338 30.7622 54.8077C37.3183 54.033 43.1678 50.9519 47.4772 46.3982Z" fill="#407093"/>
<path d="M28.1224 54.5878C29.7863 51.2844 34.1189 41.9048 32.8834 36.0458L27.5015 33.9512L22.1145 36.0459C20.8409 42.0857 25.4843 51.8667 27.0216 54.8759C27.3905 54.7874 27.7575 54.6913 28.1224 54.5878Z" fill="#E4F6FF"/>
<path d="M30.9584 51.9696L28.7763 43.3848H26.2232L24.0464 51.9462L26.7382 54.9429C27.4182 54.7871 28.0923 54.6059 28.7588 54.3997L30.9584 51.9696Z" fill="#E28086"/>
<path d="M26.7806 54.9907C27.0035 54.9965 27.2268 55.0005 27.451 55.0009C27.7104 55.0005 27.969 54.996 28.2268 54.9888L29.6133 53.457C28.5135 53.8429 27.3901 54.1579 26.25 54.4001L26.7806 54.9907Z" fill="#DD636E"/>
<path d="M32.095 35.2532V30.4121H22.9019V35.2532C22.9019 37.7918 27.4984 40.5648 27.4984 40.5648C27.4984 40.5648 32.095 37.7918 32.095 35.2532Z" fill="#FFDDCE"/>
<path d="M37.8223 19.3695H36.0649C35.0876 19.3695 34.2954 18.5772 34.2954 17.5999V16.6315C34.2954 15.3584 33.0498 14.4583 31.8411 14.8578C29.0221 15.7896 25.9781 15.7898 23.159 14.8585L23.1556 14.8574C21.9469 14.4581 20.7016 15.3582 20.7016 16.6312V17.6C20.7016 18.5773 19.9093 19.3696 18.932 19.3696H17.1748V22.2633C17.1748 23.0027 17.7742 23.6022 18.5137 23.6022C18.747 23.6022 18.9368 23.7849 18.9516 24.0178C19.2339 28.4939 22.9514 32.0373 27.4986 32.0373C32.0458 32.0373 35.7633 28.4939 36.0456 24.0178C36.0603 23.785 36.2501 23.6022 36.4835 23.6022C37.2228 23.6022 37.8224 23.0028 37.8224 22.2633V19.3695H37.8223Z" fill="#FFDDCE"/>
<path d="M36.0647 19.3711C35.0873 19.3711 34.2951 18.5788 34.2951 17.6015V16.6331C34.2951 15.36 33.0496 14.46 31.8408 14.8595C31.5078 14.9691 31.1707 15.0661 30.8303 15.1502V24.7078C30.7833 27.8174 29.0793 30.5238 26.563 31.9865C26.8736 32.0208 27.1857 32.0382 27.4982 32.0387C32.0454 32.0387 35.7629 28.4953 36.0452 24.0192C36.0599 23.7864 36.2498 23.6036 36.4831 23.6036C37.2225 23.6036 37.822 23.0042 37.822 22.2647V19.371L36.0647 19.3711Z" fill="#FFCBBE"/>
<path d="M22.9017 33.9512L19.2969 36.8802L23.0773 41.5545C23.2993 41.7706 23.5935 41.8968 23.9032 41.9086C24.2128 41.9204 24.5158 41.8169 24.7536 41.6183L27.5965 39.2435L22.9017 33.9512ZM32.0966 33.9512L27.5965 39.2435L30.2685 41.5282C30.5048 41.7302 30.8078 41.8371 31.1185 41.8281C31.4293 41.8191 31.7256 41.6949 31.9498 41.4795L35.7031 36.8802L32.0966 33.9512Z" fill="#F4FBFF"/>
<path d="M22.9019 33.9512L17.6107 36.5507C17.5151 36.5977 17.4298 36.6633 17.3598 36.7436C17.2898 36.824 17.2365 36.9175 17.2031 37.0187C17.1697 37.1199 17.1568 37.2267 17.1651 37.333C17.1735 37.4392 17.203 37.5427 17.2519 37.6375L18.2885 39.6473C18.4194 39.9011 18.4662 40.1899 18.4222 40.4721C18.3781 40.7542 18.2454 41.015 18.0433 41.2168C17.8283 41.4313 17.6133 41.6459 17.3984 41.8605C17.0398 42.2185 16.911 42.7473 17.0689 43.2288C18.3205 47.0441 24.3441 52.8783 26.6237 54.9891C26.7769 54.9932 26.9306 54.996 27.0845 54.9977C25.4314 51.7822 19.5733 39.566 22.9019 33.9512ZM36.9554 41.2167C36.7533 41.0149 36.6206 40.7541 36.5765 40.472C36.5325 40.1898 36.5793 39.901 36.7102 39.6472L37.7469 37.6374C37.7957 37.5426 37.8252 37.4391 37.8336 37.3329C37.842 37.2266 37.829 37.1198 37.7956 37.0186C37.7622 36.9174 37.7089 36.8239 37.6389 36.7435C37.5689 36.6632 37.4836 36.5976 37.388 36.5506L32.0968 33.9512C35.4245 39.5645 29.5706 51.7756 27.9156 54.9951C28.0712 54.9924 28.2264 54.9886 28.3813 54.9834C30.6656 52.8677 36.6794 47.0406 37.9298 43.2289C38.0877 42.7474 37.9589 42.2186 37.6003 41.8606L36.9554 41.2167Z" fill="#365E7D"/>
<path d="M27.5963 39.2441L24.7969 41.5821L26.2232 43.3847H28.7763L30.2028 41.4757L27.5963 39.2441Z" fill="#DD636E"/>
</svg>
