<svg width="55" height="55" viewBox="0 0 55 55" fill="none" xmlns="http://www.w3.org/2000/svg">
<path d="M27.5561 53.3171L37.9067 50.3315C44.5253 45.136 48.778 37.0638 48.778 27.9969C48.778 14.0622 38.7352 2.47466 25.4931 0.0732422C11.2423 1.10138 0 12.9873 0 27.5C0 35.1532 3.06894 42.0197 8.11423 47.005L9.24893 48.0683L27.5561 53.3171Z" fill="#CBE2FF"/>
<path d="M27.5002 0C26.316 0 25.1492 0.0749806 24.0044 0.220215C37.5416 1.93768 48.0086 13.4965 48.0086 27.5C48.0086 37.7707 42.3781 46.7258 34.0356 51.4482L45.7508 48.0689C51.4241 43.0313 55.0003 35.6839 55.0003 27.5C55.0003 12.3122 42.6881 0 27.5002 0Z" fill="#BED8FB"/>
<path d="M35.974 32.9772C36.8735 32.4495 37.6194 31.6958 38.1376 30.7907C38.6557 29.8857 38.9282 28.8609 38.9278 27.818L38.9248 18.3662C38.9248 12.0564 33.8098 6.94141 27.5 6.94141C21.1903 6.94141 16.0753 12.0564 16.0753 18.3662L16.0723 27.818C16.0719 28.8609 16.3443 29.8857 16.8625 30.7907C17.3806 31.6958 18.1265 32.4495 19.026 32.9772L20.3148 33.733C22.4938 35.0109 24.9741 35.6846 27.5001 35.6846C30.0262 35.6846 32.5065 35.0109 34.6855 33.733L35.974 32.9772Z" fill="#EFC984"/>
<path d="M38.9247 18.3664C38.9247 13.63 36.0424 9.56682 31.936 7.83496V34.9722C32.8938 34.658 33.8154 34.2427 34.6852 33.7332L35.9739 32.9774C36.8734 32.4498 37.6193 31.696 38.1375 30.791C38.6556 29.8859 38.9281 28.8611 38.9277 27.8183L38.9247 18.3664Z" fill="#EABC6B"/>
<path d="M27.4998 44.9135L34.7487 39.8124L31.8226 36.2683V28.1895H23.177V36.2683L20.251 39.8124L27.4998 44.9135Z" fill="#FFDDCE"/>
<path d="M41.6338 38.1569L33.6285 36.6162C32.3646 38.6746 30.0926 40.0476 27.5 40.0476C24.9073 40.0476 22.6354 38.6746 21.3714 36.6162L13.3661 38.1569C10.3175 38.7436 8.11426 41.4113 8.11426 44.5158V47.0052C12.4015 51.2663 18.0859 54.1222 24.4196 54.8281C24.8947 54.8811 25.3754 54.852 25.8421 54.7491L27.8783 54.3C28.3615 54.1935 28.8631 54.203 29.3418 54.328C30.0062 54.5012 30.7091 54.4514 31.3424 54.1864C37.5774 51.5776 42.6835 46.8096 45.7236 40.8146C44.785 39.4683 43.3422 38.4857 41.6338 38.1569Z" fill="#4A80AA"/>
<path d="M46.8857 44.5154C46.8857 42.7625 46.183 41.1491 45.0227 39.9707C40.9797 47.9021 33.2025 53.6117 24.0068 54.7793C25.1351 54.9223 26.2711 54.996 27.4085 54.9997H27.4113C27.447 54.9998 27.5379 54.9999 27.5885 54.9997H27.5913C35.1187 54.9752 41.9339 51.9263 46.8856 47.0048V44.5154H46.8857Z" fill="#407093"/>
<path d="M28.0563 54.2609C29.0807 51.2953 31.2072 44.5875 31.7131 38.6826C30.5293 39.5408 29.074 40.0475 27.5001 40.0475C25.9261 40.0475 24.4709 39.5408 23.2871 38.6826C23.8063 44.7435 26.0332 51.6511 27.0229 54.4887L28.0563 54.2609Z" fill="#E28086"/>
<path d="M26.938 54.244C27.0247 54.4953 27.1127 54.7462 27.202 54.9967C27.7659 55.0026 27.5698 54.9991 27.798 54.9967C27.926 54.6377 28.0514 54.2778 28.1742 53.917C27.7648 54.0357 27.3526 54.1447 26.938 54.244Z" fill="#DD636E"/>
<path d="M35.162 17.602C32.1093 14.3141 31.5425 11.3271 31.5425 11.3271C30.0261 15.3061 26.175 18.1329 21.6635 18.1329C21.5255 18.1329 21.3881 18.1302 21.2514 18.125C20.2132 18.0852 19.3511 18.9173 19.3511 19.9561V23.2937C19.4182 27.7381 23.0397 31.3209 27.5002 31.3209C31.9606 31.3209 35.5821 27.7382 35.6494 23.2937V18.8459C35.6494 18.3849 35.4757 17.9398 35.162 17.602Z" fill="#FFDDCE"/>
<path d="M35.1618 17.6014C33.3279 15.6262 32.3918 13.7606 31.9362 12.585V22.9251C31.8744 27.0076 28.813 30.3606 24.8579 30.88C25.7082 31.1718 26.6011 31.3205 27.5001 31.3202C31.9604 31.3202 35.582 27.7375 35.6492 23.2931V18.8453C35.6492 18.3842 35.4755 17.9392 35.1618 17.6014Z" fill="#FFCBBE"/>
<path d="M18.4636 36.8936C18.1156 37.1068 18.0465 37.5835 18.3195 37.8868L20.0145 39.7696C20.0721 39.8336 20.1165 39.9083 20.1451 39.9895C20.1737 40.0707 20.186 40.1567 20.1812 40.2427C20.1764 40.3286 20.1546 40.4127 20.1172 40.4903C20.0797 40.5678 20.0273 40.6371 19.963 40.6943L18.8454 41.6873C18.6106 41.8958 18.4946 42.2107 18.55 42.5197C19.1744 46.0083 24.7558 52.6714 26.775 54.9903C26.9174 54.9938 27.0599 54.9962 27.2028 54.9977C26.226 52.2616 23.1772 43.1688 23.1772 36.2676V34.0049L18.4636 36.8936ZM36.5365 36.8936L31.823 34.005V36.2677C31.823 43.169 28.7742 52.2617 27.7974 54.9978C27.9403 54.9964 28.0828 54.994 28.2251 54.9904C30.2443 52.6715 35.8258 46.0084 36.4502 42.5198C36.5055 42.2107 36.3894 41.8959 36.1548 41.6874L35.0372 40.6944C34.9728 40.6372 34.9204 40.5679 34.883 40.4904C34.8455 40.4129 34.8238 40.3287 34.819 40.2428C34.8142 40.1568 34.8265 40.0708 34.8551 39.9896C34.8837 39.9084 34.928 39.8337 34.9856 39.7697L36.6806 37.8869C36.9536 37.5835 36.8844 37.1068 36.5365 36.8936Z" fill="#365E7D"/>
<path d="M36.8845 18.8594H35.6489V22.9414H36.8845C38.012 22.9414 38.9258 22.0273 38.9255 20.8997C38.9252 19.7729 38.0115 18.8594 36.8845 18.8594Z" fill="#FFDDCE"/>
</svg>
