<svg width="18" height="20" viewBox="0 0 18 20" fill="none" xmlns="http://www.w3.org/2000/svg">
<path d="M16.5663 18.8235H14.4498V16.902C14.4498 16.5771 14.1917 16.3137 13.8733 16.3137H12.3512C11.4943 13.9652 11.2302 11.4228 11.5858 8.94282C14.2369 4.30596 13.3455 5.966 14.9295 2.73365C15.072 2.4431 14.9565 2.08973 14.6717 1.94447C14.3869 1.7991 14.0406 1.91702 13.8982 2.20753L12.8275 4.39216H12.1647C12.572 2.09498 10.8337 0 8.57143 0C6.31022 0 4.57065 2.09376 4.97815 4.39216H4.31535L3.24473 2.20753C3.10232 1.91698 2.756 1.79906 2.47118 1.94447C2.18637 2.08973 2.07094 2.4431 2.21335 2.73365C3.83316 6.0389 3.03021 4.52329 5.55705 8.94282C5.91267 11.4228 5.64857 13.9652 4.79166 16.3137H3.26963C2.95122 16.3137 2.69308 16.5771 2.69308 16.902V18.8235H0.576553C0.258142 18.8235 0 19.0869 0 19.4118C0 19.7366 0.258142 20 0.576553 20H16.5663C16.8847 20 17.1429 19.7366 17.1429 19.4118C17.1429 19.0869 16.8847 18.8235 16.5663 18.8235ZM9.4835 5.56863L8.57143 7.42976L7.65936 5.56863H9.4835ZM10.3738 9.33333C10.3259 9.77632 10.296 10.2211 10.2843 10.6667H6.85853C6.84682 10.2211 6.81696 9.77632 6.76905 9.33333H10.3738ZM6.84715 11.8431H10.2957C10.3159 12.289 10.3541 12.7338 10.4104 13.1765H6.73245C6.7887 12.7338 6.82697 12.289 6.84715 11.8431ZM10.6033 14.3529C10.737 15.0171 10.9118 15.672 11.1265 16.3137H9.14798V14.3529H10.6033ZM10.7002 8.15686H9.50429L10.7727 5.56863H12.18L10.7002 8.15686ZM8.57143 1.17647C10.2077 1.17647 11.4147 2.76824 10.9832 4.39216H9.14798V3.09804C9.14798 2.77318 8.88984 2.5098 8.57143 2.5098C8.25302 2.5098 7.99487 2.77318 7.99487 3.09804V4.39216H6.15967C5.7281 2.76816 6.93517 1.17647 8.57143 1.17647ZM6.37011 5.56863L7.63853 8.15686H6.4426L4.96278 5.56863H6.37011ZM6.53958 14.3529H7.99487V16.3137H6.0163C6.23103 15.672 6.4058 15.0171 6.53958 14.3529ZM3.84615 18.8235V17.4902H13.2967V18.8235H3.84615Z" fill="black"/>
</svg>
