<svg width="20" height="20" viewBox="0 0 20 20" fill="none" xmlns="http://www.w3.org/2000/svg">
<path d="M14.1025 4.72655V3.55466H15.2743V0H4.72753V3.5547H5.89942V4.72659H0L0.00488304 20H20.0009V4.72659L14.1025 4.72655ZM5.89942 1.17185H14.1025V2.38281H5.89942V1.17185ZM12.9306 3.55466V4.72655H7.07127V3.55466H12.9306ZM12.9306 14.1015V12.9296H16.1421L18.8291 10.2426V16.4843H1.16474L1.17287 10.2452L3.90081 12.9296H7.07131V14.1015H12.9306ZM8.24316 12.9296V11.7577H11.7588V12.9296H8.24316ZM18.829 18.8281H1.17123L1.16798 17.6562H18.8291V18.8281H18.829ZM18.829 8.5854L15.6567 11.7578H12.9306V10.5859H7.07127V11.7578H4.38239L1.17287 8.59247L1.16377 5.8984H18.8291V8.5854H18.829Z" fill="black"/>
</svg>
