<svg width="24" height="22" viewBox="0 0 24 22" fill="none" xmlns="http://www.w3.org/2000/svg">
<path d="M6.33333 12.3333V15.6667H8.33333M3.75556 11.0468V3.66667H22.4222V18.3333H11.042M3.75556 7.66667H22.4222M6.42222 5.66667V2.33333C6.42222 1.59698 7.0192 1 7.75556 1C8.49191 1 9.08889 1.59698 9.08889 2.33333V3.66667M11.7556 5.66667V2.33333C11.7556 1.59698 12.3525 1 13.0889 1C13.8252 1 14.4222 1.59698 14.4222 2.33333V3.66667M17.0889 5.66667V2.33333C17.0889 1.59698 17.6859 1 18.4222 1C19.1586 1 19.7556 1.59698 19.7556 2.33333V3.66667M13.7556 10.3333H16.4222M17.7556 10.3333H20.4222M17.7556 13H20.4222M17.7556 15.6667H20.4222M13.7556 15.6667H16.4222M13.7556 13H16.4222M11.6667 15.6667C11.6667 18.6122 9.27885 21 6.33333 21C3.38782 21 1 18.6122 1 15.6667C1 12.7212 3.38782 10.3333 6.33333 10.3333C9.27885 10.3333 11.6667 12.7212 11.6667 15.6667Z" stroke="black" stroke-width="1.6" stroke-miterlimit="10"/>
</svg>
