<svg width="20" height="20" viewBox="0 0 20 20" fill="none" xmlns="http://www.w3.org/2000/svg">
<path d="M10 4.11766C6.75647 4.11766 4.11765 6.75648 4.11765 10C4.11765 13.2435 6.75647 15.8824 10 15.8824C13.2435 15.8824 15.8824 13.2435 15.8824 10C15.8824 6.75648 13.2435 4.11766 10 4.11766ZM14.6692 10.5882C14.5618 11.4462 14.2223 12.2331 13.7159 12.8841L12.9116 12.0797L12.0797 12.9116L12.884 13.7159C12.2331 14.2223 11.4462 14.5617 10.5882 14.6692V13.5294H9.41176V14.6692C8.55376 14.5618 7.76694 14.2223 7.11596 13.7159L7.92027 12.9116L7.08839 12.0797L6.28408 12.8841C5.77772 12.2331 5.43827 11.4462 5.33078 10.5882H6.47059V9.41178H5.33082C5.43827 8.55378 5.77772 7.76695 6.28412 7.11597L7.08843 7.92029L7.92031 7.08841L7.116 6.28409C7.76698 5.77774 8.5538 5.43829 9.4118 5.3308V6.4706H10.5883V5.33084C11.4463 5.43829 12.2331 5.77774 12.8841 6.28413L12.0798 7.08845L12.9116 7.92033L13.716 7.11601C14.2223 7.76699 14.5618 8.55382 14.6693 9.41182H13.5294V10.5883L14.6692 10.5882Z" fill="black"/>
<path d="M10.5882 7.64709H9.41176V10.5883H11.7647V9.4118H10.5882V7.64709Z" fill="black"/>
<path d="M18.6146 4.92016L17.6017 5.51867C18.4011 6.87137 18.8235 8.42098 18.8235 10C18.8235 14.8653 14.8653 18.8235 10 18.8235C8.17063 18.8235 6.42639 18.2703 4.95788 17.2434H5.84055V16.0669H2.75663V19.1508H3.9331V17.9507C5.66745 19.2797 7.7782 20 10 20C15.5267 20 20 15.5275 20 10C20 8.21059 19.5209 6.454 18.6146 4.92016ZM10 1.17647C11.8294 1.17647 13.5736 1.72973 15.0421 2.75663H14.1595V3.9331H17.2434V0.849176H16.0669V2.04933C14.3326 0.720275 12.2218 0 10 0C4.47325 0 0 4.47255 0 10C0 11.7894 0.479059 13.546 1.38541 15.0798L2.39827 14.4813C1.59894 13.1286 1.17647 11.579 1.17647 10C1.17647 5.13471 5.13471 1.17647 10 1.17647Z" fill="black"/>
</svg>
