<svg width="20" height="20" viewBox="0 0 20 20" fill="none" xmlns="http://www.w3.org/2000/svg">
<path d="M18.627 9.40914V7.05562H20V3.53023H18.8232L18.8233 2.52094L10 0L1.17676 2.52094V3.53023H0V7.05562H1.37297V9.40914H1.9227L1.60988 14.1211H0.982344V16.4746H0V20H20V16.4746H19.0177V14.1211H18.3902L18.0773 9.40914H18.627ZM17.4552 8.23727H15.4062V7.05562H17.4552V8.23727ZM13.8437 14.1211V16.4746H12.587V14.1211H11.9595L11.6466 9.40914H12.1963V7.05562H14.2343V9.40914H14.784L14.4712 14.1211H13.8437ZM5.52879 14.1211L5.21598 9.40914H5.7657V7.05562H7.80367V9.40914H8.3534L8.04055 14.1211H7.41305V16.4746H6.15633V14.1211H5.52879ZM10.785 14.1211H9.215L9.52781 9.40914H10.4722L10.785 14.1211ZM11.0245 8.23727H8.97555V7.05562H11.0245V8.23727ZM8.58488 15.293H11.4151V16.4746H8.58488V15.293ZM2.34863 3.40488L10 1.21875L17.6514 3.40484V3.53023H2.34863V3.40488ZM1.17188 4.70211H18.8281V5.88375H1.17188V4.70211ZM4.59383 7.05562V8.23727H2.54484V7.05562H4.59383ZM3.09715 9.40914H4.04152L4.35434 14.1211H2.78434L3.09715 9.40914ZM2.15422 15.293H4.98441V16.4746H2.15422V15.293ZM18.8281 18.8281H1.17188V17.6465H18.8281V18.8281ZM15.0155 16.4746V15.293H17.8457V16.4746H15.0155ZM17.2157 14.1211H15.6457L15.9585 9.40914H16.9029L17.2157 14.1211Z" fill="black"/>
</svg>
