<svg width="20" height="20" viewBox="0 0 20 20" fill="none" xmlns="http://www.w3.org/2000/svg">
<path d="M17.3936 12.3695H12.8747C14.672 9.99992 15.8181 7.56526 15.7761 5.94153C15.7761 2.22241 12.8393 0 10 0C7.16074 0 4.22391 2.22241 4.22391 5.94153C4.18057 7.56374 5.32859 10.0016 7.12531 12.3695H2.60639L0 20H20L17.3936 12.3695ZM16.5594 13.5743L17.3332 15.8398L10.9318 14.7311C11.2728 14.3533 11.6053 13.9676 11.9291 13.5743H16.5594ZM5.39969 5.94157C5.39969 2.97659 7.7387 1.20486 9.99998 1.20486C12.8795 1.20486 14.6003 3.61321 14.6003 5.94157C14.726 8.06337 11.7551 12.1446 9.99998 13.9876C8.24245 12.1416 5.27403 8.06309 5.39969 5.94157ZM9.15351 14.8251L5.69156 15.9566L4.12754 13.5743H8.0709C8.50156 14.0972 8.8817 14.5269 9.15351 14.8251ZM3.19073 14.3059L6.13814 18.7952H1.65727L3.19073 14.3059ZM7.55523 18.7952L6.37514 16.9978L10.0427 15.7991L17.7768 17.1385L18.3427 18.7952H7.55523Z" fill="black"/>
<path d="M9.99998 8.45418C11.3644 8.45418 12.4745 7.31675 12.4745 5.91864C12.3386 2.55486 7.66089 2.55583 7.52544 5.91864C7.52544 7.31671 8.63553 8.45418 9.99998 8.45418ZM9.99998 4.58787C10.7161 4.58787 11.2987 5.18486 11.2987 5.91864C11.2274 7.68402 8.77235 7.68354 8.70125 5.91864C8.70125 5.18482 9.28387 4.58787 9.99998 4.58787Z" fill="black"/>
</svg>
