<svg width="19" height="19" viewBox="0 0 19 19" fill="none" xmlns="http://www.w3.org/2000/svg">
<path d="M9.43942 10.0938C10.7427 10.0938 11.7992 9.03043 11.7992 7.71875C11.7992 6.40707 10.7427 5.34375 9.43942 5.34375C8.13612 5.34375 7.07959 6.40707 7.07959 7.71875C7.07959 9.03043 8.13612 10.0938 9.43942 10.0938Z" stroke="black" stroke-width="2" stroke-linecap="round" stroke-linejoin="round"/>
<path d="M15.3387 7.71875C15.3387 13.0625 9.43912 17.2188 9.43912 17.2188C9.43912 17.2188 3.53955 13.0625 3.53955 7.71875C3.53955 6.14403 4.16111 4.6338 5.2675 3.5203C6.37388 2.40681 7.87446 1.78125 9.43912 1.78125C11.0038 1.78125 12.5044 2.40681 13.6108 3.5203C14.7171 4.6338 15.3387 6.14403 15.3387 7.71875V7.71875Z" stroke="black" stroke-width="2" stroke-linecap="round" stroke-linejoin="round"/>
</svg>
