<svg width="110" height="111" viewBox="0 0 110 111" fill="none" xmlns="http://www.w3.org/2000/svg">
<path d="M55.0054 103.841L76.7968 98.3375C89.2351 88.0091 97.1577 72.4304 97.1577 54.9995C97.1577 28.113 78.3136 5.62814 53.1122 0.03125C23.6107 1.02619 0 25.2554 0 54.9992C0 70.2772 6.23047 84.099 16.2877 94.0656L55.0054 103.841Z" fill="#CBE2FF"/>
<path d="M96.0166 55C96.0166 73.0286 87.341 89.0293 73.9382 99.0599L93.7105 94.0668C103.768 84.1002 110 70.2784 110 55C110 24.6243 85.3756 0 55 0C52.6315 0 50.2979 0.149961 48.0083 0.44043C75.0827 3.87535 96.0166 26.993 96.0166 55Z" fill="#BED8FB"/>
<path d="M68.6685 20.8284C68.6685 18.0193 66.3913 15.7422 63.5823 15.7422H46.0549C39.59 15.7422 34.3491 20.9831 34.3491 27.4479V40.4445H75.644V27.6323C75.644 24.8232 73.3669 22.5461 70.5578 22.5461H70.3864C70.1608 22.5461 69.9374 22.5017 69.729 22.4154C69.5205 22.3291 69.3312 22.2026 69.1716 22.0431C69.0121 21.8836 68.8856 21.6942 68.7992 21.4858C68.7129 21.2774 68.6685 21.054 68.6685 20.8284Z" fill="#365E7D"/>
<path d="M70.558 22.5463H70.3865C69.9309 22.5463 69.494 22.3653 69.1718 22.0431C68.8496 21.721 68.6686 21.284 68.6686 20.8284C68.6686 18.0193 66.3915 15.7422 63.5824 15.7422H61.6606V40.4445H75.644V27.6323C75.6442 24.8236 73.3668 22.5463 70.558 22.5463Z" fill="#2B4D66"/>
<path d="M91.3182 79.9945C89.9432 78.636 88.265 77.6238 86.4219 77.0414L71.4063 72.2874L55.0034 71.7109L38.5936 72.2874L23.578 77.0414C18.4982 78.6497 15.0459 83.3638 15.0459 88.6922V92.7944C24.6685 102.963 38.1311 109.459 53.1126 109.965C69.8979 106.237 83.8629 95.0168 91.3182 79.9945Z" fill="#4A80AA"/>
<path d="M94.9541 92.7964V88.6942C94.9541 84.9267 93.2267 81.4679 90.4198 79.1953C82.4467 95.4431 66.6963 107.183 48.0212 109.556C50.3034 109.846 52.6014 109.994 54.9018 109.998C57.1147 109.995 59.3257 109.868 61.5242 109.615C74.6363 108.066 86.3354 101.904 94.9541 92.7964Z" fill="#407093"/>
<path d="M56.2453 109.179C59.573 102.573 68.2383 83.8135 65.7674 72.0955L55.0035 67.9062L44.2295 72.0957C41.6823 84.1753 50.9692 103.737 54.0438 109.756C54.7815 109.579 55.5155 109.386 56.2453 109.179Z" fill="#E4F6FF"/>
<path d="M61.9174 103.935L57.553 86.7656H52.4469L48.0933 103.888L53.4768 109.882C54.837 109.57 56.185 109.208 57.518 108.795L61.9174 103.935Z" fill="#E28086"/>
<path d="M53.5609 109.981C54.0067 109.993 54.4533 110.001 54.9017 110.002C55.4206 110.001 55.9377 109.992 56.4533 109.978L59.2263 106.914C57.0267 107.686 54.7799 108.316 52.4998 108.8L53.5609 109.981Z" fill="#DD636E"/>
<path d="M64.1898 70.5103V60.8281H45.8035V70.5103C45.8035 75.5875 54.9966 81.1334 54.9966 81.1334C54.9966 81.1334 64.1898 75.5875 64.1898 70.5103Z" fill="#FFDDCE"/>
<path d="M75.644 38.7389H72.1294C70.1747 38.7389 68.5903 37.1544 68.5903 35.1998V33.263C68.5903 30.7169 66.0992 28.9167 63.6817 29.7157C58.0437 31.5792 51.9557 31.5797 46.3174 29.717L46.3108 29.7148C43.8933 28.9163 41.4027 30.7164 41.4027 33.2623V35.2C41.4027 37.1546 39.8182 38.7391 37.8635 38.7391H34.3491V44.5266C34.3491 46.0054 35.5479 47.2044 37.0269 47.2044C37.4936 47.2044 37.8732 47.5698 37.9026 48.0356C38.4672 56.9877 45.9023 64.0746 54.9967 64.0746C64.091 64.0746 71.5261 56.9877 72.0907 48.0356C72.1202 47.5701 72.4998 47.2044 72.9664 47.2044C74.4452 47.2044 75.6442 46.0056 75.6442 44.5266V38.7389H75.644Z" fill="#FFDDCE"/>
<path d="M72.1296 38.7382C70.1749 38.7382 68.5905 37.1538 68.5905 35.1991V33.2623C68.5905 30.7162 66.0993 28.916 63.6819 29.715C63.0159 29.9344 62.3417 30.1284 61.6609 30.2966V49.4117C61.5668 55.631 58.1589 61.0437 53.1262 63.969C53.7474 64.0376 54.3717 64.0725 54.9966 64.0735C64.091 64.0735 71.5261 56.9866 72.0907 48.0345C72.1201 47.5689 72.4998 47.2033 72.9664 47.2033C74.4452 47.2033 75.6442 46.0045 75.6442 44.5255V38.738L72.1296 38.7382Z" fill="#FFCBBE"/>
<path d="M45.8035 67.9062L38.5938 73.7644L46.1545 83.1129C46.5985 83.5452 47.1871 83.7975 47.8063 83.8211C48.4256 83.8447 49.0316 83.6378 49.5072 83.2405L55.193 78.491L45.8035 67.9062ZM64.1932 67.9062L55.193 78.491L60.537 83.0603C61.0096 83.4643 61.6156 83.6781 62.2371 83.6601C62.8585 83.6421 63.4511 83.3936 63.8996 82.9629L71.4062 73.7644L64.1932 67.9062Z" fill="#F4FBFF"/>
<path d="M45.8033 67.9062L35.221 73.1053C35.0297 73.1992 34.8591 73.3304 34.7191 73.4912C34.5791 73.6519 34.4725 73.8389 34.4057 74.0413C34.3389 74.2437 34.3131 74.4574 34.3298 74.6699C34.3465 74.8824 34.4055 75.0894 34.5032 75.2788L36.5765 79.2986C36.8383 79.8061 36.9319 80.3838 36.8438 80.948C36.7557 81.5123 36.4903 82.0339 36.0862 82.4374C35.6562 82.8666 35.2262 83.2958 34.7963 83.725C34.0791 84.4408 33.8215 85.4985 34.1373 86.4614C36.6405 94.0921 48.6876 105.76 53.2468 109.982C53.5534 109.99 53.8606 109.996 54.1685 109.999C50.8623 103.568 39.1462 79.1359 45.8033 67.9062ZM73.9103 82.4372C73.5061 82.0337 73.2407 81.5121 73.1526 80.9478C73.0645 80.3836 73.1581 79.8059 73.42 79.2983L75.4932 75.2786C75.591 75.0892 75.6499 74.8822 75.6667 74.6697C75.6834 74.4572 75.6576 74.2435 75.5908 74.0411C75.5239 73.8387 75.4174 73.6517 75.2774 73.4909C75.1374 73.3302 74.9668 73.199 74.7755 73.105L64.1931 67.9062C70.8485 79.1329 59.1406 103.555 55.8308 109.994C56.1418 109.989 56.4523 109.981 56.7621 109.971C61.3307 105.739 73.3583 94.0852 75.8591 86.4617C76.1749 85.4987 75.9174 84.4411 75.2002 83.7252L73.9103 82.4372Z" fill="#365E7D"/>
<path d="M55.1928 78.4844L49.594 83.1602L52.4467 86.7655H57.5529L60.4058 82.9475L55.1928 78.4844Z" fill="#DD636E"/>
</svg>
