<svg width="110" height="111" viewBox="0 0 110 111" fill="none" xmlns="http://www.w3.org/2000/svg">
<path d="M55.1121 106.636L75.8131 100.665C89.0502 90.2738 97.5557 74.1294 97.5557 55.9955C97.5557 28.1262 77.4702 4.95126 50.986 0.148438C22.4844 2.2047 0 25.9765 0 55.0018C0 70.3082 6.13786 84.0412 16.2284 94.0116L18.4978 96.1383L55.1121 106.636Z" fill="#CBE2FF"/>
<path d="M55.0002 0C52.6318 0 50.2981 0.149961 48.0085 0.440429C75.0829 3.87535 96.0168 26.9929 96.0168 54.9999C96.0168 75.5411 84.7558 93.4513 68.0708 102.896L91.5012 96.1375C102.848 86.0624 110 71.3676 110 54.9999C110 24.6243 85.3758 0 55.0002 0Z" fill="#BED8FB"/>
<path d="M71.9482 65.9581C73.7472 64.9028 75.2389 63.3953 76.2753 61.5852C77.3116 59.7752 77.8564 57.7255 77.8557 55.6398L77.8497 36.7362C77.8497 24.1167 67.6197 13.8867 55.0003 13.8867C42.3808 13.8867 32.1508 24.1167 32.1508 36.7362L32.1448 55.6398C32.144 57.7256 32.6889 59.7752 33.7252 61.5853C34.7615 63.3953 36.2533 64.9028 38.0523 65.9581L40.6298 67.4698C44.9877 70.0255 49.9484 71.3729 55.0005 71.3729C60.0525 71.3729 65.0132 70.0255 69.3711 67.4698L71.9482 65.9581Z" fill="#EFC984"/>
<path d="M77.8496 36.7347C77.8496 27.2618 72.0849 19.1356 63.8723 15.6719V69.9463C65.7878 69.3178 67.631 68.4871 69.3706 67.4683L71.9481 65.9566C73.7471 64.9013 75.2388 63.3938 76.2751 61.5837C77.3115 59.7737 77.8563 57.7241 77.8556 55.6383L77.8496 36.7347Z" fill="#EABC6B"/>
<path d="M55.0001 89.8307L69.4977 79.6287L63.6456 72.5405V56.3828H46.3546V72.5405L40.5024 79.6287L55.0001 89.8307Z" fill="#FFDDCE"/>
<path d="M83.2679 76.3157L67.2573 73.2344C64.7295 77.3512 60.1855 80.0971 55.0003 80.0971C49.8151 80.0971 45.2711 77.3512 42.7433 73.2344L26.7327 76.3157C20.6354 77.4891 16.229 82.8246 16.229 89.0335V94.0123C24.8034 102.535 36.1723 108.246 48.8397 109.658C49.7897 109.764 50.7511 109.706 51.6846 109.5L55.757 108.602C56.7233 108.389 57.7265 108.408 58.684 108.658C60.0128 109.004 61.4185 108.905 62.6852 108.375C75.1552 103.157 85.3673 93.6211 91.4474 81.6311C89.5703 78.9385 86.6848 76.9733 83.2679 76.3157Z" fill="#4A80AA"/>
<path d="M93.7713 89.0347C93.7713 85.5289 92.366 82.3021 90.0452 79.9453C81.9594 95.8081 66.4049 107.227 48.0137 109.562C50.2702 109.849 52.5423 109.996 54.8169 110.003H54.8225C54.894 110.003 55.0758 110.004 55.177 110.003H55.1826C70.2373 109.954 83.8676 103.857 93.771 94.0135V89.0347H93.7713Z" fill="#407093"/>
<path d="M56.1126 108.524C58.1614 102.592 62.4144 89.1769 63.4261 77.3672C61.0585 79.0836 58.148 80.097 55.0002 80.097C51.8523 80.097 48.9418 79.0836 46.5742 77.3672C47.6126 89.4889 52.0665 103.304 54.0458 108.979L56.1126 108.524Z" fill="#E28086"/>
<path d="M53.876 108.494C54.0495 108.997 54.2255 109.498 54.4041 109.999C55.5318 110.011 55.1397 110.004 55.596 109.999C55.852 109.281 56.1028 108.561 56.3484 107.84C55.5295 108.077 54.7051 108.295 53.876 108.494Z" fill="#DD636E"/>
<path d="M70.3239 35.2098C64.2185 28.6341 63.0849 22.6602 63.0849 22.6602C60.0522 30.618 52.3499 36.2716 43.3271 36.2716C43.051 36.2716 42.7762 36.2662 42.5027 36.2559C40.4265 36.1762 38.7021 37.8404 38.7021 39.9181V46.5933C38.8364 55.482 46.0794 62.6475 55.0004 62.6475C63.9211 62.6475 71.1641 55.4822 71.2986 46.5933V37.6977C71.2986 36.7756 70.9512 35.8855 70.3239 35.2098Z" fill="#FFDDCE"/>
<path d="M70.3236 35.2046C66.6558 31.2543 64.7836 27.5231 63.8723 25.1719V45.8521C63.7487 54.017 57.6259 60.7231 49.7158 61.7619C51.4165 62.3454 53.2021 62.6429 55.0001 62.6423C63.9208 62.6423 71.1639 55.4768 71.2983 46.5881V37.6925C71.2983 36.7704 70.9509 35.8803 70.3236 35.2046Z" fill="#FFCBBE"/>
<path d="M36.9272 73.793C36.2313 74.2194 36.0929 75.1729 36.6391 75.7794L40.0291 79.545C40.1443 79.6729 40.233 79.8224 40.2902 79.9848C40.3474 80.1472 40.3719 80.3192 40.3623 80.4911C40.3528 80.663 40.3093 80.8313 40.2344 80.9863C40.1595 81.1413 40.0547 81.28 39.926 81.3944L37.6907 83.3804C37.2213 83.7974 36.9893 84.4273 37.0999 85.0452C38.3488 92.0224 49.5116 105.349 53.55 109.986C53.8347 109.993 54.1198 109.998 54.4055 110.001C52.452 104.529 46.3543 86.3435 46.3543 72.5411V68.0156L36.9272 73.793ZM73.0729 73.793L63.646 68.0158V72.5413C63.646 86.3437 57.5483 104.529 55.5947 110.001C55.8804 109.999 56.1655 109.994 56.4502 109.987C60.4886 105.349 71.6515 92.0227 72.9003 85.0454C73.011 84.4273 72.7787 83.7976 72.3095 83.3806L70.0743 81.3946C69.9456 81.2802 69.8408 81.1416 69.7659 80.9866C69.691 80.8315 69.6475 80.6632 69.6379 80.4913C69.6283 80.3195 69.6528 80.1474 69.71 79.985C69.7672 79.8226 69.856 79.6731 69.9712 79.5452L73.3612 75.7796C73.9071 75.1729 73.7687 74.2194 73.0729 73.793Z" fill="#365E7D"/>
<path d="M73.769 37.7188H71.2979V45.8828H73.769C76.024 45.8828 77.8517 44.0545 77.851 41.7995C77.8504 39.5458 76.0229 37.7188 73.769 37.7188Z" fill="#FFDDCE"/>
</svg>
