<svg width="22" height="22" viewBox="0 0 22 22" fill="none" xmlns="http://www.w3.org/2000/svg">
<path d="M15.4442 2.11328H6.55528C4.10069 2.11328 2.11084 4.10313 2.11084 6.55773V15.4466C2.11084 17.9012 4.10069 19.8911 6.55528 19.8911H15.4442C17.8988 19.8911 19.8886 17.9012 19.8886 15.4466V6.55773C19.8886 4.10313 17.8988 2.11328 15.4442 2.11328Z" fill="#003282"/>
<path d="M14.5556 10.4442C14.6653 11.1839 14.5389 11.9395 14.1945 12.6033C13.85 13.2671 13.305 13.8054 12.637 14.1417C11.969 14.4779 11.212 14.5949 10.4736 14.4761C9.73523 14.3573 9.05313 14.0087 8.52431 13.4799C7.99549 12.9511 7.64688 12.269 7.52807 11.5306C7.40926 10.7922 7.52629 10.0352 7.86252 9.36717C8.19876 8.69916 8.73707 8.15417 9.40089 7.80972C10.0647 7.46528 10.8202 7.33892 11.56 7.44862C12.3146 7.56052 13.0132 7.91214 13.5526 8.45156C14.092 8.99097 14.4437 9.68958 14.5556 10.4442Z" fill="#003282" stroke="white" stroke-linecap="round" stroke-linejoin="round"/>
<path d="M15.8882 6.11328H15.8968" stroke="white" stroke-width="2" stroke-linecap="round" stroke-linejoin="round"/>
</svg>
