<svg width="17" height="16" viewBox="0 0 17 16" fill="none" xmlns="http://www.w3.org/2000/svg">
<path d="M3.71564 15.6453V5.08882H0.206821V15.6453H3.716H3.71564ZM1.96196 3.64776C3.1853 3.64776 3.94691 2.83715 3.94691 1.82411C3.92401 0.78799 3.1853 0 1.98523 0C0.784326 0 0 0.78799 0 1.82402C0 2.83706 0.761336 3.64767 1.93897 3.64767H1.96169L1.96196 3.64776ZM5.65781 15.6453H9.16635V9.75073C9.16635 9.43564 9.18925 9.11973 9.28195 8.89468C9.53548 8.26405 10.1128 7.61125 11.0823 7.61125C12.3517 7.61125 12.8597 8.57923 12.8597 9.99849V15.6453H16.3682V9.59254C16.3682 6.35018 14.6374 4.84134 12.3289 4.84134C10.4363 4.84134 9.60509 5.89916 9.14327 6.61965H9.16663V5.08919H5.658C5.70379 6.07951 5.65772 15.6457 5.65772 15.6457L5.65781 15.6453Z" fill="#003282"/>
</svg>
