<svg width="24" height="20" viewBox="0 0 24 20" fill="none" xmlns="http://www.w3.org/2000/svg">
<path d="M5.85596 11.4122L8.49088 18.7053C8.49088 18.7053 8.82032 19.3877 9.17307 19.3877C9.52583 19.3877 14.7725 13.9294 14.7725 13.9294L20.6071 2.66016L5.94998 9.52962L5.85596 11.4122Z" fill="#C8DAEA"/>
<path d="M9.34621 13.2812L8.8404 18.657C8.8404 18.657 8.62867 20.3041 10.2755 18.657C11.9223 17.0098 13.4986 15.7396 13.4986 15.7396" fill="#A9C6D8"/>
<path d="M5.9007 11.6724L0.480567 9.90644C0.480567 9.90644 -0.167199 9.64363 0.0413813 9.04769C0.0843189 8.9248 0.170934 8.82023 0.43004 8.64052C1.631 7.80342 22.6588 0.24548 22.6588 0.24548C22.6588 0.24548 23.2525 0.0454135 23.6026 0.178483C23.6893 0.205298 23.7672 0.254643 23.8285 0.321468C23.8898 0.388293 23.9323 0.470201 23.9515 0.558814C23.9893 0.715327 24.0052 0.876351 23.9985 1.03723C23.9969 1.17641 23.98 1.30541 23.9672 1.5077C23.8392 3.57407 20.0066 18.9961 20.0066 18.9961C20.0066 18.9961 19.7773 19.8985 18.9558 19.9294C18.7539 19.9359 18.5527 19.9017 18.3643 19.8289C18.1759 19.756 18.0041 19.6459 17.8592 19.5052C16.247 18.1184 10.6747 14.3736 9.44342 13.55C9.41565 13.5311 9.39225 13.5064 9.37482 13.4777C9.35739 13.449 9.34632 13.4168 9.34237 13.3835C9.32516 13.2967 9.41954 13.1891 9.41954 13.1891C9.41954 13.1891 19.1223 4.5646 19.3805 3.6592C19.4005 3.58906 19.325 3.55445 19.2236 3.58518C18.5791 3.82226 7.40759 10.8772 6.17461 11.6558C6.08586 11.6826 5.99205 11.6883 5.9007 11.6724Z" fill="white"/>
</svg>
