<svg width="24" height="20" viewBox="0 0 24 20" fill="none" xmlns="http://www.w3.org/2000/svg">
<path d="M5.85596 11.2794L8.49088 18.5725C8.49088 18.5725 8.82032 19.2549 9.17307 19.2549C9.52583 19.2549 14.7725 13.7966 14.7725 13.7966L20.6071 2.52734L5.94998 9.3968L5.85596 11.2794Z" fill="#002259"/>
<path d="M9.34621 13.1484L8.8404 18.5241C8.8404 18.5241 8.62867 20.1713 10.2755 18.5241C11.9223 16.877 13.4986 15.6068 13.4986 15.6068" fill="#000102"/>
<path d="M5.9007 11.5396L0.480567 9.77363C0.480567 9.77363 -0.167199 9.51082 0.0413813 8.91488C0.0843189 8.79198 0.170934 8.68742 0.43004 8.50771C1.631 7.67061 22.6588 0.112668 22.6588 0.112668C22.6588 0.112668 23.2525 -0.087399 23.6026 0.0456705C23.6893 0.0724855 23.7672 0.12183 23.8285 0.188656C23.8898 0.255481 23.9323 0.337388 23.9515 0.426001C23.9893 0.582514 24.0052 0.743539 23.9985 0.904422C23.9969 1.0436 23.98 1.1726 23.9672 1.37488C23.8392 3.44126 20.0066 18.8633 20.0066 18.8633C20.0066 18.8633 19.7773 19.7657 18.9558 19.7966C18.7539 19.8031 18.5527 19.7689 18.3643 19.696C18.1759 19.6232 18.0041 19.5131 17.8592 19.3724C16.247 17.9856 10.6747 14.2408 9.44342 13.4172C9.41565 13.3983 9.39225 13.3736 9.37482 13.3449C9.35739 13.3162 9.34632 13.284 9.34237 13.2506C9.32516 13.1638 9.41954 13.0563 9.41954 13.0563C9.41954 13.0563 19.1223 4.43178 19.3805 3.52639C19.4005 3.45625 19.325 3.42164 19.2236 3.45236C18.5791 3.68944 7.40759 10.7443 6.17461 11.523C6.08586 11.5498 5.99205 11.5555 5.9007 11.5396Z" fill="#003282"/>
</svg>
