<svg width="104" height="86" viewBox="0 0 104 86" fill="none" xmlns="http://www.w3.org/2000/svg">
<path d="M12.1837 34.0204C17.2557 34.0204 21.3673 29.9087 21.3673 24.8367C21.3673 19.7647 17.2557 15.6531 12.1837 15.6531C7.11167 15.6531 3 19.7647 3 24.8367C3 29.9087 7.11167 34.0204 12.1837 34.0204ZM12.1837 34.0204C14.7208 34.0204 17.0176 35.0492 18.6796 36.7124L28.2327 46.2653H39.9388C43.3202 46.2653 46.0612 49.0063 46.0612 52.3878C46.0612 55.7692 43.3202 58.5102 39.9388 58.5102M12.1837 34.0204C7.11163 34.0204 3 38.132 3 43.2041V83H101.367V43.2041C101.367 38.132 97.2557 34.0204 92.1837 34.0204M23.1604 58.5102L14.502 49.8518M23.1604 58.5102H81.2069M23.1604 58.5102V83M92.1837 34.0204C97.2557 34.0204 101.367 29.9087 101.367 24.8367C101.367 19.7647 97.2557 15.6531 92.1837 15.6531C87.1117 15.6531 83 19.7647 83 24.8367C83 29.9087 87.1117 34.0204 92.1837 34.0204ZM92.1837 34.0204C89.6465 34.0204 87.3498 35.0492 85.6878 36.7124L76.1347 46.2653H64.4286C61.0471 46.2653 58.3061 49.0063 58.3061 52.3878C58.3061 55.7692 61.0471 58.5102 64.4286 58.5102M81.2069 58.5102L89.8653 49.8518M81.2069 58.5102V83M3 70.7551H23.1604M81.2069 70.7551H101.367M52.1837 21.3673C57.2557 21.3673 61.3673 17.2557 61.3673 12.1837C61.3673 7.11163 57.2557 3 52.1837 3C47.1116 3 43 7.11163 43 12.1837C43 17.2557 47.1116 21.3673 52.1837 21.3673ZM52.1837 21.3673C60.6369 21.3673 67.4898 28.2202 67.4898 36.6735V46.2653M52.1837 21.3673C43.7304 21.3673 36.8776 28.2202 36.8776 36.6735V46.2653" stroke="#0745AA" stroke-width="5" stroke-miterlimit="10"/>
</svg>
