<svg width="79" height="78" viewBox="0 0 79 78" fill="none" xmlns="http://www.w3.org/2000/svg">
<path d="M70.6789 0H7.48041C3.35558 0 0 3.35558 0 7.48041V54.6614C0 58.7861 3.35558 62.1418 7.48041 62.1418H26.218L24.4498 73.4019H20.9742C19.7101 73.4019 18.6852 74.4267 18.6852 75.6908C18.6852 76.9549 19.7101 77.9797 20.9742 77.9797C28.6433 77.9971 49.5523 77.9933 57.185 77.9797C58.4491 77.9797 59.474 76.9549 59.474 75.6908C59.474 74.4267 58.4491 73.4019 57.185 73.4019H53.3959L51.8089 62.1418H70.6789C74.8036 62.1418 78.1593 58.7862 78.1593 54.6614V7.48041C78.1592 3.35558 74.8036 0 70.6789 0ZM73.5813 7.48041V28.782H67.9897C67.4485 26.008 65.7261 23.6525 63.3687 22.2607C64.2176 21.0418 64.7172 19.5622 64.7172 17.9676C64.7172 13.8142 61.3382 10.4353 57.185 10.4353C53.0318 10.4353 49.6527 13.8144 49.6527 17.9676C49.6527 19.5623 50.1523 21.0418 51.0012 22.2607C48.6439 23.6525 46.9214 26.0078 46.3802 28.782H41.3686V4.57788H70.6789C72.2794 4.57788 73.5813 5.87983 73.5813 7.48041ZM57.3585 20.913H57.0115C55.4633 20.8223 54.2306 19.5379 54.2306 17.9674C54.2306 16.3383 55.5561 15.013 57.185 15.013C58.814 15.013 60.1393 16.3384 60.1393 17.9674C60.1393 19.5379 58.9068 20.8223 57.3585 20.913ZM55.935 25.4908C56.6396 25.4925 57.5629 25.4948 58.4351 25.4908C60.6212 25.4908 62.4941 26.8578 63.244 28.7819H51.1262C51.8759 26.8578 53.7487 25.4908 55.935 25.4908ZM7.48041 4.57788H36.7907V28.7819H31.6815C31.1403 26.0078 29.4178 23.6524 27.0604 22.2605C27.9093 21.0416 28.4089 19.562 28.4089 17.9674C28.4089 13.8141 25.03 10.4351 20.8768 10.4351C16.7236 10.4351 13.3445 13.8142 13.3445 17.9674C13.3445 19.5622 13.8441 21.0416 14.693 22.2605C12.3357 23.6524 10.6132 26.0077 10.0719 28.7819H4.57788V7.48041C4.57788 5.87983 5.87983 4.57788 7.48041 4.57788ZM21.0502 20.913H20.7032C19.1549 20.8223 17.9222 19.5379 17.9222 17.9674C17.9222 16.3383 19.2477 15.013 20.8767 15.013C22.5056 15.013 23.8309 16.3384 23.8309 17.9674C23.8309 19.5379 22.5982 20.8223 21.0502 20.913ZM19.6264 25.4908C20.3311 25.4925 21.2543 25.4948 22.1266 25.4908C24.3127 25.4908 26.1856 26.8578 26.9355 28.7819H14.8177C15.5675 26.8578 17.4403 25.4908 19.6264 25.4908ZM4.57788 54.6614V33.3598H36.7907V57.5638H31.6815C31.1403 54.7896 29.4178 52.4343 27.0604 51.0424C27.9093 49.8235 28.4089 48.3439 28.4089 46.7491C28.4089 42.5958 25.03 39.217 20.8768 39.217C16.7236 39.217 13.3445 42.5959 13.3445 46.7491C13.3445 48.3439 13.8441 49.8233 14.693 51.0424C12.3356 52.4343 10.6132 54.7896 10.0719 57.5638H7.48041C5.87983 57.5639 4.57788 56.2618 4.57788 54.6614ZM20.703 49.6949C19.1548 49.6042 17.9221 48.3197 17.9221 46.7491C17.9221 45.12 19.2475 43.7949 20.8765 43.7949C22.5055 43.7949 23.8308 45.1202 23.8308 46.7491C23.8308 48.3197 22.5981 49.6042 21.05 49.6949H20.703ZM19.6264 54.2727C20.3311 54.2744 21.2543 54.2767 22.1266 54.2727C24.3127 54.2727 26.1858 55.6398 26.9355 57.5638H14.8177C15.5674 55.6398 17.4403 54.2727 19.6264 54.2727ZM29.0837 73.4019L30.8517 62.1418H47.1856L48.7726 73.4019H29.0837ZM51.1261 57.5639C51.8758 55.64 53.7489 54.2729 55.935 54.2729C56.6396 54.2746 57.5629 54.2769 58.4351 54.2729C60.6212 54.2729 62.4943 55.64 63.244 57.5639H51.1261ZM57.3585 49.6949H57.0115C55.4633 49.6042 54.2306 48.3197 54.2306 46.7491C54.2306 45.12 55.5561 43.7949 57.185 43.7949C58.814 43.7949 60.1393 45.1202 60.1393 46.7491C60.1393 48.3198 58.9068 49.6044 57.3585 49.6949ZM70.6789 57.5639H67.9899C67.4486 54.7897 65.7263 52.4344 63.3688 51.0426C64.2177 49.8237 64.7173 48.3441 64.7173 46.7493C64.7173 42.5959 61.3384 39.2172 57.1852 39.2172C53.032 39.2172 49.6529 42.5961 49.6529 46.7493C49.6529 48.3441 50.1525 49.8235 51.0014 51.0426C48.6439 52.4344 46.9216 54.7897 46.3803 57.5639H41.3688V33.3598H73.5816V54.6614C73.5813 56.2618 72.2794 57.5639 70.6789 57.5639Z" fill="#0745AA"/>
</svg>
