<svg width="86" height="86" viewBox="0 0 86 86" fill="none" xmlns="http://www.w3.org/2000/svg">
<path d="M43 27.8962V62.751M38.0207 62.751H47.9793M28.0622 37.8547L33.0415 52.7925H23.083L28.0622 37.8547ZM28.0622 37.8547H30.9791C32.2997 37.8547 33.5661 37.3301 34.4999 36.3963L36.5623 34.3339C37.4961 33.4001 38.7626 32.8755 40.0832 32.8755H45.9167C47.2373 32.8755 48.5037 33.4001 49.4375 34.3339L51.4999 36.3963C52.4337 37.3301 53.7002 37.8547 55.0207 37.8547H57.9378M57.9378 37.8547L62.917 52.7925H52.9585L57.9378 37.8547ZM13.1245 62.751H7.97925C5.22921 62.751 3 60.5218 3 57.7718V42.834C3 40.084 5.22921 37.8547 7.97925 37.8547H13.1245V62.751ZM78.0207 62.751H72.8755V37.8547H78.0207C80.7708 37.8547 83 40.084 83 42.834V57.7718C83 60.5218 80.7708 62.751 78.0207 62.751Z" stroke="#0745AA" stroke-width="5" stroke-miterlimit="10" stroke-linecap="round" stroke-linejoin="round"/>
<path d="M13.125 37.8548V27.8963C13.125 14.1464 24.2714 3 38.0213 3H47.9798C61.7296 3 72.876 14.1464 72.876 27.8963V37.8548M47.9798 78.0207H67.8968C70.6468 78.0207 72.876 75.7915 72.876 73.0415V62.751" stroke="#0745AA" stroke-width="5" stroke-miterlimit="10" stroke-linecap="round" stroke-linejoin="round"/>
<path d="M43.0027 82.9995C45.7527 82.9995 47.9819 80.7702 47.9819 78.0203C47.9819 75.2703 45.7527 73.041 43.0027 73.041C40.2527 73.041 38.0234 75.2703 38.0234 78.0203C38.0234 80.7702 40.2527 82.9995 43.0027 82.9995Z" stroke="#0745AA" stroke-width="5" stroke-miterlimit="10" stroke-linecap="round" stroke-linejoin="round"/>
<path d="M20.4141 10.293L27.4605 17.3394C30.1654 14.6347 33.8999 12.9595 38.0184 12.9595H47.9769C52.0954 12.9595 55.8298 14.6347 58.5347 17.3394L65.5812 10.293" stroke="#0745AA" stroke-width="5" stroke-miterlimit="10" stroke-linecap="round" stroke-linejoin="round"/>
</svg>
