<svg width="83" height="83" viewBox="0 0 83 83" fill="none" xmlns="http://www.w3.org/2000/svg">
<path d="M75.7051 0H7.29492C3.27299 0 0 3.27299 0 7.29492V58.6025C0 62.6245 3.27299 65.8975 7.29492 65.8975H31.373L29.117 78.1367H21.556C20.2131 78.1367 19.1244 79.2254 19.1244 80.5684C19.1244 81.9113 20.2131 83 21.556 83H61.444C62.7869 83 63.8756 81.9113 63.8756 80.5684C63.8756 79.2254 62.7869 78.1367 61.444 78.1367H53.883L51.627 65.8975H75.7051C79.727 65.8975 83 62.6245 83 58.6025V7.29492C83 3.27299 79.727 0 75.7051 0ZM48.9376 78.1367H34.0624L36.319 65.8975H46.681L48.9376 78.1367ZM78.1367 58.6025C78.1367 59.9432 77.0457 61.0342 75.7051 61.0342H7.29492C5.95428 61.0342 4.86328 59.9432 4.86328 58.6025V7.29492C4.86328 5.95428 5.95428 4.86328 7.29492 4.86328H75.7051C77.0457 4.86328 78.1367 5.95428 78.1367 7.29492V58.6025Z" fill="#0745AA"/>
<path d="M27.1668 38.2943C32.7505 38.2943 36.4399 32.4937 34.0837 27.4386L30.983 20.7865H39.2512V41.5365H33.7998C32.4569 41.5365 31.3682 42.6252 31.3682 43.9681C31.3682 45.311 32.4569 46.3998 33.7998 46.3998H49.2002C50.5431 46.3998 51.6318 45.311 51.6318 43.9681C51.6318 42.6252 50.5431 41.5365 49.2002 41.5365H44.1143V20.7865H52.3826L49.6128 26.7286C47.3663 31.5483 50.8895 37.0648 56.1988 37.0648C61.5163 37.0648 65.0279 31.5405 62.7848 26.7286L58.4028 17.3274C58.0006 16.4651 57.1293 15.923 56.1988 15.923H44.1143V12.2256C44.1143 10.8827 43.0256 9.794 41.6827 9.794C40.3398 9.794 39.2511 10.8827 39.2511 12.2256V15.9232H27.1666C26.2024 15.9232 25.3513 16.4938 24.9626 17.3275L20.2496 27.4386C17.8902 32.5007 21.5909 38.2943 27.1668 38.2943ZM56.1988 32.2017C54.4384 32.2017 53.2758 30.3814 54.0207 28.7835L56.1988 24.1107L58.3769 28.7835C59.1208 30.3791 57.9616 32.2017 56.1988 32.2017ZM24.6576 29.4934L27.1668 24.1105L29.6757 29.4934C30.5325 31.3312 29.1977 33.4312 27.1666 33.4312C25.1389 33.431 23.7996 31.334 24.6576 29.4934ZM61.561 51.2402H21.439C20.0961 51.2402 19.0073 52.3289 19.0073 53.6718C19.0073 55.0147 20.0961 56.1035 21.439 56.1035H61.561C62.9039 56.1035 63.9927 55.0147 63.9927 53.6718C63.9927 52.3289 62.9039 51.2402 61.561 51.2402Z" fill="#0745AA"/>
</svg>
