<svg width="83" height="83" viewBox="0 0 83 83" fill="none" xmlns="http://www.w3.org/2000/svg">
<path d="M83 10.5374C83 8.30276 81.1819 6.4847 78.9473 6.4847H73.5709V4.05273C73.5709 1.81806 71.7529 0 69.5182 0H13.4817C11.2471 0 9.42909 1.81789 9.42893 4.05257L9.42877 6.48486H4.05273C1.81806 6.48486 0 8.30292 0 10.5376V68.2219C0 69.5649 1.08873 70.6536 2.43164 70.6536H28.202L25.2542 78.1367H23.0581C21.7152 78.1367 20.6265 79.2254 20.6265 80.5684C20.6265 81.9113 21.7152 83 23.0581 83H59.9419C61.2848 83 62.3735 81.9113 62.3735 80.5684C62.3735 79.2254 61.2848 78.1367 59.9419 78.1367H57.7458L54.798 70.6536H80.5684C81.9113 70.6536 83 69.5649 83 68.2219V10.5374ZM78.1367 11.348V56.0244H73.5678L73.5706 11.348H78.1367ZM68.7076 4.86328L68.7046 56.0244H14.289L14.292 4.86328H68.7076ZM4.86328 11.348H9.42844L9.42569 56.0244H4.86328V11.348ZM52.5187 78.1367H30.4813L33.4291 70.6536H49.5709L52.5187 78.1367ZM78.1367 65.7903H4.86328V60.8876H78.1367V65.7903Z" fill="#0745AA"/>
<path d="M38.9873 26.0774H31.6303C30.2874 26.0774 29.1987 27.1661 29.1987 28.509V30.852H28.3879C27.045 30.852 25.9563 31.9407 25.9563 33.2836C25.9563 34.6266 27.045 35.7153 28.3879 35.7153H31.6303C32.9732 35.7153 34.0619 34.6266 34.0619 33.2836V30.9407H38.9873V46.292H37.8551C36.5122 46.292 35.4235 47.3807 35.4235 48.7236C35.4235 50.0665 36.5122 51.1552 37.8551 51.1552H44.9828C46.3257 51.1552 47.4144 50.0665 47.4144 48.7236C47.4144 47.3807 46.3257 46.292 44.9828 46.292H43.8506V30.9407H48.9381V33.2836C48.9381 34.6266 50.0268 35.7153 51.3697 35.7153H54.6121C55.955 35.7153 57.0437 34.6266 57.0437 33.2836C57.0437 31.9407 55.955 30.852 54.6121 30.852H53.8013V28.509C53.8013 27.1661 52.7126 26.0774 51.3697 26.0774H43.8506V24.2248C43.8506 22.8819 42.7619 21.7932 41.4189 21.7932C40.076 21.7932 38.9873 22.8819 38.9873 24.2248V26.0774ZM21.5873 14.5905H36.6364C37.9793 14.5905 39.068 13.5018 39.068 12.1589C39.068 10.8159 37.9793 9.72721 36.6364 9.72721H21.5873C20.2444 9.72721 19.1557 10.8159 19.1557 12.1589C19.1557 13.5018 20.2442 14.5905 21.5873 14.5905ZM46.3636 14.5905H61.4117C62.7546 14.5905 63.8434 13.5018 63.8434 12.1589C63.8434 10.8159 62.7546 9.72721 61.4117 9.72721H46.3636C45.0207 9.72721 43.932 10.8159 43.932 12.1589C43.932 13.5018 45.0207 14.5905 46.3636 14.5905Z" fill="#0745AA"/>
</svg>
