<svg width="81" height="80" viewBox="0 0 81 80" fill="none" xmlns="http://www.w3.org/2000/svg">
<path d="M30.7204 41.8842L26.0329 18.4466C25.9266 17.9153 25.6396 17.4372 25.2206 17.0937C24.8016 16.7502 24.2765 16.5625 23.7347 16.5625H19.0472C18.5054 16.5625 17.9804 16.7502 17.5614 17.0937C17.1424 17.4372 16.8553 17.9153 16.7491 18.4466L12.0616 41.8841C11.8077 43.1534 12.631 44.3881 13.9002 44.6419C15.1694 44.8958 16.4043 44.0725 16.658 42.8033L18.1561 35.3125H24.6258L26.1239 42.8034C26.3779 44.0733 27.6132 44.8959 28.8818 44.642C30.151 44.3881 30.9743 43.1534 30.7204 41.8842ZM19.0936 30.625L20.9686 21.25H21.8133L23.6883 30.625H19.0936ZM68.266 35.3125H61.2347V32.9688C61.2347 31.6744 60.1854 30.625 58.891 30.625C57.5966 30.625 56.5472 31.6744 56.5472 32.9688V35.3125H49.516C48.2216 35.3125 47.1722 36.3619 47.1722 37.6562C47.1722 38.9506 48.2216 40 49.516 40H50.0832C51.4186 44.3144 53.4293 47.6259 55.6418 50.2797C53.841 51.9269 52.0188 53.2777 50.3957 54.5761C49.3849 55.3847 49.221 56.8595 50.0297 57.8703C50.8388 58.8816 52.3138 59.0445 53.3239 58.2362C54.9561 56.9305 56.9125 55.4794 58.891 53.6638C60.8708 55.4806 62.8308 56.9344 64.458 58.2362C65.4688 59.045 66.9438 58.8809 67.7522 57.8703C68.5608 56.8595 68.3969 55.3845 67.3863 54.5761C65.7674 53.2806 63.9429 51.9284 62.1402 50.2797C64.3527 47.6259 66.3633 44.3144 67.6988 40H68.266C69.5604 40 70.6097 38.9506 70.6097 37.6562C70.6097 36.3619 69.5604 35.3125 68.266 35.3125ZM58.891 46.8352C57.3949 44.957 56.0489 42.7153 55.0343 39.9844H62.7475C61.733 42.7153 60.3871 44.957 58.891 46.8352Z" fill="#0745AA"/>
<path d="M73.1094 14.2188H39.2967L38.292 6.15906C37.8531 2.64781 34.8537 0 31.3152 0H7.17188C3.29484 0 0.140625 3.15422 0.140625 7.03125V58.75C0.140625 62.627 3.29484 65.7812 7.17188 65.7812H26.9348L27.9267 73.8409C28.3648 77.3452 31.3642 80 34.9037 80H73.1094C76.9864 80 80.1406 76.8458 80.1406 72.9688V21.25C80.1406 17.373 76.9864 14.2188 73.1094 14.2188ZM7.17188 61.0938C5.87953 61.0938 4.82812 60.0423 4.82812 58.75V7.03125C4.82812 5.73891 5.87953 4.6875 7.17188 4.6875H31.3152C32.4947 4.6875 33.4945 5.57 33.6406 6.73969L40.4163 61.0938H7.17188ZM32.4412 72.1484L31.6577 65.7812H37.9458L32.4412 72.1484ZM75.4531 72.9688C75.4531 74.2611 74.4017 75.3125 73.1094 75.3125H35.9022L44.8247 64.9917C45.0496 64.7383 45.2168 64.439 45.3147 64.1147C45.4126 63.7903 45.4389 63.4485 45.3917 63.113L39.8811 18.9062H73.1094C74.4017 18.9062 75.4531 19.9577 75.4531 21.25V72.9688Z" fill="#0745AA"/>
</svg>
