<svg width="86" height="86" viewBox="0 0 86 86" fill="none" xmlns="http://www.w3.org/2000/svg">
<path d="M21.1477 42.6813V18.839M21.1477 18.839L36.9884 3M21.1477 18.839L36.9884 18.839V3M36.9884 3H83V83H21.1477V65.5593M40.3369 61.2183C42.1544 59.4027 43.278 56.8929 43.278 54.1212C43.278 51.3512 42.1544 48.8417 40.3369 47.0241V47.0226M47.3793 39.9817C50.9992 43.6 53.2365 48.5992 53.2365 54.121C53.2365 59.6413 50.9992 64.6405 47.3793 68.2588M47.5925 15.6141H72.3959M47.5925 25.5726H72.3959M61.4498 35.5311H72.3959M14.0211 61.7288H3V46.5117H14.0211V61.7288ZM32.3657 36.6521V71.5882L14.0212 61.7286V46.5115L32.3657 36.6521Z" stroke="#0745AA" stroke-width="5" stroke-miterlimit="10" stroke-linecap="round" stroke-linejoin="round"/>
</svg>
