<svg width="77" height="83" viewBox="0 0 77 83" fill="none" xmlns="http://www.w3.org/2000/svg">
<path d="M72.708 0H16.6713C14.4367 0 12.6186 1.81806 12.6186 4.05273V34.7049C11.656 35.2557 10.7863 35.955 10.0415 36.7768C9.05199 37.871 8.30211 39.1599 7.84003 40.561C7.37795 41.962 7.21386 43.4442 7.35831 44.9124L9.48745 66.3908C5.83496 67.4972 3.16794 70.8937 3.16794 74.9026V78.1367H2.43164C1.08873 78.1367 0 79.2254 0 80.5684C0 81.9113 1.08873 83 2.43164 83H72.7082C74.9428 83 76.7609 81.1819 76.7609 78.9473V4.05273C76.7607 1.81806 74.9428 0 72.708 0ZM13.646 40.0417C14.7408 38.833 16.2419 38.1674 17.8729 38.1674C19.5039 38.1674 21.0048 38.833 22.0997 40.0417C23.1946 41.2504 23.7088 42.8097 23.548 44.4327L21.4091 66.0098H14.337L12.1978 44.4327C12.0369 42.8097 12.5512 41.2504 13.646 40.0417ZM8.03122 78.1367V74.9026C8.03122 72.6808 9.8389 70.8731 12.0608 70.8731H23.6852C25.907 70.8731 27.7147 72.6808 27.7147 74.9026V78.1367H8.03122ZM71.8975 78.1367H32.5778V74.9026C32.5778 70.8938 29.9108 67.4972 26.2583 66.3908L28.3875 44.9124C28.6812 41.9492 27.7032 38.9839 25.7042 36.7768C23.7053 34.5697 20.8508 33.3039 17.8729 33.3039C17.7422 33.3039 17.6122 33.3094 17.482 33.3143V4.86328H71.8976L71.8975 78.1367Z" fill="#0745AA"/>
<path d="M64.5798 46.6875H34.1148C32.7719 46.6875 31.6831 47.7762 31.6831 49.1191C31.6831 50.4621 32.7719 51.5508 34.1148 51.5508H64.5797C65.9226 51.5508 67.0113 50.4621 67.0113 49.1191C67.0113 47.7762 65.9228 46.6875 64.5798 46.6875ZM50.184 58.7804C50.184 57.4375 49.0953 56.3487 47.7524 56.3487H34.1148C32.7719 56.3487 31.6831 57.4375 31.6831 58.7804C31.6831 60.1233 32.7719 61.212 34.1148 61.212H47.7524C49.0953 61.212 50.184 60.1233 50.184 58.7804ZM24.6145 14.5905H33.3885C34.7314 14.5905 35.8202 13.5018 35.8202 12.1589C35.8202 10.8159 34.7314 9.72721 33.3885 9.72721H24.6145C23.2716 9.72721 22.1829 10.8159 22.1829 12.1589C22.1829 13.5018 23.2716 14.5905 24.6145 14.5905ZM64.5798 56.3487H57.3274C55.9845 56.3487 54.8957 57.4375 54.8957 58.7804C54.8957 60.1233 55.9845 61.212 57.3274 61.212H64.5798C65.9228 61.212 67.0115 60.1233 67.0115 58.7804C67.0115 57.4375 65.9228 56.3487 64.5798 56.3487ZM64.5798 66.0096H42.717C41.374 66.0096 40.2853 67.0984 40.2853 68.4413C40.2853 69.7842 41.374 70.8729 42.717 70.8729H64.5798C65.9228 70.8729 67.0115 69.7842 67.0115 68.4413C67.0115 67.0984 65.9228 66.0096 64.5798 66.0096ZM54.3653 37.4742C61.3385 37.4742 67.0115 31.8012 67.0115 24.828C67.0115 17.8549 61.3385 12.1819 54.3653 12.1819C47.3922 12.1819 41.7192 17.8549 41.7192 24.828C41.7192 31.8012 47.3922 37.4742 54.3653 37.4742ZM54.3653 17.0452C58.6568 17.0452 62.1482 20.5365 62.1482 24.828C62.1482 29.1195 58.6568 32.6109 54.3653 32.6109C50.0738 32.6109 46.5825 29.1195 46.5825 24.828C46.5825 20.5365 50.0738 17.0452 54.3653 17.0452Z" fill="#0745AA"/>
<path d="M54.3976 27.1715C55.6695 27.1715 56.8881 26.0531 56.8292 24.7398C56.7702 23.4224 55.7608 22.3082 54.3976 22.3082C53.1257 22.3082 51.9071 23.4266 51.9659 24.7398C52.025 26.0573 53.0344 27.1715 54.3976 27.1715Z" fill="#0745AA"/>
</svg>
