<svg width="86" height="86" viewBox="0 0 86 86" fill="none" xmlns="http://www.w3.org/2000/svg">
<path d="M47.6938 6.31951H77.5211C80.5469 6.31951 83 8.77263 83 11.7984V62.5834C83 65.6091 80.5469 68.0622 77.5211 68.0622H8.47884C5.45311 68.0622 3 65.6091 3 62.5834V11.7984C3 8.77263 5.45311 6.31951 8.47884 6.31951H38.3062M20.8216 83H65.1784M34.7012 68.0622L31.3817 83M51.2987 68.0622L54.6183 83M43 68.0622V12.9585M43 12.9585C45.7499 12.9585 47.9793 10.7291 47.9793 7.97925C47.9793 5.22938 45.7499 3 43 3C40.2501 3 38.0207 5.22938 38.0207 7.97925C38.0207 10.7291 40.2501 12.9585 43 12.9585ZM3 37.1909H83M23 24.5768C25.7499 24.5768 27.9793 22.3474 27.9793 19.5975C27.9793 16.8476 25.7499 14.6183 23 14.6183C20.2501 14.6183 18.0207 16.8476 18.0207 19.5975C18.0207 22.3474 20.2501 24.5768 23 24.5768ZM23 24.5768C17.8471 24.5768 13.67 28.7539 13.67 33.9067V37.1909H32.33V33.9067C32.33 28.7539 28.1529 24.5768 23 24.5768ZM63 24.5768C60.2501 24.5768 58.0207 22.3474 58.0207 19.5975C58.0207 16.8476 60.2501 14.6183 63 14.6183C65.7499 14.6183 67.9792 16.8476 67.9792 19.5975C67.9792 22.3474 65.7499 24.5768 63 24.5768ZM63 24.5768C68.1529 24.5768 72.3299 28.7539 72.3299 33.9067V37.1909H53.67V33.9067C53.67 28.7539 57.8471 24.5768 63 24.5768ZM23 55.4481C25.7499 55.4481 27.9793 53.2188 27.9793 50.4689C27.9793 47.719 25.7499 45.4896 23 45.4896C20.2501 45.4896 18.0207 47.719 18.0207 50.4689C18.0207 53.2188 20.2501 55.4481 23 55.4481ZM23 55.4481C17.8471 55.4481 13.67 59.6252 13.67 64.7781V68.0622H32.33V64.7781C32.33 59.6252 28.1529 55.4481 23 55.4481ZM63 55.4481C60.2501 55.4481 58.0207 53.2188 58.0207 50.4689C58.0207 47.719 60.2501 45.4896 63 45.4896C65.7499 45.4896 67.9792 47.719 67.9792 50.4689C67.9792 53.2188 65.7499 55.4481 63 55.4481ZM63 55.4481C68.1529 55.4481 72.3299 59.6252 72.3299 64.7781V68.0622H53.67V64.7781C53.67 59.6252 57.8471 55.4481 63 55.4481Z" stroke="#0745AA" stroke-width="5" stroke-miterlimit="10" stroke-linecap="round" stroke-linejoin="round"/>
</svg>
