<svg width="69" height="83" viewBox="0 0 69 83" fill="none" xmlns="http://www.w3.org/2000/svg">
<path d="M31.1301 15.0431L25.9688 5.41936H10.9566C6.56227 5.41936 3 8.98163 3 13.376V57.1935M31.1301 15.0431H58.185C62.5793 15.0431 66.1416 18.6054 66.1416 22.9997V57.1935M31.1301 15.0431L60.3237 3M3 57.1935H66.1416M3 57.1935V76.118H66.1416V57.1935M3 57.1935V38.2691H66.1416V57.1935M3.00016 83V76.9782M66.1417 83V76.9782M26.8316 66.6563H42.3155M26.8316 47.7315H42.3155M10.4875 26.6563H15.3262M20.1649 26.6563H25.0037M58.6597 26.6563H44.8961M29.8424 26.6563H34.6811" stroke="#0745AA" stroke-width="5" stroke-miterlimit="10"/>
</svg>
