<svg width="86" height="86" viewBox="0 0 86 86" fill="none" xmlns="http://www.w3.org/2000/svg">
<path d="M63.682 38.4219V4.65975C63.682 3.74307 62.9389 3 62.0222 3H4.65975C3.74307 3 3 3.74307 3 4.65975V81.3399C3 82.2566 3.74307 82.9997 4.65975 82.9997L61.9997 83M14.6983 38.4946H33.9149M14.6983 28.5354H33.9149M14.6983 18.5763H51.8267M14.6983 48.3861H33.9149M14.6983 56.6853H33.9149M14.6983 66.6445H33.9149M57.6271 59.4594L61.8976 64.7052L70.9051 55.1278M82.9992 55.8704L82.9114 44.3021C78.7346 44.3329 75.117 41.9218 73.4488 38.4221L53.5074 38.5693C51.8925 42.0933 48.3117 44.5577 44.1351 44.5884L44.2229 56.1567C44.2968 65.8878 49.5791 74.8556 58.1125 79.7371L63.8159 82.9997L69.4692 79.6533C77.9275 74.6463 83.073 65.6015 82.9992 55.8704Z" stroke="#0745AA" stroke-width="5" stroke-miterlimit="10" stroke-linecap="round" stroke-linejoin="round"/>
</svg>
