<svg width="83" height="83" viewBox="0 0 83 83" fill="none" xmlns="http://www.w3.org/2000/svg">
<path d="M81.9242 60.198C78.6398 51.393 65.7301 36.0586 59.483 29.0404H59.7784C61.1211 29.0404 62.2097 27.9518 62.2097 26.6092C62.2097 25.2665 61.1211 24.1781 59.7784 24.1781H59.3746C63.203 19.8809 68.9478 13.4107 70.5609 11.4758C73.8947 7.47656 72.7551 3.89864 70.7663 2.04994C67.8323 -0.67723 62.1608 -0.929311 56.9123 2.7984C53.053 -0.891701 45.4239 -0.884244 41.5724 2.7984C36.3241 -0.928986 30.6523 -0.67723 27.7183 2.04994C25.7295 3.89864 24.5901 7.47656 27.9239 11.4758C29.537 13.4109 35.2817 19.8809 39.1101 24.1781H38.7064C37.3637 24.1781 36.2751 25.2666 36.2751 26.6092C36.2751 27.952 37.3637 29.0404 38.7064 29.0404H39.0018C35.6618 32.7927 32.5435 36.4592 29.0797 40.8437C28.7874 39.8289 27.8538 39.0857 26.7448 39.0857H2.43132C1.08857 39.0858 0 40.1742 0 41.517V80.5688C0 81.9114 1.08857 83 2.43132 83H65.9188C77.5625 83 86.1004 71.3941 81.9242 60.198ZM31.0292 5.61116C32.1922 4.53005 36.2613 4.13807 40.3974 8.13067C41.709 9.39642 43.9011 8.81915 44.4177 7.07031C44.687 6.15877 46.5135 4.8961 49.2424 4.8961C51.9714 4.8961 53.7977 6.15877 54.0669 7.07031C54.5833 8.81818 56.7752 9.39739 58.0873 8.13067C62.2235 4.13791 66.2923 4.52989 67.4556 5.61116C68.271 6.36919 67.4108 7.66023 66.8256 8.36232C64.7727 10.8251 55.4424 21.2844 52.8584 24.1781H45.6262C43.0422 21.2844 33.712 10.8251 31.6592 8.36232C31.074 7.66023 30.2138 6.36919 31.0292 5.61116ZM17.412 68.2531H4.8628V63.393H19.6626C18.5792 64.803 17.7967 66.4548 17.412 68.2531ZM24.3137 58.5305H4.8628V53.6707H24.3137V58.5305ZM24.3137 43.9481V48.8082H4.8628V43.9481H24.3137ZM4.8628 73.1154H17.3634C17.7148 74.9383 18.4795 76.6564 19.5987 78.1375H4.8628V73.1154ZM22.0038 70.8058C22.0038 66.7631 25.293 63.4741 29.3407 63.4741C33.3837 63.4741 36.6729 66.7631 36.6729 70.8058C36.6729 74.8485 33.3837 78.1375 29.3407 78.1375C25.2797 78.1375 22.0038 74.837 22.0038 70.8058ZM65.9188 78.1375H39.0781C40.6198 76.0954 41.5357 73.5558 41.5357 70.8058C41.5357 64.0701 36.0266 58.5294 29.1763 58.6156V48.715C35.6884 39.904 42.2887 32.6613 45.5118 29.0404H52.973L57.1517 33.7349C57.3189 33.9228 73.9085 52.6229 77.3681 61.8974C80.2969 69.7492 74.3755 78.1375 65.9188 78.1375Z" fill="#0745AA"/>
<path d="M48.0267 46.3788H54.1052C55.448 46.3788 56.5365 45.2902 56.5365 43.9476C56.5365 42.6051 55.448 41.5165 54.1052 41.5165H51.6739C51.6736 40.1741 50.5852 39.086 49.2426 39.086C47.8998 39.086 46.8112 40.1745 46.8112 41.5171V41.6387C44.0401 42.2033 41.9484 44.6587 41.9484 47.5935C41.9484 50.9445 44.6751 53.6707 48.0269 53.6707H50.4582C51.1285 53.6707 51.6739 54.2157 51.6739 54.8853C51.6739 55.555 51.1285 56.1 50.4582 56.1H44.3798C43.037 56.1 41.9484 57.1886 41.9484 58.5312C41.9484 59.8738 43.037 60.9623 44.3798 60.9623H46.8111C46.8114 62.3048 47.8998 63.3928 49.2424 63.3928C50.5852 63.3928 51.6737 62.3043 51.6737 60.9617V60.8401C54.4448 60.2755 56.5365 57.8202 56.5365 54.8853C56.5365 51.5344 53.8098 48.8083 50.4581 48.8083H48.0267C47.3564 48.8083 46.8111 48.2633 46.8111 47.5935C46.8111 46.9236 47.3564 46.3788 48.0267 46.3788Z" fill="#0745AA"/>
</svg>
