<svg width="74" height="83" viewBox="0 0 74 83" fill="none" xmlns="http://www.w3.org/2000/svg">
<path d="M51.0244 56.1021H46.4599V51.2116H48.715C56.9098 51.2116 63.5767 44.5447 63.5767 36.3498V26.759C62.0951 -8.93345 11.2495 -8.9059 9.78104 26.759V36.3498C9.78104 44.5447 16.448 51.2116 24.6428 51.2116H26.8979V56.1021H22.3334C10.0187 56.1021 0 66.1209 0 78.4355V83H73.3578V78.4355C73.3578 66.1209 63.3391 56.1021 51.0244 56.1021ZM36.6789 60.9927C33.9823 60.9927 31.7884 58.7988 31.7884 56.1021V52.9438C34.8617 53.889 38.496 53.889 41.5694 52.9438V56.1021C41.5694 58.7988 39.3755 60.9927 36.6789 60.9927ZM24.4526 36.5401V26.759C29.5498 26.759 34.0481 24.1462 36.6789 20.1896C39.3097 24.1462 43.808 26.759 48.9052 26.759V36.5401C48.832 48.3151 33.8882 53.1567 26.9045 43.8758H36.6789V38.9853H24.6988C24.5348 38.1806 24.4524 37.3613 24.4526 36.5401ZM14.6716 36.3498V26.759C15.8839 -2.44389 57.4848 -2.4214 58.6862 26.759V36.3498C58.6862 41.1031 55.3419 45.0877 50.8834 46.0808C52.7216 43.3531 53.7957 40.0695 53.7957 36.5401V21.8685H48.9052C43.5119 21.8685 39.1242 17.4807 39.1242 12.0875H34.2336C34.2336 17.4807 29.8459 21.8685 24.4526 21.8685H19.5621V36.5401C19.5621 40.0695 20.6362 43.3531 22.4744 46.0808C18.0159 45.0877 14.6716 41.1031 14.6716 36.3498ZM22.3334 60.9927H28.2137C29.5118 63.2307 31.6692 64.9113 34.2336 65.5738V78.1095H4.89362C5.06837 68.6418 12.8246 60.9927 22.3334 60.9927ZM39.1242 78.1095V65.5738C41.6884 64.9113 43.846 63.2309 45.1441 60.9927H51.0244C60.5332 60.9927 68.2894 68.6416 68.4642 78.1095H39.1242Z" fill="#0745AA"/>
</svg>
