<svg width="71" height="83" viewBox="0 0 71 83" fill="none" xmlns="http://www.w3.org/2000/svg">
<path d="M46.3515 25.9333C32.8001 25.8913 21.7789 36.3095 21.7349 49.2029C21.6909 62.0963 32.6406 72.5824 46.192 72.6243C48.081 72.6301 49.9644 72.4284 51.8047 72.0231V76.5152C51.8042 76.8591 51.6604 77.1887 51.4049 77.4318C51.1493 77.6749 50.8029 77.8117 50.4415 77.8121H6.81639C6.45499 77.8117 6.10853 77.6749 5.85297 77.4318C5.5974 77.1887 5.45361 76.8591 5.45311 76.5152V16.8545H50.4413C50.8027 16.8549 51.1492 16.9917 51.4047 17.2348C51.6603 17.4779 51.8041 17.8076 51.8046 18.1514V22.0424C51.8046 23.4751 53.0252 24.6365 54.5311 24.6365C56.037 24.6365 57.2577 23.4751 57.2577 22.0424V18.1514C57.2531 14.5714 54.2039 11.6707 50.4413 11.6666H43.6249V2.58765C43.6108 1.14512 42.3702 -0.0133412 40.854 0.000116067C40.5861 0.00249793 40.32 0.0421547 40.0642 0.117827L1.8924 11.7907C1.34658 11.9646 0.871157 12.2958 0.532068 12.7383C0.19298 13.1809 0.00702771 13.7128 0 14.2605V76.5152C0.00460106 80.0952 3.05374 82.9959 6.81639 83H50.4413C54.2039 82.9959 57.2531 80.095 57.2577 76.5152V70.1609C69.3903 64.4419 74.353 50.4478 68.3422 38.9042C64.2019 30.9525 55.6782 25.925 46.3515 25.9333ZM38.1718 6.14313V11.6639H20.1191L38.1718 6.14313ZM27.544 52.2507C26.0836 44.256 30.4401 36.3228 38.1718 32.8974V40.4203L35.1044 43.3517C33.2636 45.0955 32.978 47.8351 34.4228 49.8891L37.7083 54.5845L27.544 52.2507ZM46.3515 67.4387C39.5538 67.4309 33.274 63.9827 29.8657 58.3868L36.6313 59.6691C39.5847 60.2346 42.4607 58.4153 43.055 55.6053C43.1965 54.9366 43.1981 54.248 43.0596 53.5787C42.9211 52.9095 42.6453 52.2727 42.248 51.705L38.9489 47.0095L42.0299 44.0911C43.0518 43.1169 43.6255 41.7967 43.6249 40.4203V31.3274C46.5246 30.9025 49.4886 31.1319 52.278 31.9971C55.0674 32.8624 57.604 34.3392 59.6833 36.3085H53.8495C50.4634 36.3134 47.7198 38.9238 47.7147 42.1454V46.0367C47.7198 49.2584 50.4634 51.8687 53.8495 51.8736C54.0285 51.8719 54.2008 51.9379 54.3287 52.0572C54.4565 52.1764 54.5293 52.339 54.5311 52.5093V55.1163C54.5362 58.338 57.2798 60.9484 60.6659 60.9532H60.9501C59.1627 62.9836 56.9293 64.6165 54.4071 65.737C51.8848 66.8575 49.1351 67.4384 46.3515 67.4387ZM60.6659 55.7649C60.4869 55.7666 60.3145 55.7005 60.1867 55.5813C60.0589 55.4621 59.986 55.2994 59.9842 55.1291V52.5221C59.9791 49.3005 57.2355 46.6901 53.8495 46.6852C53.6705 46.6869 53.4981 46.6209 53.3703 46.5017C53.2425 46.3825 53.1696 46.2198 53.1678 46.0495V42.1454C53.1661 41.9751 53.2355 41.8111 53.3608 41.6895C53.4861 41.5679 53.657 41.4986 53.836 41.4969H63.5697C64.6911 43.7096 65.3219 46.1181 65.423 48.5727C65.5241 51.0273 65.0932 53.4755 64.1572 55.7649H60.6659Z" fill="#0745AA"/>
</svg>
