<svg width="86" height="86" viewBox="0 0 86 86" fill="none" xmlns="http://www.w3.org/2000/svg">
<path d="M33.0415 48.1453H7.97925C7.97925 50.8954 5.75004 53.1246 3 53.1246V78.0209C5.75004 78.0209 7.97925 80.2501 7.97925 83.0001H78.0208C78.0208 80.2501 80.25 78.0209 83 78.0209V53.1246C80.25 53.1246 78.0208 50.8954 78.0208 48.1453H52.9585M23.083 63.0831H62.917M28.0622 73.0416H57.9378M67.8963 33.0416V25.5727L47.9793 20.5935V12.9586C47.9793 7.45871 45.75 3.00012 43 3.00012C40.25 3.00012 38.0208 7.45871 38.0208 12.9586V20.5935L18.1037 25.5727V33.0416H38.0208V43.1661L33.0415 45.6557V53.1246L43 50.635L52.9585 53.1246V45.6557L47.9793 43.1661V33.0416H67.8963Z" stroke="#0745AA" stroke-width="5" stroke-miterlimit="10" stroke-linecap="round" stroke-linejoin="round"/>
</svg>
