<svg width="88" height="88" viewBox="0 0 88 88" fill="none" xmlns="http://www.w3.org/2000/svg">
<path d="M13.4852 26.9821C20.7788 26.9821 26.7127 21.0484 26.7127 13.7547C26.7127 6.46095 20.7788 0.527222 13.4852 0.527222C6.19172 0.527222 0.257812 6.46112 0.257812 13.7547C0.257812 21.0482 6.19154 26.9821 13.4852 26.9821ZM13.4852 5.65208C17.9529 5.65208 21.5878 9.2868 21.5878 13.7547C21.5878 18.2225 17.9531 21.8572 13.4852 21.8572C9.01739 21.8572 5.38267 18.2223 5.38267 13.7547C5.38267 9.28697 9.01739 5.65208 13.4852 5.65208Z" fill="#0745AA"/>
<path d="M13.4852 16.3171C14.1376 16.3171 14.7904 16.0694 15.29 15.5736L17.0117 13.8653C18.0163 12.8686 18.0225 11.246 17.0257 10.2416C16.0289 9.23709 14.4067 9.23077 13.4019 10.2274L11.6803 11.9357C10.6756 12.9325 10.6695 14.555 11.6663 15.5595C11.9042 15.7999 12.1875 15.9906 12.4998 16.1207C12.812 16.2508 13.147 16.3175 13.4852 16.3171ZM85.2524 47.2178C86.6675 47.2178 87.8148 46.0705 87.8148 44.6553V41.1921C87.8148 35.9916 83.5837 31.7605 78.3832 31.7605C73.1827 31.7605 68.9516 35.9914 68.9516 41.1921V44.6553C68.9516 46.0705 70.0989 47.2178 71.514 47.2178H75.8208V52.2967H74.4876C73.0725 52.2967 71.9252 53.444 71.9252 54.8591C71.9252 55.0921 71.959 55.3167 72.0173 55.5313H63.8375V38.2019C63.8375 37.756 63.7211 37.3178 63.4999 36.9307C63.2787 36.5435 62.9602 36.2208 62.5761 35.9943L54.16 31.0345C52.8245 30.2273 51.9466 28.8243 51.7821 27.2879C53.7258 25.3239 54.9286 22.6253 54.9286 19.6505V19.1586C56.1818 18.9912 57.1494 17.9207 57.1494 16.6217C57.1494 15.3213 56.1799 14.2499 54.9249 14.084C54.8461 8.16087 50.006 3.36571 44.0644 3.36571C38.1228 3.36571 33.2827 8.1607 33.204 14.084C31.9489 14.2497 30.9795 15.3213 30.9795 16.6217C30.9795 17.9207 31.947 18.9912 33.2002 19.1586V19.6505C33.2002 22.6253 34.403 25.324 36.3467 27.2879C36.1819 28.8277 35.3004 30.2335 33.9602 31.0399L25.7041 36.0063C25.3253 36.2341 25.0118 36.556 24.7943 36.9408C24.5767 37.3256 24.4623 37.7601 24.4623 38.2021V55.5315H16.1121C16.1703 55.3169 16.2042 55.0923 16.2042 54.8593C16.2042 53.4441 15.0569 52.2968 13.6417 52.2968H12.3086V47.2178H16.6153C18.0305 47.2178 19.1778 46.0705 19.1778 44.6553V41.1921C19.1778 35.9916 14.9467 31.7605 9.74615 31.7605C4.54561 31.7605 0.314528 35.9914 0.314528 41.1921V44.6553C0.314528 46.0705 1.46181 47.2178 2.87696 47.2178H7.18372V52.2967H5.85057C4.43543 52.2967 3.28814 53.444 3.28814 54.8591C3.28814 55.0921 3.32197 55.3167 3.38022 55.5313H2.96323C1.54808 55.5313 0.400796 56.6786 0.400796 58.0937V68.3699C0.400796 69.7851 1.54808 70.9324 2.96323 70.9324H5.58767V85.3332C5.58767 86.7484 6.73495 87.8956 8.15009 87.8956C9.56524 87.8956 10.7125 86.7484 10.7125 85.3332V70.9324H77.4168V85.3332C77.4168 86.7484 78.5641 87.8956 79.9793 87.8956C81.3944 87.8956 82.5417 86.7484 82.5417 85.3332V70.9324H85.1661C86.5813 70.9324 87.7286 69.7851 87.7286 68.3699V58.0937C87.7286 56.6786 86.5813 55.5313 85.1661 55.5313H84.7491C84.8074 55.3167 84.8412 55.0921 84.8412 54.8591C84.8412 53.444 83.6939 52.2967 82.2788 52.2967H80.9456V47.2178H85.2524ZM5.43939 41.1921C5.43939 38.8174 7.37146 36.8854 9.74615 36.8854C12.1208 36.8854 14.0529 38.8174 14.0529 41.1921V42.0929H5.43939V41.1921ZM58.7128 39.6661V55.5313H56.389L54.9288 48.775C54.9119 48.697 54.8914 48.6198 54.8675 48.5436C53.9175 45.5428 53.4343 42.4138 53.4349 39.2662V36.5558L58.7128 39.6661ZM44.0648 30.5146C45.149 30.5146 46.1959 30.353 47.1846 30.056C47.4634 30.8601 47.8414 31.6262 48.3099 32.3367V39.2662C48.2996 39.8783 48.3611 40.4842 48.3099 41.0937C48.3099 43.4346 46.4056 45.339 44.0646 45.339C41.7236 45.339 39.8193 43.4346 39.8193 41.0937C39.7681 40.4835 39.8296 39.8766 39.8193 39.2638V32.3369C40.2879 31.6265 40.666 30.8603 40.9446 30.0561C41.9567 30.3603 43.0079 30.5147 44.0648 30.5146ZM38.185 49.9701C38.3194 49.5399 38.4458 49.1072 38.5641 48.6722C40.1101 49.7973 42.0105 50.4635 44.0648 50.4635C46.1186 50.4635 48.0189 49.7976 49.5648 48.6727C49.6832 49.1084 49.8098 49.5418 49.9445 49.9727L51.146 55.5313H36.9832L38.185 49.9701ZM38.3254 14.2301C38.3254 11.9861 39.6207 10.0398 41.5023 9.09667V9.8572C41.5023 11.2723 42.6496 12.4196 44.0648 12.4196C45.4799 12.4196 46.6272 11.2723 46.6272 9.8572V9.09667C48.5087 10.0398 49.8041 11.9859 49.8041 14.2301V19.6505C49.8041 22.8151 47.2295 25.3898 44.0648 25.3898C40.9 25.3898 38.3254 22.8151 38.3254 19.6505V14.2301ZM29.5874 39.6509L34.6945 36.5787V39.2635C34.6945 42.4149 34.2126 45.5363 33.2619 48.5408C33.2378 48.617 33.2173 48.6942 33.2006 48.7723L31.7398 55.5311H29.5874V39.6509ZM82.6037 65.8075H5.52565V60.6562H82.6037V65.8075ZM74.0764 41.1921C74.0764 38.8174 76.0085 36.8854 78.3832 36.8854C80.7579 36.8854 82.69 38.8174 82.69 41.1921V42.0929H74.0764V41.1921Z" fill="#0745AA"/>
</svg>
