<svg width="86" height="86" viewBox="0 0 86 86" fill="none" xmlns="http://www.w3.org/2000/svg">
<path d="M62.2531 22.917H67.2324C69.9822 22.917 72.2116 20.6876 72.2116 17.9378C72.2116 15.1879 69.9822 12.9585 67.2324 12.9585H62.2531V22.917ZM62.2531 22.917V27.8963M65.5726 37.8548C75.1975 37.8548 83 30.0523 83 20.4274C83 10.8025 75.1975 3 65.5726 3C55.9477 3 48.1452 10.8025 48.1452 20.4274C48.1452 30.0523 55.9477 37.8548 65.5726 37.8548ZM65.5726 37.8548L65.5726 58.9798M57.7718 56.444L53.3232 46.4345C52.6712 44.9676 51.6077 43.7212 50.2617 42.8465C48.9157 41.9718 47.3449 41.5062 45.7396 41.5062H25.8206C24.2153 41.5062 22.6445 41.9718 21.2984 42.8465C19.9524 43.7212 18.889 44.9676 18.237 46.4345L13.7884 56.444H57.7718ZM57.7718 56.444C65.1051 56.444 71.0498 62.3887 71.0498 69.722V76.361L61.0913 76.361M57.7718 56.444L11.2988 56.444C6.71552 56.444 3 60.1595 3 64.7427V76.361L12.1286 76.361M61.0913 76.361C61.0913 80.0276 58.119 83 54.4523 83C50.7856 83 47.8133 80.0276 47.8133 76.361M61.0913 76.361C61.0913 72.6944 58.119 69.722 54.4523 69.722C50.7856 69.722 47.8133 72.6944 47.8133 76.361M47.8133 76.361H25.4066M25.4066 76.361C25.4066 80.0276 22.4342 83 18.7676 83C15.1011 83 12.1286 80.0276 12.1286 76.361M25.4066 76.361C25.4066 72.6944 22.4342 69.722 18.7676 69.722C15.1011 69.722 12.1286 72.6944 12.1286 76.361M36.195 76.361V41.5062M65.5726 83V76.361M70.0808 64.7427H64.4108" stroke="#0745AA" stroke-width="5" stroke-miterlimit="10" stroke-linecap="round" stroke-linejoin="round"/>
</svg>
