<svg width="83" height="83" viewBox="0 0 83 83" fill="none" xmlns="http://www.w3.org/2000/svg">
<path d="M41.5 83C18.5798 83 0 64.4202 0 41.5C0 18.5798 18.5798 0 41.5 0C64.4202 0 83 18.5798 83 41.5C82.9728 64.4086 64.4086 82.9728 41.5 83ZM41.5 5.1875C21.4454 5.1875 5.1875 21.4454 5.1875 41.5C5.1875 61.5546 21.4454 77.8125 41.5 77.8125C61.5546 77.8125 77.8125 61.5546 77.8125 41.5C77.7909 21.4542 61.5458 5.20906 41.5 5.1875Z" fill="#0745AA"/>
<path d="M59.6562 62.25H23.3438C19.0466 62.25 15.5625 58.7659 15.5625 54.4688V33.7188C15.5625 29.4216 19.0466 25.9375 23.3438 25.9375H24.0676L26.0724 19.9305C26.2443 19.4142 26.5743 18.9651 27.0155 18.6467C27.4568 18.3282 27.9871 18.1567 28.5312 18.1562H41.5C42.0442 18.1567 42.5744 18.3282 43.0157 18.6467C43.457 18.9651 43.7869 19.4142 43.9589 19.9305L45.9637 25.9375H59.6562C63.9534 25.9375 67.4375 29.4216 67.4375 33.7188V54.4688C67.4375 58.7659 63.9534 62.25 59.6562 62.25ZM23.3438 31.125C21.9114 31.125 20.75 32.2864 20.75 33.7188V54.4688C20.75 55.9011 21.9114 57.0625 23.3438 57.0625H59.6562C61.0886 57.0625 62.25 55.9011 62.25 54.4688V33.7188C62.25 32.2864 61.0886 31.125 59.6562 31.125H44.0938C43.5496 31.1246 43.0193 30.953 42.578 30.6346C42.1368 30.3162 41.8068 29.867 41.6349 29.3507L39.6301 23.3438H30.4012L28.3964 29.3507C28.2245 29.867 27.8945 30.3162 27.4532 30.6346C27.0119 30.953 26.4817 31.1246 25.9375 31.125H23.3438Z" fill="#0745AA"/>
<path d="M35.0156 51.875C30.0016 51.875 25.9375 47.8109 25.9375 42.7969C25.9375 37.7828 30.0016 33.7188 35.0156 33.7188C40.0297 33.7188 44.0938 37.7828 44.0938 42.7969C44.0938 47.8109 40.0297 51.875 35.0156 51.875ZM35.0156 38.9062C32.867 38.9062 31.125 40.6483 31.125 42.7969C31.125 44.9455 32.867 46.6875 35.0156 46.6875C37.1642 46.6875 38.9062 44.9455 38.9062 42.7969C38.9062 40.6483 37.1642 38.9062 35.0156 38.9062ZM54.4688 41.5C54.2948 41.4957 54.1214 41.4784 53.95 41.4481C53.7875 41.4199 53.6303 41.3674 53.4834 41.2923C53.317 41.2353 53.1592 41.1568 53.0135 41.0592L52.6273 40.7476L52.3158 40.3589C52.2175 40.2146 52.1391 40.0574 52.0827 39.8916C52.0076 39.7447 51.9552 39.5873 51.927 39.4248C51.8967 39.2535 51.8793 39.0802 51.875 38.9062C51.8836 38.2193 52.1524 37.5612 52.6272 37.0647L53.0135 36.7533C53.1593 36.6555 53.3173 36.5771 53.4834 36.5202C53.6303 36.4451 53.7876 36.3927 53.9502 36.3645C54.3709 36.2851 54.8045 36.3073 55.2149 36.4291C55.6254 36.5509 56.0008 36.7688 56.3102 37.0648C56.676 37.4276 56.9254 37.8911 57.0268 38.3962C57.1282 38.9013 57.0768 39.4252 56.8792 39.901C56.6817 40.3768 56.3469 40.783 55.9176 41.0677C55.4883 41.3525 54.9839 41.503 54.4688 41.5Z" fill="#0745AA"/>
</svg>
