<svg width="86" height="86" viewBox="0 0 86 86" fill="none" xmlns="http://www.w3.org/2000/svg">
<path d="M25.9042 66.3074C30.3248 68.3162 33.4005 72.7705 33.4005 77.9421V83H7.14938V77.9421C7.14938 72.7705 10.2251 68.3162 14.6456 66.3074M20.3452 68.6812V73.441M71.3544 66.3074C75.7749 68.3162 78.8506 72.7705 78.8506 77.9421V83H52.5993V77.9421C52.5993 72.7705 55.675 68.3162 60.0956 66.3074M43 37.2759C47.244 40.8174 53.0598 43 59.4747 43C72.4672 43 83 34.0446 83 22.9992C83 11.9537 72.4672 3 59.4747 3C53.0598 3 47.244 5.18257 43 8.72232M27.645 60.3285C27.645 64.3988 24.3453 67.6984 20.275 67.6984C16.2047 67.6984 12.9051 64.3988 12.9051 60.3285C12.9051 56.2581 16.2047 52.9585 20.275 52.9585C24.3453 52.9585 27.645 56.2581 27.645 60.3285ZM73.0949 60.3285C73.0949 64.3988 69.7953 67.6984 65.725 67.6984C61.6547 67.6984 58.355 64.3988 58.355 60.3285C58.355 56.2581 61.6547 52.9585 65.725 52.9585C69.7953 52.9585 73.0949 56.2581 73.0949 60.3285ZM50.0523 23C50.0523 30.6066 45.0564 37.2224 37.7021 40.6033V52.5154L26.5253 43C13.5328 43 3 34.0456 3 23C3 11.9544 13.5328 3 26.5253 3C39.5195 3 50.0523 11.9544 50.0523 23Z" stroke="#0745AA" stroke-width="5" stroke-miterlimit="10" stroke-linecap="round" stroke-linejoin="round"/>
</svg>
