<svg width="95" height="83" viewBox="0 0 95 83" fill="none" xmlns="http://www.w3.org/2000/svg">
<path d="M94.4356 49.8H88.6248C87.9678 39.7564 83.745 30.4046 76.5625 23.2219C70.5334 17.193 62.9756 13.2505 54.7634 11.7497C55.261 10.6677 55.5184 9.49087 55.5178 8.3C55.5178 3.72338 51.7942 0 47.2178 0C42.6413 0 38.9178 3.72356 38.9178 8.3C38.9173 9.49078 39.1744 10.6676 39.6714 11.7497C31.4599 13.2505 23.9022 17.193 17.8723 23.2221C10.6906 30.4042 6.46718 39.7563 5.81074 49.8H0V55.3333H6.77464L12.308 66.4H37.8456L34.1567 77.4667H27.8511V83H66.5844V77.4667H60.2787L56.5898 66.4H82.1276L87.6609 55.3333H94.4356V49.8ZM44.4511 8.3C44.4511 6.77464 45.6924 5.53333 47.2178 5.53333C48.7431 5.53333 49.9844 6.77464 49.9844 8.3C49.9844 9.82536 48.7431 11.0667 47.2178 11.0667C45.6924 11.0667 44.4511 9.82536 44.4511 8.3ZM47.2178 16.6C66.1191 16.6 81.6613 31.2554 83.0793 49.8H11.3562C12.7743 31.2554 28.3165 16.6 47.2178 16.6ZM54.4458 77.4667H39.99L43.6788 66.4H50.7569L54.4458 77.4667ZM78.708 60.8667H15.7276L12.9609 55.3333H81.4746L78.708 60.8667Z" fill="#0745AA"/>
</svg>
