<svg width="72" height="82" viewBox="0 0 72 82" fill="none" xmlns="http://www.w3.org/2000/svg">
<path d="M31.3819 78.9999L45.5728 50.3029M26.6515 50.3028L36.1121 69.224M12.4606 71.5892V79M59.7635 71.5892V79M23.2868 12.4606C25.5643 6.86717 30.4511 3 36.112 3C41.7729 3 46.6596 6.86717 48.9373 12.4606M50.3029 21.9212L55.0332 12.4606H17.1909L21.9212 21.9212M50.3029 21.9212H21.9212M50.3029 21.9212V26.6515C50.3029 34.8959 46.3604 41.9047 40.8423 44.4992C40.8423 47.7046 43.4407 50.3029 46.6462 50.3029H59.7635C64.9884 50.3029 69.2241 54.5386 69.2241 59.7635V79H3V59.7635C3 54.5386 7.23566 50.3029 12.4606 50.3029H25.5778C28.7834 50.3029 31.3817 47.7046 31.3817 44.4992C25.8637 41.9047 21.9212 34.8959 21.9212 26.6515L21.9212 21.9212M55.0332 50.3029C55.0332 65.9777 46.5619 79 36.112 79C25.6622 79 17.1909 65.9777 17.1909 50.3029" stroke="#0745AA" stroke-width="5" stroke-miterlimit="10"/>
</svg>
