<svg width="212" height="70" viewBox="0 0 212 70" fill="none" xmlns="http://www.w3.org/2000/svg">
<path d="M83.5952 52.0523C81.6339 52.0523 80.0837 52.7074 78.9443 54.0177C77.8131 55.3197 77.2476 57.106 77.2476 59.3765C77.2476 61.7122 77.7928 63.5188 78.8833 64.7965C79.9819 66.066 81.5444 66.7008 83.5708 66.7008C84.8159 66.7008 86.236 66.477 87.8311 66.0294V67.8482C86.5941 68.3121 85.0682 68.544 83.2534 68.544C80.6248 68.544 78.5944 67.7465 77.1621 66.1514C75.738 64.5564 75.0259 62.29 75.0259 59.3521C75.0259 57.5129 75.3677 55.9016 76.0513 54.5181C76.743 53.1347 77.7358 52.0686 79.0298 51.3199C80.3319 50.5712 81.8618 50.1969 83.6196 50.1969C85.4914 50.1969 87.1271 50.5387 88.5269 51.2222L87.6479 53.0045C86.297 52.3697 84.9461 52.0523 83.5952 52.0523Z" fill="white"/>
<path d="M105.275 68.2999H103.2V59.9014H93.8003V68.2999H91.7251V50.4532H93.8003V58.046H103.2V50.4532H105.275V68.2999Z" fill="white"/>
<path d="M121.4 68.2999L119.179 62.6236H112.025L109.828 68.2999H107.729L114.784 50.38H116.53L123.549 68.2999H121.4ZM118.532 60.7559L116.457 55.2262C116.188 54.5263 115.911 53.6677 115.626 52.6505C115.447 53.4317 115.191 54.2903 114.857 55.2262L112.758 60.7559H118.532Z" fill="white"/>
<path d="M133.9 68.2999L127.846 52.4796H127.748C127.862 53.7328 127.919 55.2221 127.919 56.9473V68.2999H126.002V50.4532H129.127L134.779 65.1749H134.877L140.578 50.4532H143.678V68.2999H141.603V56.8009C141.603 55.4825 141.66 54.0502 141.774 52.504H141.676L135.573 68.2999H133.9Z" fill="white"/>
<path d="M148.585 50.4532H153.627C155.995 50.4532 157.708 50.8072 158.766 51.5152C159.824 52.2232 160.353 53.3422 160.353 54.8722C160.353 55.9301 160.056 56.8049 159.462 57.4967C158.876 58.1803 158.017 58.6238 156.886 58.8272V58.9493C159.596 59.4132 160.951 60.8373 160.951 63.2218C160.951 64.8168 160.41 66.0619 159.328 66.9571C158.253 67.8523 156.748 68.2999 154.811 68.2999H148.585V50.4532ZM150.661 58.0948H154.079C155.543 58.0948 156.597 57.8669 157.24 57.4112C157.883 56.9473 158.205 56.1702 158.205 55.0797C158.205 54.0787 157.847 53.3585 157.13 52.919C156.414 52.4714 155.275 52.2476 153.712 52.2476H150.661V58.0948ZM150.661 59.8526V66.5299H154.384C155.824 66.5299 156.907 66.2532 157.631 65.6998C158.363 65.1383 158.729 64.2634 158.729 63.0753C158.729 61.9685 158.355 61.1547 157.606 60.6339C156.866 60.113 155.735 59.8526 154.213 59.8526H150.661Z" fill="white"/>
<path d="M174.745 68.2999H164.796V50.4532H174.745V52.2965H166.872V58.046H174.269V59.877H166.872V66.4444H174.745V68.2999Z" fill="white"/>
<path d="M180.788 60.878V68.2999H178.712V50.4532H183.607C185.797 50.4532 187.412 50.8723 188.454 51.7105C189.503 52.5487 190.028 53.8101 190.028 55.4947C190.028 57.8547 188.832 59.4498 186.439 60.2799L191.286 68.2999H188.832L184.511 60.878H180.788ZM180.788 59.0958H183.632C185.097 59.0958 186.171 58.8069 186.854 58.2291C187.538 57.6431 187.88 56.7683 187.88 55.6046C187.88 54.4246 187.53 53.5741 186.83 53.0533C186.138 52.5325 185.023 52.2721 183.485 52.2721H180.788V59.0958Z" fill="white"/>
<path d="M204.237 63.5513C204.237 65.122 203.668 66.3468 202.528 67.2257C201.389 68.1046 199.843 68.544 197.89 68.544C195.774 68.544 194.146 68.2714 193.007 67.7262V65.7242C193.739 66.0334 194.537 66.2776 195.399 66.4566C196.262 66.6357 197.117 66.7252 197.963 66.7252C199.346 66.7252 200.388 66.4648 201.088 65.9439C201.788 65.415 202.138 64.6825 202.138 63.7467C202.138 63.1282 202.012 62.6236 201.759 62.233C201.515 61.8342 201.1 61.468 200.514 61.1344C199.936 60.8007 199.053 60.4223 197.865 59.9991C196.205 59.405 195.017 58.7011 194.301 57.8873C193.593 57.0735 193.239 56.0115 193.239 54.7013C193.239 53.3259 193.756 52.2314 194.789 51.4176C195.823 50.6038 197.19 50.1969 198.891 50.1969C200.665 50.1969 202.296 50.5224 203.786 51.1734L203.139 52.9801C201.666 52.3616 200.233 52.0523 198.842 52.0523C197.743 52.0523 196.885 52.2883 196.266 52.7603C195.648 53.2323 195.338 53.8875 195.338 54.7257C195.338 55.3442 195.452 55.8528 195.68 56.2515C195.908 56.6422 196.291 57.0043 196.828 57.338C197.373 57.6635 198.203 58.0256 199.318 58.4244C201.19 59.0917 202.475 59.8079 203.175 60.5728C203.883 61.3378 204.237 62.3306 204.237 63.5513Z" fill="white"/>
<path d="M155.619 17.0256H156.775V9.86312H155.619V17.0256Z" fill="white"/>
<path d="M161.558 14.5186C161.558 13.4903 161.28 13.0048 160.518 13.0048C159.744 13.0048 159.26 13.6983 159.26 14.5772V17.0252H158.219V12.1969H159.26V12.9008C159.549 12.4163 160.091 12.127 160.692 12.127C162.067 12.127 162.622 12.9944 162.622 14.5073V17.0252H161.558V14.5186Z" fill="white"/>
<path d="M165.533 17.0831C164.331 17.0831 163.927 16.517 163.927 15.2122V13.0624H163.084L163.314 12.1959H163.927V11.227L164.978 10.9951V12.1959H166.18V13.0624H164.978V15.235C164.978 16.1351 165.198 16.2743 166.273 16.1931L166.064 17.0832L165.533 17.0831Z" fill="white"/>
<path d="M167.798 14.0102H170.224C170.155 13.3176 169.646 12.9694 169.034 12.9694C168.468 12.9694 167.984 13.3176 167.798 14.0102ZM169.242 16.2052C169.912 16.2052 170.282 15.9174 170.491 15.743L171.021 16.5296C170.396 16.9678 169.901 17.1068 169.242 17.1068C167.648 17.1068 166.7 16.1363 166.7 14.6112C166.7 13.1098 167.694 12.1156 169.012 12.1156C170.224 12.1156 171.183 12.9358 171.183 14.3457C171.183 14.5652 171.16 14.8302 171.16 14.8302H167.739C167.739 15.7431 168.411 16.2052 169.242 16.2052Z" fill="white"/>
<path d="M173.264 14.9348V17.0261H172.223V12.1964H173.264V12.9251C173.425 12.4169 173.946 12.1162 174.488 12.1162C174.592 12.1162 174.662 12.1162 174.764 12.1276C174.696 12.4631 174.673 12.7286 174.592 13.0643H174.51C173.414 13.0643 173.264 13.9184 173.264 14.9348Z" fill="white"/>
<path d="M178.856 14.5186C178.856 13.4903 178.578 13.0048 177.816 13.0048C177.041 13.0048 176.557 13.6983 176.557 14.5772V17.0252H175.518V12.1969H176.557V12.9008C176.846 12.4163 177.388 12.127 177.989 12.127C179.364 12.127 179.919 12.9944 179.919 14.5073V17.0252H178.856L178.856 14.5186Z" fill="white"/>
<path d="M183.258 16.1599C184.09 16.1599 184.621 15.4197 184.621 14.2075V13.3636C184.505 13.2708 184.136 13.0394 183.431 13.0394C182.471 13.0394 181.987 13.7906 181.987 14.6571C181.987 15.5124 182.358 16.1599 183.258 16.1599ZM183.385 12.1275C184.737 12.1275 185.487 12.7865 185.65 12.9128V17.0261H184.621V16.1936C184.355 16.6794 183.859 17.0837 183.143 17.0837C181.688 17.0837 180.924 16.0207 180.924 14.6221C180.924 13.2371 181.802 12.1275 183.385 12.1275Z" fill="white"/>
<path d="M188.851 17.0831C187.649 17.0831 187.244 16.517 187.244 15.2122V13.0624H186.401L186.632 12.1959H187.244V11.227L188.296 10.9951V12.1959H189.497V13.0624H188.296V15.235C188.296 16.1351 188.515 16.2743 189.591 16.1931L189.382 17.0832L188.851 17.0831Z" fill="white"/>
<path d="M190.503 12.1967H191.554V17.025H190.503V12.1967ZM191.023 11.3065C190.677 11.3065 190.399 11.0876 190.399 10.718C190.399 10.3599 190.677 10.1519 191.023 10.1519C191.381 10.1519 191.659 10.3599 191.659 10.7293C191.659 11.0875 191.381 11.3065 191.023 11.3065Z" fill="white"/>
<path d="M195.147 13.04C194.362 13.04 193.703 13.6171 193.703 14.6226C193.703 15.6395 194.362 16.1929 195.147 16.1929C195.968 16.1929 196.604 15.6395 196.604 14.6339C196.604 13.6171 195.968 13.04 195.147 13.04ZM195.16 17.1068C193.772 17.1068 192.663 16.2053 192.663 14.6226C192.663 13.04 193.772 12.127 195.16 12.127C196.557 12.127 197.654 13.04 197.654 14.6339C197.654 16.2054 196.557 17.1068 195.16 17.1068Z" fill="white"/>
<path d="M202.058 14.5186C202.058 13.4903 201.78 13.0048 201.017 13.0048C200.243 13.0048 199.759 13.6983 199.759 14.5772V17.0252H198.718V12.1969H199.759V12.9008C200.048 12.4163 200.59 12.127 201.191 12.127C202.566 12.127 203.121 12.9944 203.121 14.5073V17.0252H202.058V14.5186Z" fill="white"/>
<path d="M206.532 16.1598C207.364 16.1598 207.896 15.4196 207.896 14.2075V13.3635C207.78 13.2707 207.41 13.0393 206.705 13.0393C205.746 13.0393 205.261 13.7905 205.261 14.657C205.261 15.5123 205.632 16.1598 206.532 16.1598ZM206.659 12.1274C208.011 12.1274 208.761 12.7864 208.924 12.9127V17.0261H207.896V16.1935C207.629 16.6794 207.133 17.0836 206.417 17.0836C204.962 17.0836 204.198 16.0206 204.198 14.6221C204.198 13.237 205.076 12.1274 206.659 12.1274Z" fill="white"/>
<path d="M210.195 9.96751L211.235 9.75944V17.0259H210.195V9.96751Z" fill="white"/>
<path d="M157.156 26.5245H159.767L158.45 23.6822L157.156 26.5245ZM160.852 28.9275L160.149 27.4376H156.775L156.082 28.9275H154.868L158.392 21.5685H158.519L162.043 28.9275H160.852Z" fill="white"/>
<path d="M163.778 26.8357V28.927H162.737V24.0986H163.778V24.826C163.939 24.3177 164.46 24.0171 165.002 24.0171C165.107 24.0171 165.177 24.0171 165.279 24.0285C165.21 24.3642 165.188 24.6293 165.107 24.9652H165.025C163.928 24.9652 163.778 25.8203 163.778 26.8357Z" fill="white"/>
<path d="M168.422 24.9529C167.567 24.9529 167.058 25.6929 167.058 26.9047V27.76C167.186 27.8415 167.532 28.083 168.26 28.083C169.196 28.083 169.68 27.3217 169.68 26.4777C169.68 25.5999 169.311 24.9529 168.422 24.9529ZM168.295 28.9848C166.897 28.9848 166.147 28.3258 166.03 28.2223V21.8797L167.058 21.6608V25.0217C167.312 24.4681 167.809 24.0286 168.583 24.0286C169.992 24.0286 170.732 25.0916 170.732 26.4905C170.732 27.8879 169.878 28.9848 168.295 28.9848Z" fill="white"/>
<path d="M171.842 24.0973H172.892V28.9257H171.842V24.0973ZM172.362 23.2082C172.016 23.2082 171.738 22.9891 171.738 22.6197C171.738 22.2615 172.016 22.0539 172.362 22.0539C172.72 22.0539 172.998 22.2615 172.998 22.631C172.998 22.9891 172.72 23.2082 172.362 23.2082Z" fill="white"/>
<path d="M176.14 28.9856C174.939 28.9856 174.534 28.4195 174.534 27.1135V24.9648H173.691L173.922 24.0984H174.534V23.129L175.586 22.8975V24.0984H176.787V24.9648H175.586V27.1374C175.586 28.0376 175.805 28.1767 176.881 28.0955L176.672 28.9856H176.14Z" fill="white"/>
<path d="M178.787 26.8357V28.927H177.746V24.0986H178.787V24.826C178.948 24.3177 179.469 24.0171 180.011 24.0171C180.115 24.0171 180.184 24.0171 180.288 24.0285C180.219 24.3642 180.197 24.6293 180.115 24.9652H180.034C178.937 24.9652 178.787 25.8203 178.787 26.8357Z" fill="white"/>
<path d="M182.9 28.0607C183.731 28.0607 184.263 27.3207 184.263 26.1086V25.2648C184.147 25.1733 183.777 24.9419 183.072 24.9419C182.113 24.9419 181.629 25.6919 181.629 26.5593C181.629 27.4133 181.999 28.0607 182.9 28.0607ZM183.026 24.0289C184.378 24.0289 185.128 24.6873 185.291 24.8151V28.9272H184.263V28.0959C183.996 28.5805 183.501 28.9851 182.784 28.9851C181.33 28.9851 180.566 27.9219 180.566 26.5246C180.566 25.1382 181.443 24.0289 183.026 24.0289Z" fill="white"/>
<path d="M188.492 28.9856C187.29 28.9856 186.886 28.4195 186.886 27.1135V24.9648H186.043L186.273 24.0984H186.886V23.129L187.937 22.8975V24.0984H189.138V24.9648H187.937V27.1374C187.937 28.0376 188.157 28.1767 189.232 28.0955L189.023 28.9856H188.492Z" fill="white"/>
<path d="M190.145 24.0972H191.196V28.9256H190.145V24.0972ZM190.665 23.208C190.318 23.208 190.041 22.9889 190.041 22.6195C190.041 22.2613 190.318 22.0537 190.665 22.0537C191.023 22.0537 191.3 22.2613 191.3 22.6309C191.3 22.9889 191.023 23.208 190.665 23.208Z" fill="white"/>
<path d="M194.789 24.9419C194.004 24.9419 193.345 25.5193 193.345 26.5245C193.345 27.54 194.004 28.0947 194.789 28.0947C195.609 28.0947 196.245 27.54 196.245 26.5359C196.245 25.5194 195.609 24.9419 194.789 24.9419ZM194.802 29.0087C193.414 29.0087 192.305 28.1072 192.305 26.5245C192.305 24.9419 193.414 24.0289 194.802 24.0289C196.199 24.0289 197.296 24.9419 197.296 26.5359C197.296 28.1073 196.199 29.0087 194.802 29.0087Z" fill="white"/>
<path d="M201.699 26.4206C201.699 25.3926 201.421 24.9067 200.658 24.9067C199.884 24.9067 199.4 25.6006 199.4 26.4781V28.9275H198.36V24.0992H199.4V24.8028C199.689 24.3182 200.231 24.0289 200.832 24.0289C202.207 24.0289 202.762 24.8953 202.762 26.408V28.9275H201.699V26.4206Z" fill="white"/>
<path d="M155.273 37.235C155.273 34.9246 156.879 33.5723 159.005 33.5723C160.414 33.5723 161.408 34.2658 161.408 34.2658L161.315 35.3065C161.315 35.3065 160.229 34.5199 159.029 34.5199C157.618 34.5199 156.464 35.4904 156.464 37.2122C156.464 38.9216 157.561 39.9496 159.005 39.9496C160.38 39.9496 161.165 39.2095 161.165 39.2095L161.638 40.1462C160.784 40.712 159.895 40.9201 159.005 40.9201C156.879 40.9201 155.273 39.5451 155.273 37.235Z" fill="white"/>
<path d="M163.28 37.8131H165.706C165.637 37.1207 165.129 36.7728 164.516 36.7728C163.951 36.7728 163.466 37.1207 163.28 37.8131ZM164.724 40.0086C165.394 40.0086 165.765 39.7192 165.973 39.5464L166.504 40.3314C165.879 40.7709 165.383 40.9101 164.724 40.9101C163.13 40.9101 162.183 39.9393 162.183 38.4145C162.183 36.9129 163.177 35.9189 164.494 35.9189C165.706 35.9189 166.665 36.7388 166.665 38.149C166.665 38.368 166.643 38.6334 166.643 38.6334H163.222C163.222 39.5464 163.893 40.0086 164.724 40.0086Z" fill="white"/>
<path d="M171.044 38.3218C171.044 37.2935 170.766 36.8079 170.004 36.8079C169.23 36.8079 168.745 37.5013 168.745 38.3791V40.8284H167.705V36H168.745V36.7038C169.035 36.219 169.577 35.9302 170.178 35.9302C171.553 35.9302 172.107 36.7966 172.107 38.309V40.8285H171.044V38.3218Z" fill="white"/>
<path d="M175.019 40.8863C173.817 40.8863 173.413 40.3205 173.413 39.0143V36.8658H172.57L172.801 35.999H173.413V35.0301L174.465 34.7983V35.999H175.665V36.8658H174.465V39.0382C174.465 39.9397 174.684 40.0773 175.76 39.9961L175.551 40.8862L175.019 40.8863Z" fill="white"/>
<path d="M177.667 38.7369V40.8282H176.626V35.9995H177.667V36.7272C177.828 36.2188 178.349 35.9183 178.891 35.9183C178.995 35.9183 179.064 35.9183 179.168 35.9297C179.099 36.265 179.076 36.5305 178.995 36.8664H178.914C177.817 36.8664 177.667 37.7213 177.667 38.7369Z" fill="white"/>
<path d="M180.543 37.8132H182.969C182.9 37.1207 182.391 36.7729 181.779 36.7729C181.213 36.7729 180.729 37.1208 180.543 37.8132ZM181.987 40.0086C182.657 40.0086 183.028 39.7193 183.236 39.5465L183.767 40.3315C183.142 40.771 182.646 40.9101 181.987 40.9101C180.393 40.9101 179.445 39.9394 179.445 38.4145C179.445 36.913 180.439 35.9189 181.757 35.9189C182.969 35.9189 183.928 36.7389 183.928 38.1491C183.928 38.368 183.905 38.6335 183.905 38.6335H180.484C180.484 39.5465 181.156 40.0086 181.987 40.0086Z" fill="white"/>
<path d="M74.7265 10.1514H80.8017V40.5284H74.7265V10.1514Z" fill="white"/>
<path d="M96.4791 30.436H106.034L101.231 20L96.4791 30.436ZM110.492 40.5292L107.846 34.8951H94.6663L92.0703 40.5292H85.5527L100.791 9.36816H101.672L116.91 40.5292H110.492Z" fill="white"/>
<path d="M118.184 25.2913C118.184 15.9329 124.553 9.75944 134.156 9.75944C137.635 9.75944 141.848 10.9356 144.151 12.6018L143.661 17.7949C141.261 15.9329 137.439 14.6103 134.45 14.6103C128.472 14.6103 124.406 18.9221 124.406 25.2423C124.406 31.6606 128.472 36.0213 134.45 36.0213C138.076 36.0213 141.212 34.4541 142.976 32.8858L145.376 37.3441C141.996 39.6963 138.37 40.9206 134.156 40.9206C124.553 40.9206 118.184 34.6986 118.184 25.2913Z" fill="white"/>
<path d="M43.543 34.1147C43.543 39.2207 39.3887 43.3759 34.2817 43.3759C29.1759 43.3759 25.0216 39.2207 25.0216 34.1147C25.0216 29.0078 29.1759 24.8536 34.2817 24.8536C39.3887 24.8536 43.543 29.0078 43.543 34.1147ZM21.1857 34.1147C21.1857 41.3369 27.0605 47.2119 34.2817 47.2119C41.5039 47.2119 47.3779 41.3369 47.3779 34.1147C47.3779 26.8938 41.5039 21.0177 34.2817 21.0177C27.0606 21.0177 21.1857 26.8939 21.1857 34.1147Z" fill="white"/>
<path d="M37.3207 64.547C34.1039 64.8445 30.9061 64.6209 27.8334 63.9218L29.2752 58.4978C30.071 58.6603 30.8713 58.7884 31.6762 58.8725C31.793 58.8842 31.9093 58.8934 32.0269 58.9039C32.2899 58.9281 32.554 58.9486 32.8168 58.965C32.9819 58.9742 33.1458 58.981 33.3105 58.9878C33.524 58.996 33.7385 59.0007 33.9519 59.0042C34.0719 59.0051 34.1893 59.0133 34.3083 59.0133C34.3891 59.0133 34.4698 59.0075 34.5506 59.0075C34.7049 59.0052 34.8609 58.9997 35.0164 58.9947C39.3806 58.8725 43.4623 57.6237 46.981 55.5233C46.9847 55.5212 46.9871 55.5198 46.9902 55.5175C47.2754 55.3468 47.5565 55.1693 47.8333 54.9882C47.8761 54.9604 47.9187 54.934 47.9614 54.9061C48.2257 54.7309 48.4849 54.5511 48.7423 54.3654C48.7723 54.3435 48.8034 54.3238 48.8344 54.302L52.9001 58.4276C48.4078 61.8806 43.0043 64.0223 37.3207 64.547ZM23.9433 62.7557C20.0534 61.2958 16.4628 59.0307 13.4202 56.0436C7.99032 50.714 4.83734 43.6857 4.44405 36.1337L9.57761 36.1313C10.0193 41.9095 12.463 47.5572 16.9126 51.9249C19.4095 54.3769 22.3009 56.1854 25.377 57.3631L23.9433 62.7557ZM13.0246 13.4208C16.3014 10.0832 20.2965 7.58062 24.6572 6.06634L25.7865 10.5642L25.8799 10.9319C22.3506 12.209 19.1641 14.2339 16.5875 16.8602C12.388 21.1381 10.0585 26.5654 9.5889 32.1176H4.50156C5.05733 25.0801 8.01935 18.5199 13.0246 13.4208ZM31.7492 4.52273C39.7903 3.78042 47.7158 6.27153 53.8515 11.3982L50.1471 15.1716C44.3411 10.3323 36.8375 8.56755 29.7931 9.85469L28.5739 4.99596C29.6198 4.78473 30.6788 4.62218 31.7492 4.52273ZM49.0617 48.7417C48.996 48.8086 48.8645 48.9378 48.8645 48.9378C45.1187 52.6472 39.9665 54.9386 34.2783 54.9386C25.4093 54.9386 17.8446 49.3681 14.8826 41.5369C14.8537 41.4596 14.8204 41.3825 14.7927 41.3049C14.7594 41.215 14.7315 41.1216 14.6995 41.0307C12.2107 33.8259 13.7916 25.5033 19.4844 19.7045L19.4766 19.6963C21.5444 17.588 24.0562 15.9179 26.8649 14.8417C34.2067 12.0438 42.8451 13.5778 48.8093 19.4322L50.2576 20.8542L56.7835 14.2065C56.7927 14.2167 56.803 14.2271 56.8122 14.2376L59.8974 11.0995C59.5178 10.6898 59.1292 10.2851 58.7267 9.88947C51.1815 2.48395 41.1049 -0.75466 31.343 0.147335C23.4921 0.872816 15.8433 4.27644 9.8887 10.343C3.89838 16.4451 0.648269 24.207 0.0968477 32.1177H0.0763L0.0232126 33.0959L0 34.3032V35.2016L0.0392019 36.136H0.0460745C0.433535 44.5391 3.865 52.8225 10.3422 59.1796C17.886 66.5863 27.9625 69.8247 37.7244 68.923C45.5706 68.1985 53.2136 64.7986 59.1674 58.7389L51.9772 51.6011L49.0617 48.7417Z" fill="white"/>
</svg>
