<svg width="212" height="76" viewBox="0 0 212 76" fill="none" xmlns="http://www.w3.org/2000/svg">
<path d="M83.5952 52.0522C81.634 52.0522 80.0837 52.7074 78.9443 54.0176C77.8132 55.3197 77.2476 57.106 77.2476 59.3765C77.2476 61.7121 77.7928 63.5187 78.8833 64.7964C79.9819 66.0659 81.5444 66.7007 83.5708 66.7007C84.8159 66.7007 86.236 66.4769 87.8311 66.0293V67.8481C86.5941 68.312 85.0682 68.5439 83.2534 68.5439C80.6248 68.5439 78.5944 67.7464 77.1621 66.1514C75.738 64.5563 75.0259 62.2899 75.0259 59.3521C75.0259 57.5129 75.3677 55.9015 76.0513 54.5181C76.743 53.1346 77.7358 52.0685 79.0298 51.3198C80.3319 50.5711 81.8618 50.1968 83.6196 50.1968C85.4914 50.1968 87.1271 50.5386 88.5269 51.2222L87.6479 53.0044C86.297 52.3696 84.9461 52.0522 83.5952 52.0522ZM105.275 68.2998H103.2V59.9014H93.8003V68.2998H91.7251V50.4531H93.8003V58.0459H103.2V50.4531H105.275V68.2998ZM121.4 68.2998L119.179 62.6235H112.025L109.828 68.2998H107.729L114.784 50.3799H116.53L123.549 68.2998H121.4ZM118.532 60.7559L116.457 55.2261C116.188 54.5262 115.911 53.6676 115.626 52.6504C115.447 53.4316 115.191 54.2902 114.857 55.2261L112.758 60.7559H118.532ZM133.9 68.2998L127.846 52.4795H127.748C127.862 53.7327 127.919 55.222 127.919 56.9473V68.2998H126.002V50.4531H129.127L134.779 65.1748H134.877L140.578 50.4531H143.678V68.2998H141.603V56.8008C141.603 55.4824 141.66 54.0501 141.774 52.5039H141.676L135.573 68.2998H133.9ZM148.585 50.4531H153.627C155.995 50.4531 157.708 50.8071 158.766 51.5151C159.824 52.2231 160.353 53.3421 160.353 54.8721C160.353 55.93 160.056 56.8049 159.462 57.4966C158.876 58.1802 158.017 58.6237 156.886 58.8271V58.9492C159.596 59.4131 160.951 60.8372 160.951 63.2217C160.951 64.8167 160.41 66.0618 159.328 66.957C158.253 67.8522 156.748 68.2998 154.811 68.2998H148.585V50.4531ZM150.661 58.0947H154.079C155.543 58.0947 156.597 57.8669 157.24 57.4111C157.883 56.9473 158.205 56.1701 158.205 55.0796C158.205 54.0786 157.847 53.3584 157.13 52.9189C156.414 52.4714 155.275 52.2476 153.712 52.2476H150.661V58.0947ZM150.661 59.8525V66.5298H154.384C155.824 66.5298 156.907 66.2531 157.631 65.6997C158.363 65.1382 158.729 64.2633 158.729 63.0752C158.729 61.9684 158.355 61.1546 157.606 60.6338C156.866 60.113 155.735 59.8525 154.213 59.8525H150.661ZM174.745 68.2998H164.796V50.4531H174.745V52.2964H166.872V58.0459H174.269V59.877H166.872V66.4443H174.745V68.2998ZM180.788 60.8779V68.2998H178.712V50.4531H183.607C185.797 50.4531 187.412 50.8722 188.454 51.7104C189.503 52.5487 190.028 53.8101 190.028 55.4946C190.028 57.8547 188.832 59.4497 186.439 60.2798L191.286 68.2998H188.832L184.511 60.8779H180.788ZM180.788 59.0957H183.632C185.097 59.0957 186.171 58.8068 186.854 58.229C187.538 57.6431 187.88 56.7682 187.88 55.6045C187.88 54.4245 187.53 53.5741 186.83 53.0532C186.138 52.5324 185.023 52.272 183.485 52.272H180.788V59.0957ZM204.237 63.5513C204.237 65.1219 203.668 66.3467 202.528 67.2256C201.389 68.1045 199.843 68.5439 197.89 68.5439C195.774 68.5439 194.146 68.2713 193.007 67.7261V65.7241C193.739 66.0334 194.537 66.2775 195.399 66.4565C196.262 66.6356 197.117 66.7251 197.963 66.7251C199.346 66.7251 200.388 66.4647 201.088 65.9438C201.788 65.4149 202.138 64.6825 202.138 63.7466C202.138 63.1281 202.012 62.6235 201.759 62.2329C201.515 61.8341 201.1 61.4679 200.514 61.1343C199.936 60.8006 199.053 60.4222 197.865 59.999C196.205 59.4049 195.017 58.701 194.301 57.8872C193.593 57.0734 193.239 56.0114 193.239 54.7012C193.239 53.3258 193.756 52.2313 194.789 51.4175C195.823 50.6037 197.19 50.1968 198.891 50.1968C200.665 50.1968 202.296 50.5223 203.786 51.1733L203.139 52.98C201.666 52.3615 200.233 52.0522 198.842 52.0522C197.743 52.0522 196.885 52.2882 196.266 52.7603C195.648 53.2323 195.338 53.8874 195.338 54.7256C195.338 55.3441 195.452 55.8527 195.68 56.2515C195.908 56.6421 196.291 57.0042 196.828 57.3379C197.373 57.6634 198.203 58.0256 199.318 58.4243C201.19 59.0916 202.475 59.8078 203.175 60.5728C203.883 61.3377 204.237 62.3306 204.237 63.5513Z" fill="#00317E"/>
<path d="M155.619 17.0255H156.775V9.86304H155.619V17.0255Z" fill="#00317E"/>
<path d="M161.558 14.5186C161.558 13.4903 161.28 13.0048 160.518 13.0048C159.744 13.0048 159.26 13.6983 159.26 14.5772V17.0252H158.219V12.1969H159.26V12.9008C159.549 12.4163 160.091 12.127 160.692 12.127C162.067 12.127 162.622 12.9944 162.622 14.5073V17.0252H161.558V14.5186V14.5186Z" fill="#00317E"/>
<path d="M165.533 17.0831C164.331 17.0831 163.927 16.517 163.927 15.2122V13.0624H163.084L163.314 12.1959H163.927V11.227L164.978 10.9951V12.1959H166.18V13.0624H164.978V15.235C164.978 16.1351 165.198 16.2743 166.273 16.1931L166.064 17.0832H165.533L165.533 17.0831Z" fill="#00317E"/>
<path d="M167.798 14.0101H170.224C170.155 13.3176 169.646 12.9693 169.034 12.9693C168.468 12.9693 167.984 13.3175 167.798 14.0101ZM169.242 16.2051C169.912 16.2051 170.282 15.9173 170.491 15.743L171.021 16.5295C170.396 16.9677 169.901 17.1067 169.242 17.1067C167.648 17.1067 166.7 16.1362 166.7 14.6111C166.7 13.1098 167.694 12.1155 169.012 12.1155C170.224 12.1155 171.183 12.9357 171.183 14.3456C171.183 14.5651 171.16 14.8302 171.16 14.8302H167.739C167.739 15.743 168.411 16.2052 169.242 16.2052V16.2051Z" fill="#00317E"/>
<path d="M173.264 14.9348V17.0261H172.223V12.1964H173.264V12.9251C173.425 12.4169 173.946 12.1162 174.488 12.1162C174.592 12.1162 174.662 12.1162 174.764 12.1276C174.696 12.4631 174.673 12.7286 174.592 13.0643H174.51C173.414 13.0643 173.264 13.9184 173.264 14.9348Z" fill="#00317E"/>
<path d="M178.856 14.5186C178.856 13.4903 178.578 13.0048 177.816 13.0048C177.041 13.0048 176.557 13.6983 176.557 14.5772V17.0252H175.518V12.1969H176.557V12.9008C176.846 12.4163 177.388 12.127 177.989 12.127C179.364 12.127 179.919 12.9944 179.919 14.5073V17.0252H178.856V14.5186H178.856Z" fill="#00317E"/>
<path d="M183.258 16.1598C184.089 16.1598 184.621 15.4196 184.621 14.2075V13.3635C184.505 13.2707 184.136 13.0393 183.431 13.0393C182.471 13.0393 181.987 13.7905 181.987 14.657C181.987 15.5123 182.358 16.1598 183.258 16.1598V16.1598ZM183.385 12.1274C184.737 12.1274 185.487 12.7864 185.65 12.9127V17.0261H184.621V16.1935C184.355 16.6794 183.859 17.0836 183.143 17.0836C181.688 17.0836 180.924 16.0206 180.924 14.6221C180.924 13.237 181.802 12.1274 183.384 12.1274H183.385Z" fill="#00317E"/>
<path d="M188.851 17.0831C187.649 17.0831 187.244 16.517 187.244 15.2122V13.0624H186.401L186.632 12.1959H187.244V11.227L188.296 10.9951V12.1959H189.497V13.0624H188.296V15.235C188.296 16.1351 188.515 16.2743 189.591 16.1931L189.382 17.0832H188.851V17.0831Z" fill="#00317E"/>
<path d="M190.503 12.1967H191.554V17.025H190.503V12.1967V12.1967ZM191.023 11.3065C190.677 11.3065 190.399 11.0876 190.399 10.718C190.399 10.3599 190.677 10.1519 191.023 10.1519C191.381 10.1519 191.659 10.3599 191.659 10.7293C191.659 11.0875 191.381 11.3065 191.023 11.3065V11.3065Z" fill="#00317E"/>
<path d="M195.147 13.04C194.362 13.04 193.703 13.6171 193.703 14.6226C193.703 15.6395 194.362 16.1929 195.147 16.1929C195.968 16.1929 196.604 15.6395 196.604 14.6339C196.604 13.6171 195.968 13.04 195.147 13.04ZM195.16 17.1068C193.772 17.1068 192.663 16.2053 192.663 14.6226C192.663 13.04 193.772 12.127 195.16 12.127C196.557 12.127 197.654 13.04 197.654 14.6339C197.654 16.2054 196.557 17.1068 195.16 17.1068V17.1068Z" fill="#00317E"/>
<path d="M202.058 14.5186C202.058 13.4903 201.78 13.0048 201.017 13.0048C200.243 13.0048 199.759 13.6983 199.759 14.5772V17.0252H198.718V12.1969H199.759V12.9008C200.048 12.4163 200.59 12.127 201.191 12.127C202.566 12.127 203.121 12.9944 203.121 14.5073V17.0252H202.058V14.5186V14.5186Z" fill="#00317E"/>
<path d="M206.532 16.1598C207.364 16.1598 207.896 15.4196 207.896 14.2075V13.3635C207.78 13.2707 207.41 13.0393 206.705 13.0393C205.746 13.0393 205.261 13.7905 205.261 14.657C205.261 15.5123 205.632 16.1598 206.532 16.1598L206.532 16.1598ZM206.659 12.1274C208.011 12.1274 208.761 12.7864 208.924 12.9127V17.0261H207.896V16.1935C207.629 16.6794 207.133 17.0836 206.417 17.0836C204.962 17.0836 204.198 16.0206 204.198 14.6221C204.198 13.237 205.076 12.1274 206.659 12.1274V12.1274Z" fill="#00317E"/>
<path d="M210.195 9.96759L211.235 9.75952V17.026H210.195V9.96759Z" fill="#00317E"/>
<path d="M157.156 26.5246H159.767L158.45 23.6823L157.156 26.5246ZM160.852 28.9276L160.149 27.4377H156.775L156.082 28.9276H154.868L158.392 21.5686H158.519L162.043 28.9276H160.852H160.852Z" fill="#00317E"/>
<path d="M163.778 26.8357V28.927H162.737V24.0986H163.778V24.826C163.939 24.3177 164.46 24.0171 165.002 24.0171C165.107 24.0171 165.177 24.0171 165.279 24.0285C165.21 24.3642 165.188 24.6293 165.107 24.9652H165.025C163.928 24.9652 163.778 25.8203 163.778 26.8357V26.8357Z" fill="#00317E"/>
<path d="M168.422 24.953C167.567 24.953 167.058 25.693 167.058 26.9048V27.7601C167.186 27.8415 167.532 28.0831 168.26 28.0831C169.196 28.0831 169.68 27.3218 169.68 26.4778C169.68 25.6 169.311 24.9529 168.422 24.9529L168.422 24.953ZM168.295 28.9848C166.897 28.9848 166.147 28.3259 166.03 28.2223V21.8798L167.058 21.6609V25.0218C167.312 24.4682 167.809 24.0287 168.583 24.0287C169.992 24.0287 170.732 25.0917 170.732 26.4906C170.732 27.888 169.878 28.9848 168.295 28.9848H168.295Z" fill="#00317E"/>
<path d="M171.842 24.0974H172.892V28.9258H171.842V24.0974ZM172.362 23.2083C172.016 23.2083 171.738 22.9892 171.738 22.6198C171.738 22.2615 172.016 22.054 172.362 22.054C172.72 22.054 172.998 22.2615 172.998 22.6311C172.998 22.9892 172.72 23.2083 172.362 23.2083V23.2083Z" fill="#00317E"/>
<path d="M176.14 28.9855C174.939 28.9855 174.534 28.4194 174.534 27.1135V24.9647H173.691L173.922 24.0983H174.534V23.1289L175.586 22.8975V24.0983H176.787V24.9647H175.586V27.1373C175.586 28.0375 175.805 28.1766 176.881 28.0954L176.672 28.9855H176.14V28.9855Z" fill="#00317E"/>
<path d="M178.787 26.8357V28.927H177.746V24.0986H178.787V24.826C178.948 24.3177 179.469 24.0171 180.011 24.0171C180.115 24.0171 180.184 24.0171 180.288 24.0285C180.219 24.3642 180.197 24.6293 180.115 24.9652H180.034C178.937 24.9652 178.787 25.8203 178.787 26.8357Z" fill="#00317E"/>
<path d="M182.9 28.0606C183.731 28.0606 184.263 27.3206 184.263 26.1085V25.2647C184.147 25.1732 183.778 24.9418 183.072 24.9418C182.113 24.9418 181.629 25.6918 181.629 26.5593C181.629 27.4132 181.999 28.0606 182.9 28.0606V28.0606ZM183.026 24.0288C184.378 24.0288 185.128 24.6872 185.291 24.815V28.9271H184.263V28.0959C183.996 28.5804 183.501 28.985 182.784 28.985C181.33 28.985 180.566 27.9219 180.566 26.5245C180.566 25.1381 181.443 24.0289 183.026 24.0289V24.0288Z" fill="#00317E"/>
<path d="M188.492 28.9855C187.29 28.9855 186.886 28.4194 186.886 27.1135V24.9647H186.043L186.273 24.0983H186.886V23.1289L187.937 22.8975V24.0983H189.138V24.9647H187.937V27.1373C187.937 28.0375 188.157 28.1766 189.232 28.0954L189.023 28.9855H188.492V28.9855Z" fill="#00317E"/>
<path d="M190.145 24.0972H191.196V28.9256H190.145V24.0972ZM190.665 23.208C190.318 23.208 190.041 22.9889 190.041 22.6195C190.041 22.2613 190.318 22.0537 190.665 22.0537C191.023 22.0537 191.3 22.2613 191.3 22.6309C191.3 22.9889 191.023 23.208 190.665 23.208V23.208Z" fill="#00317E"/>
<path d="M194.789 24.9418C194.004 24.9418 193.345 25.5193 193.345 26.5244C193.345 27.5399 194.004 28.0947 194.789 28.0947C195.609 28.0947 196.245 27.5399 196.245 26.5358C196.245 25.5193 195.609 24.9418 194.789 24.9418ZM194.802 29.0086C193.414 29.0086 192.305 28.1071 192.305 26.5244C192.305 24.9418 193.414 24.0288 194.802 24.0288C196.199 24.0288 197.296 24.9418 197.296 26.5358C197.296 28.1072 196.199 29.0086 194.802 29.0086Z" fill="#00317E"/>
<path d="M201.699 26.4205C201.699 25.3925 201.421 24.9066 200.658 24.9066C199.884 24.9066 199.4 25.6005 199.4 26.4781V28.9274H198.36V24.0991H199.4V24.8027C199.689 24.3182 200.231 24.0288 200.832 24.0288C202.207 24.0288 202.762 24.8952 202.762 26.4079V28.9274H201.699V26.4204V26.4205Z" fill="#00317E"/>
<path d="M155.273 37.235C155.273 34.9246 156.879 33.5723 159.005 33.5723C160.414 33.5723 161.408 34.2658 161.408 34.2658L161.315 35.3065C161.315 35.3065 160.23 34.5199 159.029 34.5199C157.618 34.5199 156.464 35.4904 156.464 37.2122C156.464 38.9216 157.561 39.9496 159.005 39.9496C160.38 39.9496 161.165 39.2095 161.165 39.2095L161.638 40.1462C160.784 40.712 159.895 40.9201 159.005 40.9201C156.879 40.9201 155.273 39.5451 155.273 37.2349V37.235Z" fill="#00317E"/>
<path d="M163.28 37.8132H165.706C165.637 37.1207 165.129 36.7729 164.516 36.7729C163.951 36.7729 163.466 37.1208 163.28 37.8132ZM164.724 40.0086C165.394 40.0086 165.765 39.7193 165.973 39.5465L166.504 40.3315C165.879 40.771 165.383 40.9101 164.724 40.9101C163.13 40.9101 162.183 39.9394 162.183 38.4145C162.183 36.913 163.177 35.9189 164.494 35.9189C165.706 35.9189 166.665 36.7389 166.665 38.1491C166.665 38.3681 166.643 38.6335 166.643 38.6335H163.222C163.222 39.5465 163.893 40.0087 164.724 40.0087V40.0086Z" fill="#00317E"/>
<path d="M171.044 38.3218C171.044 37.2935 170.766 36.8079 170.004 36.8079C169.23 36.8079 168.745 37.5013 168.745 38.3791V40.8284H167.705V36H168.745V36.7038C169.035 36.219 169.577 35.9302 170.178 35.9302C171.553 35.9302 172.107 36.7966 172.107 38.309V40.8285H171.044V38.3218V38.3218Z" fill="#00317E"/>
<path d="M175.019 40.8863C173.817 40.8863 173.413 40.3205 173.413 39.0143V36.8658H172.57L172.801 35.999H173.413V35.0301L174.465 34.7983V35.999H175.665V36.8658H174.465V39.0382C174.465 39.9397 174.684 40.0773 175.76 39.9961L175.55 40.8862H175.019V40.8863Z" fill="#00317E"/>
<path d="M177.667 38.7368V40.8281H176.626V35.9994H177.667V36.7271C177.828 36.2187 178.349 35.9182 178.891 35.9182C178.995 35.9182 179.064 35.9182 179.168 35.9296C179.099 36.2649 179.076 36.5304 178.995 36.8663H178.914C177.817 36.8663 177.667 37.7212 177.667 38.7368H177.667Z" fill="#00317E"/>
<path d="M180.543 37.8132H182.969C182.9 37.1207 182.391 36.7729 181.779 36.7729C181.213 36.7729 180.729 37.1208 180.543 37.8132ZM181.987 40.0086C182.657 40.0086 183.028 39.7193 183.236 39.5465L183.767 40.3315C183.142 40.771 182.646 40.9101 181.987 40.9101C180.393 40.9101 179.445 39.9394 179.445 38.4145C179.445 36.913 180.439 35.9189 181.757 35.9189C182.969 35.9189 183.928 36.7389 183.928 38.1491C183.928 38.3681 183.905 38.6335 183.905 38.6335H180.484C180.484 39.5465 181.156 40.0087 181.987 40.0087V40.0086Z" fill="#00317E"/>
<path d="M74.7265 10.1514H80.8017V40.5284H74.7265V10.1514Z" fill="#00317E"/>
<path d="M96.4791 30.436H106.034L101.231 20L96.4791 30.436H96.4791ZM110.492 40.5292L107.846 34.8951H94.6663L92.0703 40.5292H85.5527L100.791 9.36816H101.672L116.91 40.5292H110.492Z" fill="#00317E"/>
<path d="M118.184 25.2914C118.184 15.933 124.553 9.75952 134.156 9.75952C137.635 9.75952 141.848 10.9356 144.151 12.6018L143.661 17.7949C141.261 15.933 137.439 14.6104 134.45 14.6104C128.472 14.6104 124.406 18.9222 124.406 25.2424C124.406 31.6607 128.472 36.0214 134.45 36.0214C138.076 36.0214 141.212 34.4541 142.976 32.8859L145.376 37.3442C141.996 39.6963 138.37 40.9207 134.156 40.9207C124.553 40.9207 118.184 34.6988 118.184 25.2916V25.2914Z" fill="#00317E"/>
<path d="M43.543 34.1146C43.543 39.2206 39.3887 43.3759 34.2818 43.3759C29.1759 43.3759 25.0216 39.2206 25.0216 34.1146C25.0216 29.0078 29.1759 24.8535 34.2818 24.8535C39.3887 24.8535 43.543 29.0078 43.543 34.1146ZM21.1857 34.1146C21.1857 41.3368 27.0605 47.2118 34.2818 47.2118C41.504 47.2118 47.3779 41.3368 47.3779 34.1146C47.3779 26.8937 41.5039 21.0176 34.2818 21.0176C27.0606 21.0176 21.1857 26.8938 21.1857 34.1146Z" fill="#00317E"/>
<path d="M37.3207 64.547C34.1039 64.8445 30.9061 64.6209 27.8334 63.9218L29.2752 58.4978C30.071 58.6603 30.8713 58.7884 31.6762 58.8725C31.793 58.8842 31.9093 58.8934 32.0269 58.9039C32.2899 58.9281 32.554 58.9486 32.8168 58.965C32.9819 58.9741 33.1458 58.981 33.3105 58.9878C33.524 58.996 33.7385 59.0007 33.9519 59.0042C34.0719 59.0051 34.1893 59.0133 34.3083 59.0133C34.3891 59.0133 34.4698 59.0075 34.5506 59.0075C34.7049 59.0052 34.8609 58.9997 35.0164 58.9947C39.3806 58.8725 43.4623 57.6237 46.981 55.5233C46.9847 55.5212 46.9871 55.5198 46.9902 55.5175C47.2754 55.3468 47.5565 55.1693 47.8333 54.9882C47.8761 54.9604 47.9187 54.934 47.9614 54.9061C48.2257 54.7309 48.4849 54.5511 48.7423 54.3654C48.7723 54.3435 48.8034 54.3238 48.8344 54.302L52.9001 58.4276C48.4078 61.8806 43.0043 64.0223 37.3207 64.547ZM23.9433 62.7557C20.0534 61.2958 16.4628 59.0307 13.4202 56.0436C7.99032 50.714 4.83734 43.6857 4.44405 36.1337L9.57761 36.1313C10.0193 41.9095 12.463 47.5572 16.9126 51.9249C19.4095 54.3769 22.3009 56.1854 25.377 57.3631L23.9433 62.7557ZM13.0246 13.4208C16.3014 10.0832 20.2965 7.58062 24.6572 6.06634L25.7865 10.5642L25.8799 10.9319C22.3506 12.209 19.1641 14.2339 16.5875 16.8602C12.388 21.1381 10.0585 26.5654 9.5889 32.1176H4.50156C5.05733 25.0801 8.01935 18.5199 13.0246 13.4208ZM31.7492 4.52273C39.7903 3.78042 47.7158 6.27153 53.8515 11.3982L50.147 15.1716C44.3411 10.3323 36.8375 8.56755 29.7931 9.85469L28.5739 4.99596C29.6198 4.78473 30.6788 4.62218 31.7492 4.52273ZM49.0617 48.7417C48.996 48.8086 48.8645 48.9378 48.8645 48.9378C45.1187 52.6472 39.9665 54.9386 34.2783 54.9386C25.4093 54.9386 17.8446 49.3681 14.8826 41.5369C14.8537 41.4596 14.8204 41.3825 14.7927 41.3049C14.7594 41.215 14.7315 41.1216 14.6995 41.0307C12.2107 33.8259 13.7916 25.5033 19.4844 19.7045L19.4766 19.6963C21.5444 17.588 24.0562 15.9179 26.8649 14.8417C34.2067 12.0438 42.8451 13.5778 48.8093 19.4322L50.2576 20.8542L56.7835 14.2065C56.7926 14.2167 56.803 14.2271 56.8121 14.2376L59.8974 11.0995C59.5178 10.6899 59.1292 10.2851 58.7267 9.88947C51.1815 2.48395 41.1049 -0.75466 31.343 0.147335C23.4921 0.872816 15.8433 4.27644 9.8887 10.343C3.89838 16.4451 0.648269 24.207 0.0968477 32.1177H0.0763L0.0232126 33.0959L0 34.3032V35.2016L0.0392019 36.136H0.0460745C0.433535 44.5391 3.865 52.8225 10.3422 59.1796C17.886 66.5863 27.9625 69.8247 37.7244 68.923C45.5706 68.1985 53.2136 64.7986 59.1674 58.7389L51.9772 51.6011L49.0617 48.7417Z" fill="#204BB3"/>
</svg>
